<svg id="logo-instagram" xmlns="http://www.w3.org/2000/svg" width="23.655" height="23.655" viewBox="0 0 23.655 23.655">
  <path id="Trazado_9" data-name="Trazado 9" d="M26.426,10.592a1.419,1.419,0,1,1-1.419-1.419A1.419,1.419,0,0,1,26.426,10.592Z" transform="translate(-6.865 -5.079)" fill="#333"/>
  <path id="Trazado_10" data-name="Trazado 10" d="M17.141,11.068a6.073,6.073,0,1,0,6.073,6.073A6.073,6.073,0,0,0,17.141,11.068Zm0,10.016a3.942,3.942,0,1,1,3.942-3.942A3.942,3.942,0,0,1,17.141,21.084Z" transform="translate(-5.314 -5.314)" fill="#333"/>
  <path id="Trazado_11" data-name="Trazado 11" d="M16.327,6.631c3.158,0,3.532.011,4.779.069a6.546,6.546,0,0,1,2.2.407,3.918,3.918,0,0,1,2.245,2.245,6.546,6.546,0,0,1,.407,2.2c.057,1.247.069,1.622.069,4.78s-.011,3.532-.069,4.778a6.546,6.546,0,0,1-.407,2.2A3.918,3.918,0,0,1,23.3,25.549a6.546,6.546,0,0,1-2.2.407c-1.247.057-1.622.069-4.779.069s-3.532-.011-4.779-.069a6.546,6.546,0,0,1-2.2-.407A3.918,3.918,0,0,1,7.106,23.3a6.546,6.546,0,0,1-.407-2.2c-.057-1.247-.069-1.622-.069-4.779s.011-3.532.069-4.779a6.546,6.546,0,0,1,.407-2.2A3.918,3.918,0,0,1,9.352,7.107a6.546,6.546,0,0,1,2.2-.407c1.247-.057,1.622-.069,4.779-.069m0-2.131c-3.212,0-3.616.014-4.877.071a8.681,8.681,0,0,0-2.87.55,6.048,6.048,0,0,0-3.46,3.46,8.68,8.68,0,0,0-.55,2.871c-.056,1.262-.07,1.662-.07,4.876s.014,3.616.071,4.877a8.68,8.68,0,0,0,.55,2.87,6.048,6.048,0,0,0,3.46,3.46,8.681,8.681,0,0,0,2.871.55c1.262.057,1.664.071,4.876.071s3.616-.014,4.877-.071a8.68,8.68,0,0,0,2.871-.55,6.048,6.048,0,0,0,3.46-3.46,8.68,8.68,0,0,0,.549-2.871c.056-1.262.07-1.663.07-4.876s-.014-3.616-.071-4.877a8.68,8.68,0,0,0-.55-2.87,6.048,6.048,0,0,0-3.46-3.46A8.68,8.68,0,0,0,21.2,4.571C19.941,4.513,19.541,4.5,16.327,4.5Z" transform="translate(-4.5 -4.5)" fill="#333"/>
</svg>
