<svg xmlns="http://www.w3.org/2000/svg" width="23.655" height="23.655" viewBox="0 0 23.655 23.655">
  <path id="logo-facebook" d="M26.844,4.5H5.811A1.321,1.321,0,0,0,4.5,5.811V26.844a1.321,1.321,0,0,0,1.311,1.311H17.135V19.008H14.06V15.43h3.075V12.8c0-3.056,1.863-4.721,4.6-4.721a18.307,18.307,0,0,1,2.75.138V11.4H22.606c-1.489,0-1.774.71-1.774,1.744v2.277H24.38L23.916,19H20.832v9.156h6.012a1.321,1.321,0,0,0,1.312-1.311V5.811A1.321,1.321,0,0,0,26.844,4.5Z" transform="translate(-4.5 -4.5)" fill="#333"/>
</svg>
