<svg xmlns="http://www.w3.org/2000/svg" xmlns:xlink="http://www.w3.org/1999/xlink" width="177.687" height="27.931" viewBox="0 0 177.687 27.931"><defs><style>.a{fill:#333;}.b{clip-path:url(#a);}</style><clipPath id="a"><path class="a" d="M0,14.118H177.687V-13.813H0Z" transform="translate(0 13.813)"/></clipPath></defs><g transform="translate(0 13.813)"><g class="b" transform="translate(0 -13.813)"><g transform="translate(-0.001 -0.001)"><path class="a" d="M12.947,10.336a1.628,1.628,0,0,0-.085.192A13.563,13.563,0,0,1,.916,17.818,13.8,13.8,0,0,1-12.668,3.853,13.831,13.831,0,0,1,.916-10.113,13.541,13.541,0,0,1,12.883-2.694a1.346,1.346,0,0,1,.15.255c.022.02-4.335,3.167-4.38,3.1A.4.4,0,0,0,8.568.472,8.075,8.075,0,0,0,.916-4.672,8.485,8.485,0,0,0-7.417,3.853,8.467,8.467,0,0,0,.916,12.419,8.335,8.335,0,0,0,8.44,7.487a2.611,2.611,0,0,0,.127-.275Z" transform="translate(12.668 10.113)"/></g></g><g transform="translate(31.247 -13.559)"><path class="a" d="M9.584,0V9.756H-4.146V0H-9.377V27.144h5.231V15.22H9.584V27.144h5.272V0Z" transform="translate(9.377)"/></g><g transform="translate(129.284 -13.559)"><path class="a" d="M0,0V27.144H20.918v-5.4H5.294V16.326H17.942V10.9H5.294V5.484H18.983V0Z"/></g><g transform="translate(157.619 -13.559)"><path class="a" d="M0,0V27.144H20.067v-5.4H5.316V0Z"/></g><g transform="translate(95.444 -13.559)"><path class="a" d="M9.605,0V16.326L-2.022,0H-9.4V27.144h5.314V6.675L10.669,27.144h4.208V0Z" transform="translate(9.398)"/></g><g transform="translate(59.711 -13.559)"><path class="a" d="M6.081,0-5.95,27.144H.341l2.424-5.4H16.816l2.445,5.4h6.291L13.436,0Zm3.7,5.484,4.847,10.842H5.145Z" transform="translate(5.95)"/></g></g></svg>