<svg xmlns="http://www.w3.org/2000/svg" xmlns:xlink="http://www.w3.org/1999/xlink" width="194.138" height="45.607" viewBox="0 0 194.138 45.607"><defs><style>.a{fill:none;}.b{clip-path:url(#a);}.c{fill:#2b2e34;}</style><clipPath id="a"><path class="a" d="M0,22.332H194.138V-23.275H0Z" transform="translate(0 23.275)"/></clipPath></defs><g transform="translate(0 23.275)"><g class="b" transform="translate(0 -23.275)"><g transform="translate(0 0.001)"><path class="c" d="M9.491.048A24.083,24.083,0,0,0-2.548,4.958a11.7,11.7,0,0,0-4.662,8.794c0,1.207.378,1.517,1.777,1.45.9-.043,1-.157.566-.654a3.525,3.525,0,0,1-.621-2.271A8.494,8.494,0,0,1-2.8,6.557,9.015,9.015,0,0,1,2.927,3.722a43.418,43.418,0,0,1,9.817.882c3.991.713,5.008.88,6.38,1.048l1.368.169L19.2,6.241a26.966,26.966,0,0,0-7.767,4.372A35.684,35.684,0,0,0,7.05,14.987C5.9,16.474-2.238,27.627-5.1,31.638c-2.739,3.845-2.788,3.905-3.843,4.91-.717.686-.992,1.007-.95,1.119.069.178.037.182,1.466-.194a14.224,14.224,0,0,1,6.748.063c1.922.39,3.325.427,3.931.1.807-.429,1.236-1.191.631-1.115A12.549,12.549,0,0,1-.724,36.4c-1.058-.139-2.261-.253-2.675-.257l-.752,0,.341-.161c.184-.088.658-.308,1.048-.488a14.012,14.012,0,0,0,4.509-3.584c.3-.364,3.607-4.875,7.36-10.031s7.2-9.829,7.652-10.391A20.546,20.546,0,0,1,22.21,6.641a5.135,5.135,0,0,1,2.953-.688c4.932,0,11.057-1.04,14.2-2.4,1.428-.619,2.555-1.493,2.706-2.1.084-.345-.016-.447-.443-.447a.508.508,0,0,0-.533.253,4.075,4.075,0,0,1-2.283.968,16.638,16.638,0,0,1-3.4.106c-3.168-.065-4.738-.241-11.7-1.321A64.214,64.214,0,0,0,12.5-.048c-1.252.008-2.61.051-3.01.1" transform="translate(9.892 0.05)"/></g><g transform="translate(20.784 14.941)"><path class="c" d="M30.17.078a22.333,22.333,0,0,0-8.592,4.1A20.191,20.191,0,0,0,17.489,8.6c-.249.378-.388.517-.41.408-.065-.333-.366-.145-.782.486-2.259,3.427-5.553,6.813-7.681,7.9-1.458.743-2.816.788-2.816.094,0-.551.564-1.272,3.157-4.029,2.975-3.167,4.285-4.832,5.228-6.643a6.5,6.5,0,0,0,.978-3.5,3.672,3.672,0,0,0-.229-1.593C14.281.078,12.635-.439,10.809.429c-1.765.839-3.651,2.381-7,5.731C2.42,7.549,1.331,8.623,1.389,8.549,3.01,6.452,5.275,3.58,6.312,2.3A11.487,11.487,0,0,0,7.625.505C7.6.374,7.24.35,4.92.329L2.246.305-.692,4.136A39.652,39.652,0,0,1-3.754,7.918,7.648,7.648,0,0,0-5.175,9.354a62.107,62.107,0,0,1-5.794,5.78c-2.244,1.791-3.96,2.714-5.389,2.894-.447.057-.551.035-.792-.153-.259-.206-.274-.259-.237-.794.08-1.125.537-1.8,6.317-9.4C-8.045,3.713-5.755.617-5.755.505c0-.2-.029-.2-2.786-.176l-2.786.025-1.117,1.528c-.617.846-1.131,1.517-1.146,1.5a1.054,1.054,0,0,1,.069-.364,4.4,4.4,0,0,0,.094-.966c0-1.562-1.076-2.144-3.327-1.813a20.538,20.538,0,0,0-8.3,3.725c-3.506,2.587-5.924,6.321-6.331,9.778-.274,2.32.482,4.256,1.961,5.02a4.358,4.358,0,0,0,2.8.084c1.63-.547,3.543-2.122,5.6-4.611a8.73,8.73,0,0,1,.784-.884,1.524,1.524,0,0,1-.114.439,6.333,6.333,0,0,0-.253,2.679,2.914,2.914,0,0,0,2.532,2.673c2.453.449,5.465-1.005,8.9-4.3l1.039-1-.749.97c-2.179,2.826-2.42,3.163-2.367,3.3.049.123.425.145,2.659.139l2.6,0,.823-1.029A136.793,136.793,0,0,1,5.9,5.557C9.5,2.247,11.884.7,12.48,1.295c.441.441-.212,1.34-3.217,4.428-3.931,4.038-5.246,5.771-5.949,7.836-.635,1.863-.1,4.327,1.107,5.118a2.616,2.616,0,0,0,1.66.462c3.078,0,6.476-2.8,9.884-8.146.4-.619.745-1.146.774-1.174a4.539,4.539,0,0,1-.306.67,9.841,9.841,0,0,0-1.091,4.846c.12,2.146,1.176,3.449,2.906,3.586,1.587.127,3.923-1.068,6.419-3.286.852-.758,1.133-1.144-3.27,4.524-3.868,4.981-5.761,7.364-6.923,8.71-1.1,1.274-1.084,1.468.084,1.146.39-.108,1.564-.349,2.6-.537a24.788,24.788,0,0,0,9.1-3.133,27.463,27.463,0,0,0,6.051-4.942,84.621,84.621,0,0,0,7.113-8.575c.127-.174.163-.19.121-.059-.833,2.72-.647,4.7.533,5.716a2.8,2.8,0,0,0,1.989.6,7.244,7.244,0,0,0,4.176-1.758,34.428,34.428,0,0,0,3.978-3.893c.445-.572.578-.633.39-.184a8.076,8.076,0,0,0-.406,2.884c.133,2.077,1.184,3.153,3.076,3.143A7.081,7.081,0,0,0,57.5,17.523a33.716,33.716,0,0,0,4.464-4.45c.582-.7,1.1-1.319,1.164-1.389s.01.282-.114.778c-.935,3.7.366,6.586,3.043,6.758,1.885.121,4.2-.709,6.786-2.432a40.057,40.057,0,0,0,5.808-4.918,7.468,7.468,0,0,1,.786-.768c-.043.071-1.231,1.652-2.647,3.525s-2.587,3.5-2.61,3.617l-.045.218h5.524l.835-1.1A132.063,132.063,0,0,1,91.806,4.9a13.849,13.849,0,0,1,1.136-.982,2.561,2.561,0,0,1-.112.562c-.4,1.511.462,2.373,2.044,2.044A5.488,5.488,0,0,0,99.009,1.8,1.4,1.4,0,0,0,98.8.887,1.43,1.43,0,0,0,97.283.16a2.7,2.7,0,0,0-1.572.4c-1.9.911-5.391,4.05-8.447,7.585a6.829,6.829,0,0,1-.662.707c-.049,0-.19.186,3.184-4.174C91.365,2.635,92.653.9,92.653.811c0-.151-.225-.169-2.632-.19L87.389.6,85.941,2.514c-.8,1.058-1.642,2.114-1.883,2.355s-1.009,1.068-1.713,1.844c-1.409,1.554-4.638,4.771-6.006,5.984-4,3.543-7.507,5.577-9.6,5.567-.972,0-1.317-.415-1.138-1.346a12.067,12.067,0,0,1,1.587-3.243l.523-.756,1.446-.58c4.728-1.9,8.551-4.46,10.089-6.77a5.131,5.131,0,0,0,1.029-3.137A2.1,2.1,0,0,0,78.525.147,2.681,2.681,0,0,0,77.145.1c-3.374.513-9.337,4.458-11.906,7.877a59.919,59.919,0,0,1-6.212,6.764c-2.185,1.977-4.381,3.335-5.447,3.366-.349.012-.535-.029-.6-.131-.282-.419.341-1.912,1.379-3.3.3-.4,2.869-3.682,5.7-7.281S65.21.774,65.2.693c-.022-.125-.423-.149-2.841-.165L59.541.509,57.7,2.956c-2.573,3.408-4.575,5.871-6.212,7.64-3.261,3.525-5.23,5.361-6.935,6.46a4,4,0,0,1-2.095.823c-.733,0-.8-.457-.249-1.622.46-.966.843-1.475,6.27-8.379C54.454.276,54.1.74,54.015.607A14.372,14.372,0,0,0,51.153.5h-2.8L45.006,4.747c-1.844,2.34-3.517,4.487-3.723,4.781a6.187,6.187,0,0,1-.582.729c-.116.108-.656.756-1.215,1.456A96.053,96.053,0,0,1,29.414,22.522a28.441,28.441,0,0,1-3.545,2.626,33.334,33.334,0,0,1-4,1.952l-.582.208.592-.611c.327-.335,4.956-6.272,10.283-13.185S41.892.881,41.943.815a.2.2,0,0,0-.024-.266C41.82.425,41.381.4,39.059.4H36.317l-1.254,1.74c-.684.95-1.266,1.722-1.285,1.7a1.76,1.76,0,0,1,.118-.5A2.728,2.728,0,0,0,33.568.5c-.6-.6-1.65-.727-3.4-.421m2.263,1.013c.974.272.966,1.456-.024,3.535-2.473,5.195-10.168,12.7-13.358,13.036-.474.047-.527.033-.68-.2s-.149-.317-.051-.705a6.287,6.287,0,0,1,.939-1.9c.378-.533,7.634-9.768,8.528-10.856,1.423-1.728,2.389-2.522,3.5-2.871a1.59,1.59,0,0,1,1.146-.033m46.116.167c.266.3.28.572.071,1.2-.758,2.287-3.845,5.769-6.817,7.7a27.379,27.379,0,0,1-3.315,1.789c-.018-.022,1.47-1.942,3.3-4.262,3.584-4.534,4.85-5.927,5.782-6.359.611-.282.778-.3.978-.069m-93.393.035c1.307.594-.333,4.46-3.645,8.586-4.372,5.447-7.117,7.9-9.008,8.067-.747.063-.939-.084-.927-.717.029-1.55,2.722-5.5,8.4-12.311,1.773-2.128,2.976-3.17,4.1-3.556.592-.2.756-.214,1.078-.069" transform="translate(31.444 0.081)"/></g><g transform="translate(145.135 15.166)"><path class="c" d="M7.254.032C3.806.57-.5,2.99-3.417,6.033-6.958,9.721-8.445,14.287-7.03,17.12a3.349,3.349,0,0,0,4.136,1.7c1.736-.449,3.723-2.075,6.045-4.95,1.152-1.427,1.16-1.434.976-.99a8.018,8.018,0,0,0-.408,4.348,2.675,2.675,0,0,0,1.35,1.6,4.847,4.847,0,0,0,2.5,0c2.251-.582,5.2-2.963,7.575-6.11A2.261,2.261,0,0,1,15.6,12.2a.875.875,0,0,1-.1.368,7.489,7.489,0,0,0-.427,2.933,3.539,3.539,0,0,0,.308,1.679,2.92,2.92,0,0,0,4.06,1.427,21.079,21.079,0,0,0,5.555-4.037l1.068-.991-.637.825c-.349.453-1.895,2.467-3.433,4.466-4.24,5.516-5.951,7.628-8.553,10.564l-.457.515.231.243c.276.294.343.292,1.187-.014.38-.137,1.912-.57,3.417-.964a60.457,60.457,0,0,0,6.933-2.13,22.134,22.134,0,0,0,8.322-5.253,18.5,18.5,0,0,0,3.129-3.97c1.893-3.176,2.277-6.349,1.029-8.467-.261-.447-.3-.472-.527-.329-.116.074-.112.165.041.649.8,2.536-.376,6.2-3.112,9.711-2.489,3.2-6.737,5.974-11.581,7.571a10.685,10.685,0,0,1-1.383.4,3.411,3.411,0,0,1,.629-.9C24.206,22.928,41.465.847,41.441.721s-.331-.159-2.7-.18L36.072.517l-2.155,2.8a69.927,69.927,0,0,1-8.234,9.245c-4.234,4-6.978,5.812-7.591,5-.249-.329-.108-1.193.323-1.991.249-.459,2.3-3.029,6.125-7.669C27.958,3.751,30.3.835,30.3.715c0-.194-.051-.2-2.9-.2H24.508l-3.66,4.5C18.2,8.269,17.134,9.515,17,9.508s-.441.3-.96.943c-2.816,3.466-5.381,5.808-7.54,6.882a3.768,3.768,0,0,1-1.685.547c-.67.047-.688.043-.8-.2-.151-.327-.016-.835.455-1.7.445-.819.331-.668,6.39-8.369C15.774,3.9,18.157.79,18.157.7c0-.159-.2-.172-2.692-.2-1.487-.016-2.743-.016-2.8,0s-.778.941-1.6,2.057C9.729,4.372,9.292,4.9,9.608,4.313A8.361,8.361,0,0,0,10.1,1.866,1.868,1.868,0,0,0,9.341.188,3.862,3.862,0,0,0,7.254.032M8.934,1.293c.49.492.092,2.3-.968,4.4a25.113,25.113,0,0,1-2.973,4.5c-3.511,4.458-5.986,6.8-7.887,7.473-.872.31-1.411.31-1.718,0-.284-.286-.288-.339-.086-1.039.464-1.591,2.275-4.234,6.813-9.944,3.08-3.874,4.24-4.983,5.7-5.443.564-.178.9-.163,1.117.055" transform="translate(7.561 0.033)"/></g></g></g></svg>