<svg xmlns="http://www.w3.org/2000/svg" xmlns:xlink="http://www.w3.org/1999/xlink" width="154.931" height="80.509" viewBox="0 0 154.931 80.509"><defs><style>.a{fill:none;}.b{clip-path:url(#a);}.c{fill:#2b2e34;}</style><clipPath id="a"><path class="a" d="M0,36.694H154.931V-43.815H0Z" transform="translate(0 43.815)"/></clipPath></defs><g transform="translate(0 43.815)"><g class="b" transform="translate(0 -43.815)"><g transform="translate(147.714 52.712)"><path class="c" d="M1.646,0a3.6,3.6,0,1,0,3.6,3.6A3.6,3.6,0,0,0,1.646,0m0,6.481A2.878,2.878,0,1,1,4.515,3.6,2.881,2.881,0,0,1,1.646,6.481" transform="translate(1.966 0)"/></g><g transform="translate(149.837 54.237)"><path class="c" d="M1.121.944A1.021,1.021,0,0,0,1.7-.041,1.11,1.11,0,0,0,.516-1.127H-1.338V2.757h.889V1.242h.334c.448,0,.707.121.832.537a7.3,7.3,0,0,0,.32.979l.967,0a3.084,3.084,0,0,1-.356-.946A1.11,1.11,0,0,0,1.121.944M.272.475H-.441V-.418H.185c.274,0,.6.112.6.426A.474.474,0,0,1,.272.475" transform="translate(1.338 1.127)"/></g><g transform="translate(23.598 60.898)"><path class="c" d="M7.348,6.017A9.828,9.828,0,0,1,3.7,8.472c-1.233.4-4.744.706-5.777-2.2-.226-.628-.044-.821.524-.99.851-.25,3.032-.893,5.336-1.757A27.525,27.525,0,0,0,8.315,1.4a1.97,1.97,0,0,0,.744-2.692c-1.468-3.3-4.787-6.753-10.3-5.7a9.4,9.4,0,0,0-7.528,9.3c0,5.593,3.368,8.866,7.659,9.878A10.3,10.3,0,0,0,9.505,7.976C10.3,6.73,8.07,5.253,7.348,6.017m-9.932-4.4C-3.013.429-2.672-3.2-.669-3.885c2.1-.722,3.392.362,4.022,2.484A2.46,2.46,0,0,1,3.278.525a3.609,3.609,0,0,1-1.635.922L.064,1.971c-1.545.526-2.286.632-2.648-.356" transform="translate(8.774 7.185)"/></g><g transform="translate(74.969 60.898)"><path class="c" d="M7.35,6.017A9.849,9.849,0,0,1,3.695,8.472c-1.233.4-4.744.706-5.779-2.2-.222-.628-.039-.821.527-.99.847-.25,3.032-.893,5.334-1.757A27.49,27.49,0,0,0,8.316,1.4,1.97,1.97,0,0,0,9.06-1.291c-1.47-3.3-4.788-6.753-10.306-5.7a9.409,9.409,0,0,0-7.53,9.3,9.546,9.546,0,0,0,7.659,9.878A10.3,10.3,0,0,0,9.507,7.976C10.3,6.73,8.068,5.253,7.35,6.017m-9.932-4.4A6.189,6.189,0,0,1-2.336-1.98,2.98,2.98,0,0,1-.671-3.885,2.692,2.692,0,0,1,1.756-3.8a3.9,3.9,0,0,1,1.6,2.4A2.462,2.462,0,0,1,3.28.525a3.581,3.581,0,0,1-1.637.922c-.684.246-1.288.441-1.575.531-1.558.487-2.29.625-2.65-.364" transform="translate(8.776 7.185)"/></g><g transform="translate(114.132 60.898)"><path class="c" d="M7.35,6.017A9.849,9.849,0,0,1,3.695,8.472c-1.233.4-4.744.706-5.779-2.2-.222-.628-.039-.821.527-.99.847-.25,3.032-.893,5.336-1.757A27.525,27.525,0,0,0,8.316,1.4,1.97,1.97,0,0,0,9.06-1.291c-1.47-3.3-4.788-6.753-10.306-5.7a9.409,9.409,0,0,0-7.53,9.3,9.546,9.546,0,0,0,7.659,9.878A10.3,10.3,0,0,0,9.507,7.976C10.3,6.73,8.068,5.253,7.35,6.017m-9.932-4.4A6.2,6.2,0,0,1-2.337-1.98,2.988,2.988,0,0,1-.671-3.885,2.691,2.691,0,0,1,1.756-3.8a3.892,3.892,0,0,1,1.6,2.4A2.462,2.462,0,0,1,3.28.525a3.584,3.584,0,0,1-1.635.922c-.685.246-1.29.441-1.577.531-1.558.487-2.29.625-2.65-.364" transform="translate(8.776 7.185)"/></g><g transform="translate(0 54.851)"><path class="c" d="M6.714,9.257a1.962,1.962,0,0,1-.816,1.83l-1.248.564a.485.485,0,0,0-.288.516,1.045,1.045,0,0,0,.017.186l.149,1.42c.064.386.327.45.842.45h9.059c.513,0,.777-.064.84-.45l.149-1.42a1.283,1.283,0,0,0,.018-.186.487.487,0,0,0-.288-.516l-1.251-.564a1.961,1.961,0,0,1-.814-1.83V-6.437a1.961,1.961,0,0,1,.814-1.83l1.251-.566a.486.486,0,0,0,.288-.516,1.283,1.283,0,0,0-.018-.186L15.268-10.6c-.062-.388-.327-.452-.84-.452H5.792c-.513,0-.777.064-.842.452L4.8-9.535a1.067,1.067,0,0,0-.018.186.486.486,0,0,0,.288.516l1.018.566c.584.333.623,1.08.623,1.83v4.375a.553.553,0,0,1-.551.553H1.255A.554.554,0,0,1,.7-2.062V-6.437c0-.75.039-1.5.623-1.83l1.018-.566a.486.486,0,0,0,.288-.516,1.067,1.067,0,0,0-.018-.186L2.468-10.6c-.066-.388-.331-.452-.843-.452H-7.012c-.511,0-.774.064-.842.452L-8-9.535a1.067,1.067,0,0,0-.018.186.485.485,0,0,0,.287.516l1.251.566a1.965,1.965,0,0,1,.814,1.83V9.257a1.965,1.965,0,0,1-.814,1.83l-1.251.564a.486.486,0,0,0-.287.516A1.067,1.067,0,0,0-8,12.353l.145,1.42c.068.386.331.45.842.45H2.049c.511,0,.774-.064.842-.45l.145-1.42a.913.913,0,0,0,.018-.186.488.488,0,0,0-.287-.516l-1.251-.564A1.965,1.965,0,0,1,.7,9.257V2.877a.554.554,0,0,1,.553-.553H6.163a.553.553,0,0,1,.551.553Z" transform="translate(8.017 11.053)"/></g><g transform="translate(43.902 54.341)"><path class="c" d="M2.981,1.439A3.214,3.214,0,0,1-.286,4.594,3.215,3.215,0,0,1-3.559,1.439,3.216,3.216,0,0,1-.286-1.718,3.214,3.214,0,0,1,2.981,1.439" transform="translate(3.559 1.718)"/></g><g transform="translate(42.638 61.734)"><path class="c" d="M.436,8.383c-.489,0-.742-.059-.807-.432L-.514,6.537a1.6,1.6,0,0,1-.007-.178.487.487,0,0,1,.268-.5l.974-.54A1.929,1.929,0,0,0,1.5,3.565V-5.4c0-.75-.129-1.709-.786-2.038L.089-7.792A.488.488,0,0,1-.2-8.308a1.286,1.286,0,0,1,.018-.184L-.03-9.56c.062-.388.329-.45.84-.45H6.928a.554.554,0,0,1,.555.553V3.565a1.924,1.924,0,0,0,.779,1.757l.974.54a.491.491,0,0,1,.27.5.921.921,0,0,1-.013.178l-.14,1.415c-.064.373-.318.432-.807.432Z" transform="translate(0.521 10.01)"/></g><g transform="translate(54.073 61.047)"><path class="c" d="M3.667.749S4.011.58,4.63.28C5.858-.3,8.256-1.328,10.24-.7c1.716.549,3.2,1.8,3.2,5.071v9.917c0,.424.018.6.215.706.263.145.722-.285,1.161-.514s.687.04.959.342a.965.965,0,0,1,.29,1.117,4.564,4.564,0,0,1-4.291,2.418c-1.817,0-4.129-1.042-4.129-3.761V5.054a1.683,1.683,0,0,0-1.88-1.865c-1.242.154-2.143,1.193-2.143,3.043v7.137A1.933,1.933,0,0,0,4.4,15.125l.976.542a.482.482,0,0,1,.268.494.92.92,0,0,1-.011.178L5.5,17.755c-.062.371-.316.432-.808.432H-3.422c-.491,0-.744-.061-.808-.432l-.141-1.415a1.273,1.273,0,0,1-.007-.178.482.482,0,0,1,.268-.494l.97-.542a1.924,1.924,0,0,0,.783-1.757V4.407c0-.75-.125-1.711-.785-2.038l-.625-.358A.485.485,0,0,1-4.054,1.5a1.083,1.083,0,0,1,.018-.186L-3.888.243c.066-.388.331-.448.84-.448H2.717a.762.762,0,0,1,.759.549Z" transform="translate(4.379 0.894)"/></g><g transform="translate(133.207 61.047)"><path class="c" d="M3.666.749,4.633.28C5.859-.3,8.257-1.328,10.239-.7c1.72.549,3.2,1.8,3.2,5.071v9.917c0,.424.018.6.213.706.263.145.726-.285,1.165-.514s.685.04.959.342a.958.958,0,0,1,.287,1.117,4.562,4.562,0,0,1-4.291,2.418c-1.817,0-4.125-1.042-4.125-3.761V5.054A1.684,1.684,0,0,0,5.769,3.189c-1.24.154-2.144,1.193-2.144,3.043v7.137A1.934,1.934,0,0,0,4.4,15.125l.976.542a.484.484,0,0,1,.268.494.9.9,0,0,1-.009.178L5.5,17.755c-.064.371-.316.432-.808.432H-3.421c-.492,0-.742-.061-.808-.432l-.14-1.415a1.31,1.31,0,0,1-.009-.178.483.483,0,0,1,.266-.494l.976-.542a1.927,1.927,0,0,0,.781-1.757V4.407c0-.75-.127-1.711-.785-2.038l-.625-.358a.483.483,0,0,1-.29-.514.944.944,0,0,1,.02-.186L-3.887.243c.064-.388.329-.448.842-.448H2.717a.765.765,0,0,1,.763.549Z" transform="translate(4.378 0.894)"/></g><g transform="translate(93.962 54.854)"><path class="c" d="M8.171,9.436a4,4,0,0,0,1.5,1.509l.974.542a.487.487,0,0,1,.268.494,1.072,1.072,0,0,1-.011.178l-.14,1.415c-.066.371-.314.432-.808.432h-4.9c-.836,0-.9-.243-1.277-.924l-4.1-7.475L-1.869,7.086v2.1a1.99,1.99,0,0,0,.9,1.757L0,11.487a.483.483,0,0,1,.27.494.783.783,0,0,1-.011.178L.119,13.574c-.062.371-.318.432-.807.432H-8.8c-.492,0-.746-.061-.807-.432l-.141-1.415a.889.889,0,0,1-.009-.178.48.48,0,0,1,.27-.494l.97-.542a1.926,1.926,0,0,0,.783-1.757V-6.855A1.914,1.914,0,0,0-8.515-8.61l-.97-.544a.482.482,0,0,1-.27-.494.9.9,0,0,1,.009-.178l.141-1.009c.061-.371.314-.432.807-.432h5.88A1.046,1.046,0,0,1-1.875-10.22V1.957L.738-.4c.371-.322.983-.854,1.224-1.093s.285-.59-.055-.731L.984-2.642A.443.443,0,0,1,.722-3.11a1.062,1.062,0,0,1,.017-.171l.132-1.3c.062-.349.3-.408.77-.408H8.676c.465,0,.707.059.766.408l.136,1.3a1.7,1.7,0,0,1,.015.171c.013.279-.314.413-.52.507a4.871,4.871,0,0,0-.954.406A9.36,9.36,0,0,0,6.565-1L3.851,1.6Z" transform="translate(9.756 11.267)"/></g><g transform="translate(104.911 37.785)"><path class="c" d="M.364,1.533.37,1.412h-.8A1.069,1.069,0,0,0,.7,2.618,1.175,1.175,0,0,0,1.976,1.34.944.944,0,0,0,1.314.321V.3A.99.99,0,0,0,1.843-.706,1.023,1.023,0,0,0,.75-1.831c-.79,0-1.038.573-1.012,1.27H.485V-.649c0-.191.037-.45.285-.45s.3.252.3.441c0,.48-.2.57-.661.57V.659c.485-.018.649.118.649.6,0,.254-.022.61-.371.61a.321.321,0,0,1-.32-.336" transform="translate(0.435 1.831)"/></g></g><g transform="translate(101.634 -6.206)"><path class="c" d="M1.427,0H-1.162V.823H.127L-1.37,4.8h.992Z" transform="translate(1.37)"/></g><g class="b" transform="translate(0 -43.815)"><g transform="translate(98.475 37.782)"><path class="c" d="M.788.937V.926A.9.9,0,0,0,1.38.013,1.068,1.068,0,0,0,.3-1.119,1.064,1.064,0,0,0-.777.013a.911.911,0,0,0,.584.91V.937A1.075,1.075,0,0,0-.941,2.078,1.216,1.216,0,0,0,.3,3.331,1.2,1.2,0,0,0,1.534,2.078,1.064,1.064,0,0,0,.788.937M.283-.452c.233,0,.265.3.265.459s0,.485-.265.485C.07.492.044.162.044,0S.081-.452.283-.452M.294,2.584c-.3,0-.356-.39-.356-.61S0,1.349.288,1.349c.276,0,.379.41.379.625s-.081.61-.373.61" transform="translate(0.941 1.119)"/></g></g><g transform="translate(95.978 -6.207)"><path class="c" d="M0,0V.823H.459V4.8h.915V0Z"/></g><g transform="translate(47.076 -6.206)"><path class="c" d="M1.071,0h-2.1V4.8H1.079V3.9H.007V2.822H.94v-.89H.007V.888H1.071Z" transform="translate(1.028)"/></g><g class="b" transform="translate(0 -43.815)"><g transform="translate(56.831 41.146)"><path class="c" d="M.25,0A.542.542,0,0,0-.3.538a.546.546,0,0,0,.549.548A.535.535,0,0,0,.783.538.531.531,0,0,0,.25,0" transform="translate(0.299)"/></g></g><g transform="translate(53.693 -6.206)"><path class="c" d="M1.366,0H-1.311V.888H-.5V4.8H.547V.888h.819Z" transform="translate(1.311)"/></g><g class="b" transform="translate(0 -43.815)"><g transform="translate(50.412 37.783)"><path class="c" d="M.944.472V-.362a1.842,1.842,0,0,0-.838-.2A1.181,1.181,0,0,0-1.127.7,1.412,1.412,0,0,0-.258,1.979c.261.18.557.3.557.628a.491.491,0,0,1-.548.47,1.205,1.205,0,0,1-.706-.232v.821a1.622,1.622,0,0,0,.807.219A1.273,1.273,0,0,0,1.216,2.536C1.216,1.369-.212,1.325-.212.618A.421.421,0,0,1,.257.193,1.151,1.151,0,0,1,.944.472" transform="translate(1.127 0.564)"/></g><g transform="translate(51.905 17.486)"><path class="c" d="M18.674,12.779a.979.979,0,0,1-.276.954,3.607,3.607,0,0,1-.312.244,3.557,3.557,0,0,1-.327.22.984.984,0,0,1-.994-.031s-.549-.34-1.442-.944C12.489,11.307,6.167,7.017,2.709,4.56-.748,7.017-7.072,11.307-9.9,13.222c-.893.6-1.444.944-1.444.944a.977.977,0,0,1-.99.031,3.754,3.754,0,0,1-.329-.22,3.961,3.961,0,0,1-.312-.244.983.983,0,0,1-.277-.954s.029-.112.083-.32a.912.912,0,0,0,.195.261c.158.136.312.243.312.243a3.755,3.755,0,0,0,.329.22.973.973,0,0,0,.99-.031s.551-.34,1.444-.944C-7.072,10.293-.748,6,2.709,3.544,6.167,6,12.489,10.293,15.323,12.208c.893.6,1.442.944,1.442.944a.98.98,0,0,0,.994.031,3.557,3.557,0,0,0,.327-.22,3.8,3.8,0,0,0,.312-.243.947.947,0,0,0,.195-.261c.055.208.081.32.081.32M-8.462-4.572C-11.866-7.1-17.9-11.788-20.6-13.89c-.851-.663-1.345-1.082-1.345-1.082a.914.914,0,0,1-.235-.287c-.015.046-.064.2-.1.366a.979.979,0,0,0,.336.935s.494.419,1.345,1.082c2.629,2.049,8.434,6.562,11.879,9.129.088-.287.176-.564.257-.825M27.6-15.257a.907.907,0,0,1-.235.285s-.494.419-1.345,1.082c-2.7,2.1-8.73,6.791-12.137,9.318.083.261.167.538.255.825,3.445-2.567,9.252-7.08,11.881-9.129.851-.663,1.345-1.08,1.345-1.08a.981.981,0,0,0,.336-.935,3.743,3.743,0,0,0-.1-.366" transform="translate(22.298 15.259)"/></g><g transform="translate(53.541 0.002)"><path class="c" d="M6.514,12.53,1.06,29.288a.072.072,0,0,0,.024.079.985.985,0,0,0,.086.066c.044.031.086.059.086.059a.069.069,0,0,0,.085,0L15.6,19.127l14.25,10.365a.072.072,0,0,0,.085,0s.046-.028.088-.059.085-.066.085-.066a.069.069,0,0,0,.024-.079l-5.454-16.76L38.938,2.178a.077.077,0,0,0,.028-.079s-.013-.051-.029-.1-.039-.1-.039-.1a.072.072,0,0,0-.066-.05l-17.625.007L15.766-14.909a.066.066,0,0,0-.064-.048s-.055-.006-.108-.006-.107.006-.107.006a.071.071,0,0,0-.066.048L9.981,1.855-7.642,1.847a.07.07,0,0,0-.068.05.983.983,0,0,0-.035.1c-.018.051-.031.1-.031.1a.078.078,0,0,0,.028.079Z" transform="translate(7.778 14.962)"/></g></g></g></svg>