<svg xmlns="http://www.w3.org/2000/svg" xmlns:xlink="http://www.w3.org/1999/xlink" width="214.163" height="84.272" viewBox="0 0 214.163 84.272"><defs><style>.a{fill:#333;}.b{clip-path:url(#a);}</style><clipPath id="a"><path class="a" d="M0,38.708H214.163V-45.564H0Z" transform="translate(0 45.564)"/></clipPath></defs><g transform="translate(0 45.564)"><g class="b" transform="translate(0 -45.564)"><g transform="translate(44.151 79.623)"><path class="a" d="M.861,0H-1.013V4.583H0V3.207H.763A1.636,1.636,0,0,0,2.614,1.6V1.581A1.568,1.568,0,0,0,.861,0m.732,1.616a.709.709,0,0,1-.8.694H0V.908H.775c.5,0,.817.242.817.694Z" transform="translate(1.013)"/></g></g><g transform="translate(49.644 34.026)"><path class="a" d="M.9,0-1.062,4.616H-.034l.42-1.028H2.324l.418,1.028H3.8L1.833,0Zm.453,1.213L1.962,2.7H.745Z" transform="translate(1.062)"/></g><g class="b" transform="translate(0 -45.564)"><g transform="translate(57.182 79.621)"><path class="a" d="M1.756.7V.687A1.443,1.443,0,0,0,1.362-.362,1.819,1.819,0,0,0,.027-.826H-2.067V3.759h1.008V2.292h.792L.715,3.759H1.893L.774,2.12A1.419,1.419,0,0,0,1.756.7M.735.753c0,.385-.283.647-.773.647H-1.059V.086h1c.49,0,.792.222.792.655Z" transform="translate(2.067 0.826)"/></g></g><g transform="translate(63.492 34.026)"><path class="a" d="M.9,0-1.063,4.616H-.035l.42-1.028H2.323l.42,1.028H3.8L1.832,0Zm.453,1.213L1.963,2.7H.746Z" transform="translate(1.063)"/></g><g class="b" transform="translate(0 -45.564)"><g transform="translate(71.032 79.621)"><path class="a" d="M1.756.7V.687A1.443,1.443,0,0,0,1.362-.362,1.819,1.819,0,0,0,.027-.826H-2.067V3.759h1.008V2.292h.792L.715,3.759H1.893L.774,2.12A1.419,1.419,0,0,0,1.756.7M.735.753c0,.385-.283.647-.773.647H-1.059V.086h1c.49,0,.792.222.792.655Z" transform="translate(2.067 0.826)"/></g></g><g transform="translate(81.667 34.059)"><path class="a" d="M1.606,0,.4,1.938-.8,0H-1.89V4.585H-.9V1.611L.376,3.549H.4L1.693,1.589v3h1V0Z" transform="translate(1.89)"/></g><g transform="translate(88.928 34.026)"><path class="a" d="M.9,0-1.063,4.616H-.035l.42-1.028H2.323l.42,1.028H3.8L1.832,0Zm.453,1.213L1.963,2.7H.746Z" transform="translate(1.063)"/></g><g transform="translate(90.939 32.54)"><path class="a" d="M0,.532H.76L1.6-.254.74-.626Z" transform="translate(0 0.626)"/></g><g class="b" transform="translate(0 -45.564)"><g transform="translate(96.152 79.556)"><path class="a" d="M1,.875C.206.672.011.574.011.272V.259c0-.222.2-.4.588-.4A2.138,2.138,0,0,1,1.791.313l.523-.76a2.644,2.644,0,0,0-1.7-.583A1.435,1.435,0,0,0-.993.352V.365c0,.91.6,1.165,1.52,1.4.766.2.923.327.923.584v.013c0,.268-.25.431-.662.431A2.1,2.1,0,0,1-.58,2.238l-.6.714A2.921,2.921,0,0,0,.77,3.686c.988,0,1.681-.512,1.681-1.422V2.251c0-.8-.522-1.132-1.452-1.376" transform="translate(1.176 1.03)"/></g></g><path class="a" d="M54.879.447h1.06V-.6h-1.06Z" transform="translate(46.621 38.197)"/><g class="b" transform="translate(0 -45.564)"><g transform="translate(108.12 79.556)"><path class="a" d="M1,.875C.206.672.011.574.011.272V.259c0-.222.2-.4.588-.4A2.138,2.138,0,0,1,1.791.313l.523-.76a2.648,2.648,0,0,0-1.7-.583A1.434,1.434,0,0,0-.993.352V.365c0,.91.6,1.165,1.52,1.4.766.2.923.327.923.584v.013c0,.268-.25.431-.662.431A2.1,2.1,0,0,1-.58,2.238l-.6.714A2.921,2.921,0,0,0,.77,3.686c.988,0,1.681-.512,1.681-1.422V2.251c0-.8-.522-1.132-1.452-1.376" transform="translate(1.176 1.03)"/></g></g><g transform="translate(114.596 34.059)"><path class="a" d="M0,0V4.583H3.488v-.9H1V2.723h2.16v-.9H1V.9H3.457V0Z"/></g><g transform="translate(120.953 34.059)"><path class="a" d="M1.414,0V2.821L-.734,0h-.93V4.583h1V1.67L1.552,4.583h.856V0Z" transform="translate(1.664)"/></g><g transform="translate(127.77 34.059)"><path class="a" d="M0,0V.928H1.395V4.583H2.4V.928H3.8V0Z"/></g><path class="a" d="M72.644,2.069h1.008V-2.514H72.644Z" transform="translate(61.713 36.572)"/><g class="b" transform="translate(0 -45.564)"><g transform="translate(138.48 79.621)"><path class="a" d="M1.756.7V.687A1.449,1.449,0,0,0,1.364-.362,1.827,1.827,0,0,0,.027-.826H-2.067V3.759h1.008V2.292h.792L.717,3.759H1.895L.776,2.12A1.42,1.42,0,0,0,1.756.7M.735.753c0,.385-.283.647-.773.647H-1.059V.086h1c.49,0,.792.222.792.655Z" transform="translate(2.067 0.826)"/></g></g><g transform="translate(149.116 34.059)"><path class="a" d="M1.606,0,.4,1.938-.8,0H-1.89V4.585H-.9V1.611L.376,3.549H.4L1.691,1.589v3h1V0Z" transform="translate(1.89)"/></g><g transform="translate(158.388 32.54)"><path class="a" d="M0,.532H.76L1.6-.254.742-.626Z" transform="translate(0 0.626)"/></g><g transform="translate(156.379 34.026)"><path class="a" d="M.9,0-1.062,4.616H-.034L.384,3.588h1.94l.416,1.028H3.795L1.831,0Zm.453,1.213L1.964,2.7H.745Z" transform="translate(1.062)"/></g><g class="b" transform="translate(0 -45.564)"><g transform="translate(163.6 79.556)"><path class="a" d="M1,.875C.206.672.011.574.011.272V.259c0-.222.2-.4.588-.4A2.138,2.138,0,0,1,1.791.313l.523-.76a2.644,2.644,0,0,0-1.7-.583A1.435,1.435,0,0,0-.993.352V.365c0,.91.6,1.165,1.52,1.4.766.2.923.327.923.584v.013c0,.268-.25.431-.662.431A2.1,2.1,0,0,1-.58,2.238l-.6.714A2.921,2.921,0,0,0,.77,3.686c.988,0,1.681-.512,1.681-1.422V2.251c0-.8-.522-1.132-1.452-1.376" transform="translate(1.176 1.03)"/></g></g><path class="a" d="M91.347.447h1.06V-.6h-1.06Z" transform="translate(77.602 38.197)"/><g transform="translate(86.355 -45.563)"><path class="a" d="M17.568,0,16.331,1.237V2.972H14.594L13.368,4.2,12.144,2.972H10.407V1.237L9.17,0H6.282L3.31,2.972H-3.816L-6.788,0H-9.675l-1.237,1.237V2.972h-1.739L-13.876,4.2-15.1,2.972h-1.737V1.237L-18.076,0h-2.6V2.606l1.162-1.162.64.638v.89h-1.8V5.014h1.8V9.2l-1.8,1.8V13.89l1.8-1.8v4.2h2.932l.629.627-.9.9-1.444,1.443,1.444,1.444.9.9-.629.629h-2.932v4.2l-1.8-1.8v2.889l1.8,1.8v4.187h-1.8v2.044h1.8v.888l-.638.638L-20.68,35.92v2.608h2.606l1.237-1.239V35.555H-15.1l1.226-1.224,1.223,1.224h1.739v1.733l1.237,1.239h2.889l2.97-2.972H3.312l2.97,2.972H9.17l1.237-1.239V35.555h1.739l1.224-1.224,1.224,1.224h1.739v1.733l1.235,1.239h2.606v-2.61l-1.162,1.163-.638-.638v-.888h1.8V33.512h-1.8V29.324l1.8-1.8V24.636l-1.8,1.8v-4.2H15.441l-.629-.629.9-.9,1.444-1.444L15.71,17.82l-.9-.9.629-.627h2.933v-4.2l1.8,1.8V11l-1.8-1.8V5.014h1.8V2.972h-1.8v-.89l.638-.638,1.162,1.162V0ZM7.725,1.444l.64.638v.89H6.2Zm-16.6.638.64-.638L-6.7,2.972H-8.871ZM14.812,5.641l.629-.627h.89V7.16Zm-4.406-.627H11.3l.625.627L10.407,7.16ZM1.193,7.981,4.159,5.014H8.365V9.2L4.757,12.81v-4.2H1.823ZM-1.774,5.014H1.268L-.254,6.534ZM-8.871,9.2V5.014h4.208L-1.7,7.981l-.631.633H-5.26v4.2Zm-3.56-3.56.627-.627h.891V7.16Zm-4.406-.627h.89l.627.627L-16.837,7.16Zm27.244,5.033L13.37,7.086l2.961,2.961v4.208H14.594l-1.226,1.224-1.224-1.224H10.407Zm-27.244,0,2.961-2.961,2.961,2.961v4.208h-1.737l-1.224,1.224L-15.1,14.254h-1.737Zm13.618,4.809v-4.2h1.737l1.23-1.23,1.228,1.23H2.711v4.2L-.254,17.82Zm7.973,7.971V15.7L8.363,12.09V16.3H11.3l.625.625-.9.9L9.586,19.263l1.443,1.444.9.9-.625.629H8.363v4.2ZM-12.431,21.6l.9-.9,1.446-1.444-1.446-1.443-.9-.9.627-.625h2.933V12.09l3.61,3.61v7.126l-3.61,3.608v-4.2H-11.8Zm13.624-2.34,1.518-1.52v3.041Zm-4.409,1.021V17.743l1.518,1.52-1.518,1.52Zm15.691-1.021.893-.9.9.9-.9.9Zm-27.245,0,.9-.9.9.9-.9.9Zm11.552,4.409,2.965-2.965,2.965,2.965v4.2H.976L-.254,29.1l-1.23-1.228H-3.219Zm13.625,4.805v-4.2h1.739l1.224-1.226,1.224,1.226h1.737v4.2L13.37,31.44Zm-27.244,0v-4.2H-15.1l1.224-1.226,1.224,1.226h1.739v4.2l-2.963,2.963ZM1.191,30.545l.633-.631H4.755v-4.2l3.608,3.61v4.189H4.157ZM-8.871,29.324l3.61-3.61v4.2h2.932l.631.631-2.965,2.968H-8.871Zm23.685,3.56,1.517-1.517v2.145h-.89Zm-4.407-1.517,1.518,1.517-.627.629h-.891Zm-22.838,1.517,1.518-1.517v2.145H-11.8Zm-4.406-1.517,1.517,1.517-.627.629h-.89Zm16.583.621,1.522,1.524H-1.774ZM6.2,35.555H8.363v.888l-.638.638Zm-15.07.888v-.888H-6.7l-1.526,1.526Zm20.794-3.558h0Z" transform="translate(20.68)"/></g><g transform="translate(127.597 6.584)"><path class="a" d="M3.327,1.892H-.407V-2.227H-3.916V18.2H-.407V4.947H3.327V18.2H6.833V-2.227H3.327Z" transform="translate(3.916 2.227)"/></g><g transform="translate(118.429 6.584)"><path class="a" d="M1.612,0H-1.9V20.428h6.54V17.371H1.612Z" transform="translate(1.897)"/></g><g transform="translate(154.614 6.583)"><path class="a" d="M3.49,5H3.434L1.294-5.887h-5.4V14.541h3.5V-.716h.057l2.493,12.2H4.975l2.5-12.2h.057V14.541h3.509V-5.887H5.63Z" transform="translate(4.108 5.887)"/></g><g transform="translate(104.354 6.584)"><path class="a" d="M1.776,7.979H5.928L6.4,11.034H9.793L6.029-9.392H1.674L-2.09,11.034h3.4Zm2.047-11.9h.055L5.458,4.923H2.245Z" transform="translate(2.09 9.392)"/></g><g transform="translate(140.539 6.584)"><path class="a" d="M1.776,7.979H5.928L6.4,11.034H9.793L6.029-9.392H1.674L-2.09,11.034h3.4Zm2.049-11.9H3.88L5.458,4.923H2.247Z" transform="translate(2.09 9.392)"/></g><g transform="translate(202.279 6.583)"><path class="a" d="M1.729,0-2.035,20.428h3.4l.47-3.057h4.15l.472,3.057H9.846L6.084,0ZM3.88,5.475h.054l1.579,8.841H2.3Z" transform="translate(2.035)"/></g><g class="b" transform="translate(0 -45.564)"><g transform="translate(188.547 52.147)"><path class="a" d="M5.3,2.183A6.866,6.866,0,0,0,5.031.038c-.538-1.862-2-2.608-5.3-2.608H-6.24V17.858h3.509V7.536H-.061L1.476,17.858h3.57L3.355,6.637a3.164,3.164,0,0,0,.8-.536C4.976,5.413,5.3,4.4,5.3,2.635V2.183Zm-5.845,2.3H-2.731V.487H-.543c1.942,0,2.621.583,2.621,2s-.679,2-2.621,2" transform="translate(6.24 2.57)"/></g><g transform="translate(173.276 52.147)"><path class="a" d="M4.738,3.935l.085-.076c.816-.688,1.141-1.7,1.141-3.46V-.062a5.326,5.326,0,0,0-.668-2.9C4.627-4.11,2.981-4.554,1.159-4.632H-5.577V15.8h6.6c5.138,0,5.626-1.968,5.626-6.6,0-2.251-.105-4.448-1.909-5.264M-2.081-1.577H.232c2.034,0,2.46.44,2.506,1.9,0,1.128-.244,2.094-2.523,2.094h-2.3ZM3.127,10.586A1.911,1.911,0,0,1,2.234,12.4a5.315,5.315,0,0,1-2.443.337H-2.05V5.472H-.21a5.339,5.339,0,0,1,2.443.337,1.909,1.909,0,0,1,.893,1.816Z" transform="translate(5.577 4.632)"/></g></g><g transform="translate(74.803 6.584)"><path class="a" d="M1.776,7.979H5.928l.47,3.055h3.4L6.029-9.392H1.674L-2.09,11.034h3.4Zm2.047-11.9H3.88L5.458,4.923H2.247Z" transform="translate(2.09 9.392)"/></g><g transform="translate(12.56 6.584)"><path class="a" d="M4.315,7.979H-1.569V.712H2.959V-2.345H-1.569V-6.337H4.315V-9.392H-5.079l0,20.426H4.315Z" transform="translate(5.079 9.392)"/></g><g transform="translate(51.975 6.584)"><path class="a" d="M4.5,7.979H-1.783V.712H2.744V-2.345H-1.783V-6.337H4.1V-9.392H-5.292V11.034H4.5Z" transform="translate(5.292 9.392)"/></g><g class="b" transform="translate(0 -45.564)"><g transform="translate(-0.001 51.831)"><path class="a" d="M2.47,9.674c3.335,0,4.833-2.153,4.994-4.84h-3.5c-.068,1.128-.327,1.905-1.5,1.905C1.047,6.738.6,5.882.6,4.354V-6.068c0-1.528.47-2.366,1.885-2.366.771,0,1.367.793,1.454,1.868H7.456c-.274-2.691-1.787-4.822-4.986-4.822-3.679,0-5.377,2.349-5.377,5.236V4.439c0,2.885,1.7,5.234,5.377,5.234" transform="translate(2.907 11.387)"/></g></g><g transform="translate(62.83 6.584)"><path class="a" d="M5.158,0H-5.349V3.055H.385L-6.072,20.428H4.437V17.371h-5.7Z" transform="translate(6.072)"/></g><g transform="translate(37.9 6.583)"><path class="a" d="M2.716,6.868h.055L5.29-8.084h3.4L4.922,12.344H.565L-3.2-8.084H.2Z" transform="translate(3.197 8.084)"/></g><g class="b" transform="translate(0 -45.564)"><g transform="translate(24.583 52.147)"><path class="a" d="M5.3,2.183A6.866,6.866,0,0,0,5.031.038c-.538-1.862-2-2.608-5.3-2.608H-6.24V17.858h3.509V7.536H-.061L1.476,17.858h3.57L3.355,6.637a3.2,3.2,0,0,0,.8-.536C4.974,5.413,5.3,4.4,5.3,2.635Zm-5.845,2.3H-2.731V.487H-.543c1.942,0,2.621.583,2.621,2s-.679,2-2.621,2" transform="translate(6.24 2.57)"/></g><g transform="translate(87.754 51.831)"><path class="a" d="M3.291.26C1.116-.655-1.383-.6-2.921,1.448a5.222,5.222,0,0,0-.326,5.323c.6,1.481,3,5.6,3.588,6.668.623,1.139,1.326,3.079-.263,3.917a3.106,3.106,0,0,1-2.837-.1l-1.115,3.113a6.658,6.658,0,0,0,6.283-.9,5,5,0,0,0,1.809-4.624,10.308,10.308,0,0,0-.829-2.839c-.514-1.1-2.835-5.234-3.51-6.6-.6-1.219-.359-1.857-.006-2.227a2.4,2.4,0,0,1,2.262-.117Z" transform="translate(3.874 0.307)"/></g></g></g></svg>