<svg xmlns="http://www.w3.org/2000/svg" xmlns:xlink="http://www.w3.org/1999/xlink" width="175.918" height="31.855" viewBox="0 0 175.918 31.855"><defs><style>.a{fill:none;}.b{fill:#2b2e34;}.c{clip-path:url(#a);}</style><clipPath id="a"><path class="a" d="M0,16.61H175.918V-15.245H0Z" transform="translate(0 15.245)"/></clipPath></defs><g transform="translate(0 15.245)"><g transform="translate(0 -11.273)"><path class="b" d="M0,0V25.693H23.363V21.955H4.2V0Z"/></g><g transform="translate(16.821 -10.807)"><path class="b" d="M1.705,4.628,6.377-4.248H1.939l-3.5,8.876Z" transform="translate(1.565 4.248)"/></g><g class="c" transform="translate(0 -15.245)"><g transform="translate(26.083 0.343)"><path class="b" d="M16.792,4.091a16.674,16.674,0,0,0-6.333-5.753,18.658,18.658,0,0,0-8.6-2.094,18.658,18.658,0,0,0-8.6,2.094A16.674,16.674,0,0,0-13.08,4.091,14.819,14.819,0,0,0-15.412,12a14.821,14.821,0,0,0,2.332,7.911,16.708,16.708,0,0,0,6.333,5.753,18.72,18.72,0,0,0,17.205,0,16.708,16.708,0,0,0,6.333-5.753A14.823,14.823,0,0,0,19.126,12a14.822,14.822,0,0,0-2.334-7.909m-3.636,14.2a12.732,12.732,0,0,1-4.735,4.522,13.432,13.432,0,0,1-12.9,0,12.738,12.738,0,0,1-4.737-4.522,11.909,11.909,0,0,1,0-12.391A12.738,12.738,0,0,1-4.482,1.379a13.432,13.432,0,0,1,12.9,0A12.732,12.732,0,0,1,13.156,5.9a11.909,11.909,0,0,1,0,12.391" transform="translate(15.412 3.755)"/></g><g transform="translate(64.947 3.971)"><path class="b" d="M13.037,5.778A7.049,7.049,0,0,1,9.712,9a5.352,5.352,0,0,1-2.754.759L15.135,20.39H10.462L2.555,10.114H-7.761V20.39h-4.2V-5.3H4.856A10.052,10.052,0,0,1,9.8-4.112a7.265,7.265,0,0,1,3.456,4,8.648,8.648,0,0,1-.221,5.895M8.333,5.6A4.07,4.07,0,0,0,9.7,2.4,4.483,4.483,0,0,0,8.157-.767a4.551,4.551,0,0,0-3.067-.8H-7.761v7.94H5.09A4.864,4.864,0,0,0,8.333,5.6" transform="translate(11.965 5.303)"/></g></g><g transform="translate(95.785 -11.274)"><path class="b" d="M9.623,5.725v3.5H-4.628V16.7H14.529v3.736H-8.832V-5.254H14.529v3.738H-4.628v7.24Z" transform="translate(8.832 5.254)"/></g><g transform="translate(105.597 -15.243)"><path class="b" d="M1.34,0-1.23,3.268,7.649,0Z" transform="translate(1.23)"/></g><g transform="translate(119.848 -11.273)"><path class="b" d="M3.929,9.987.6,16.527h-4.2L9.477-9.166h4.2L26.764,16.527h-4.2l-3.331-6.54Zm7.65-15.024L5.594,6.717H17.563Z" transform="translate(3.606 9.166)"/></g><g transform="translate(152.321 -11.273)"><path class="b" d="M0,0V25.693H23.361V21.955H4.2V0Z"/></g><g class="c" transform="translate(0 -15.245)"><g transform="translate(170.619 5.457)"><path class="b" d="M1.691,1.914,1.655,1.3A1.2,1.2,0,0,0,1.614.946,1.153,1.153,0,0,0,1.4.587.406.406,0,0,0,1.146.443.822.822,0,0,0,1.58.088a1.218,1.218,0,0,0,.173-.656,1.357,1.357,0,0,0-.211-.715A1.33,1.33,0,0,0,.31-1.753H-1.552V2.539h.721V.775H.249a.74.74,0,0,1,.51.138c.261.307.146.713.192,1.055a1.318,1.318,0,0,0,.109.57h.811V2.407c-.148-.061-.161-.276-.18-.493M.8.023A1.053,1.053,0,0,1,.182.165H-.835V-1.143c.443.006.892-.019,1.333.017a.6.6,0,0,1,.476.341A.689.689,0,0,1,.8.023" transform="translate(1.552 1.757)"/></g><g transform="translate(168.673 3.97)"><path class="b" d="M3.525.945A3.633,3.633,0,0,0,.388-.867,3.633,3.633,0,0,0-2.75.945a3.624,3.624,0,0,0,0,3.621A3.626,3.626,0,0,0,.388,6.375a3.626,3.626,0,0,0,3.136-1.81,3.624,3.624,0,0,0,0-3.621M3.09,4.33A3.107,3.107,0,0,1,1.964,5.454a3.079,3.079,0,0,1-4.62-2.66,3.072,3.072,0,0,1,.414-1.536A3.081,3.081,0,0,1-1.116.132,3.113,3.113,0,0,1,.424-.28a3.113,3.113,0,0,1,1.54.412A3.112,3.112,0,0,1,3.09,1.258,3.07,3.07,0,0,1,3.5,2.794,3.075,3.075,0,0,1,3.09,4.33" transform="translate(3.235 0.867)"/></g></g></g></svg>