<svg xmlns="http://www.w3.org/2000/svg" xmlns:xlink="http://www.w3.org/1999/xlink" width="249.319" height="109.356" viewBox="0 0 249.319 109.356"><defs><style>.a{fill:#333;}.b{clip-path:url(#a);}.c{clip-path:url(#b);}.d{clip-path:url(#d);}.e{clip-path:url(#f);}.f{clip-path:url(#h);}.g{clip-path:url(#j);}.h{clip-path:url(#l);}.i{clip-path:url(#n);}.j{clip-path:url(#p);}.k{clip-path:url(#r);}.l{clip-path:url(#t);}.m{clip-path:url(#v);}.n{clip-path:url(#x);}.o{clip-path:url(#z);}.p{clip-path:url(#ab);}.q{clip-path:url(#ad);}.r{clip-path:url(#ag);}.s{clip-path:url(#ai);}.t{clip-path:url(#ak);}.u{clip-path:url(#am);}.v{clip-path:url(#ao);}.w{clip-path:url(#aq);}.x{clip-path:url(#as);}.y{clip-path:url(#au);}.z{clip-path:url(#aw);}.aa{clip-path:url(#ay);}.ab{clip-path:url(#ba);}.ac{clip-path:url(#bc);}.ad{clip-path:url(#be);}</style><clipPath id="a"><path class="a" d="M0,53.112H249.319V-56.244H0Z" transform="translate(0 56.244)"/></clipPath><clipPath id="b"><path class="a" d="M72.387-48.06a2.138,2.138,0,0,0-.988-.087h0c-.268.052-.156.509-.056.817h0a9.835,9.835,0,0,0,.628,1.233h0c.091.156-.025.5-.025.5h0a6.8,6.8,0,0,0-1.114-.807h0c-.459-.229-.727-.167-.793-.093h0c-.227.28.023,1.159.023,1.159h0a1.181,1.181,0,0,0,.119,1.456h0c-.148.426.033,1.266.222,1.277h0a1.7,1.7,0,0,0,1.114-.55h0c.313-.259.474-.632.681-.671h0a1.11,1.11,0,0,1,.556.128h0a2.78,2.78,0,0,1-.7,1.822h0a2.079,2.079,0,0,1-1.347.5h0a1.486,1.486,0,0,1-1.633-.972h0a1.143,1.143,0,0,0,.441-1.227h0a1.042,1.042,0,0,0-1-.922h0a.923.923,0,0,0-.7,1.1h0a1.312,1.312,0,0,0,.789,1.134h0a1.208,1.208,0,0,1-.457.8h0a1.516,1.516,0,0,1-1.174.373h0c-1.03-.016-1.867-1.592-1.867-1.592h0s.2-.241.369-.257h0c.175-.01.432.276.735.447h0c.418.231.89.288.982.161h0c.152-.214.008-.824-.189-1.134h0a1.017,1.017,0,0,0-.395-1.322h0c.039-.509-.2-1.1-.344-1.128h0a.839.839,0,0,0-.63.362h0a4.2,4.2,0,0,0-.5.939h0a1.045,1.045,0,0,1-.187-.449h0a7.418,7.418,0,0,0,.216-1.242h0c-.037-.307-.111-.743-.334-.717h0a1.689,1.689,0,0,0-.745.313h0a1.012,1.012,0,0,0-.558-.01h0l-.047.016a.936.936,0,0,0-.422.348h0a1.837,1.837,0,0,0-.778.212h0c-.189.121.039.5.206.758h0a8.064,8.064,0,0,0,.877.813h0a.962.962,0,0,1,.117.469h0a5.651,5.651,0,0,0-.988-.276h0c-.414-.058-.682.064-.694.117h0c-.07.369.445.925.445.925h0c-.14.82.206,1.1.632,1.192h0c.031.426.313.97.472.97h0c.235,0,.42-.367.525-.6h0c.14-.315.183-.684.334-.772h0a.733.733,0,0,1,.451,0h0s.521,1.989-.544,2.364h0a1.446,1.446,0,0,1-1.746-.478h0s.3-.4-.084-1.165h0c-.235-.465-.737-.725-1.05-.556h0c-.249.136-.422.552-.148,1.174h0c.338.789.937.706.937.706h0a1.4,1.4,0,0,1-.233.85h0a1.1,1.1,0,0,1-1.077.533h0a1.73,1.73,0,0,1-1.336-.869h0c-.008-.138.179-.247.673-.241h0a.9.9,0,0,1,.766.537h0c.033.082.1.068.136,0h0a1.127,1.127,0,0,0,0-.927h0a2.345,2.345,0,0,0-.507-.554h0a1.342,1.342,0,0,0-.29-1.065h0a.969.969,0,0,0-.7-.266h0a1.909,1.909,0,0,0-.278-.6h0a.733.733,0,0,0-.611-.367h0c-.072,0-.124.054-.045.122h0c.266.216.134.789.01.984h0l-.334.379s-.513-.546-.877-.91h0a1.33,1.33,0,0,0-1.095-.531h0a.832.832,0,0,0-.8.494h0a1.245,1.245,0,0,1,1,.268h0c.321.227,1.11,1,1.11,1h0c-.078,1.087.284,1.88,1.336,1.983h0l.688.912H86.476l.68-.91c1.054-.1,1.415-.9,1.34-1.985h0s.787-.77,1.106-1h0a1.269,1.269,0,0,1,1-.268h0a.829.829,0,0,0-.8-.494h0a1.335,1.335,0,0,0-1.095.531h0c-.364.364-.877.91-.877.91h0l-.332-.379c-.122-.194-.257-.768.01-.984h0c.078-.068.029-.121-.041-.121h0a.734.734,0,0,0-.618.366h0a1.877,1.877,0,0,0-.276.6h0a.958.958,0,0,0-.7.268h0a1.333,1.333,0,0,0-.286,1.062h0a2.226,2.226,0,0,0-.507.554h0a1.136,1.136,0,0,0,0,.927h0c.031.068.1.082.132,0h0a.906.906,0,0,1,.768-.537h0c.494-.006.679.1.669.241h0a1.718,1.718,0,0,1-1.334.869h0a1.089,1.089,0,0,1-1.071-.529h0a1.348,1.348,0,0,1-.239-.852h0s.6.084.939-.708h0c.268-.622.1-1.038-.148-1.174h0c-.313-.169-.815.091-1.05.556h0c-.391.768-.086,1.165-.086,1.165h0a1.448,1.448,0,0,1-1.746.48h0c-1.067-.377-.544-2.366-.544-2.366h0a.755.755,0,0,1,.453,0h0c.15.087.194.459.334.774h0c.1.227.294.595.527.595h0c.156,0,.437-.544.471-.97h0c.426-.087.774-.371.632-1.188h0s.515-.56.445-.929h0c-.008-.053-.288-.175-.694-.117h0a5.785,5.785,0,0,0-.994.276h0a.961.961,0,0,1,.121-.469h0a7.72,7.72,0,0,0,.877-.813h0c.171-.257.393-.638.208-.758h0a1.853,1.853,0,0,0-.776-.212h0a.955.955,0,0,0-.43-.348h0l-.043-.016a1.007,1.007,0,0,0-.556.01h0a1.7,1.7,0,0,0-.749-.313h0c-.218-.025-.3.41-.329.717h0a7.07,7.07,0,0,0,.212,1.242h0a1.021,1.021,0,0,1-.187.449h0a4.03,4.03,0,0,0-.5-.939h0a.836.836,0,0,0-.63-.362h0c-.144.031-.381.618-.342,1.128h0a1.026,1.026,0,0,0-.4,1.324h0c-.2.307-.338.918-.183,1.132h0c.093.126.558.07.978-.161h0c.3-.171.56-.457.735-.447h0c.173.016.371.257.371.257h0s-.838,1.577-1.865,1.592h0a1.511,1.511,0,0,1-1.174-.373h0a1.229,1.229,0,0,1-.465-.8h0a1.305,1.305,0,0,0,.789-1.134h0a.919.919,0,0,0-.69-1.1h0a1.031,1.031,0,0,0-1,.922h0a1.135,1.135,0,0,0,.434,1.227h0a1.484,1.484,0,0,1-1.629.972h0a2.055,2.055,0,0,1-1.345-.5h0c-.671-.5-.708-1.822-.708-1.822h0a1.11,1.11,0,0,1,.556-.128h0c.208.039.369.412.682.671h0a1.725,1.725,0,0,0,1.116.552h0c.187-.014.367-.852.222-1.279h0a1.178,1.178,0,0,0,.115-1.456h0s.249-.879.023-1.159h0c-.058-.074-.332-.136-.791.093h0a6.842,6.842,0,0,0-1.112.807h0s-.117-.342-.027-.5h0a10.693,10.693,0,0,0,.628-1.233h0c.1-.307.212-.764-.058-.815h0a2.106,2.106,0,0,0-.982.086h0a1.156,1.156,0,0,0-.634-.251h0a1.11,1.11,0,0,0-.626.251m.239,2.283a3.854,3.854,0,0,1,.387-1.3h0a3.8,3.8,0,0,1,.393,1.3h0c.033.49-.012.486-.012.486h0a1.033,1.033,0,0,1,.4.031h0a1,1,0,0,1,.64.412h0a4.148,4.148,0,0,0-.609.019h0a2.665,2.665,0,0,0-.437.109h0s-.152.791-.375.789h0c-.218,0-.373-.789-.373-.789h0a2.082,2.082,0,0,0-.437-.109h0a5.207,5.207,0,0,0-.6-.019h0a1.1,1.1,0,0,1,.628-.412h0a1.281,1.281,0,0,1,.41-.035h0s-.047-.016-.01-.482m-8.868,2.016A1.034,1.034,0,0,1,64.1-43.9h0s-.074-.054-.194-.517h0a3.95,3.95,0,0,1-.06-1.326h0a3.991,3.991,0,0,1,.745,1.106h0c.181.445.157.541.157.541h0a1.091,1.091,0,0,1,.354-.086h0a1.019,1.019,0,0,1,.665.191h0a2.616,2.616,0,0,0-.507.187h0a3.073,3.073,0,0,0-.336.224h0s.045.768-.107.77h0c-.132.087-.554-.562-.554-.562h0a2.167,2.167,0,0,0-.4.019h0a4.046,4.046,0,0,0-.515.142h0a1.127,1.127,0,0,1,.414-.55m17.685-.867a3.971,3.971,0,0,1,.743-1.106h0a3.947,3.947,0,0,1-.064,1.326h0a1.457,1.457,0,0,1-.181.515h0a1.061,1.061,0,0,1,.336.14h0a.946.946,0,0,1,.414.55h0a4.139,4.139,0,0,0-.523-.142h0a1.615,1.615,0,0,0-.4-.019h0s-.416.649-.548.562h0c-.152,0-.1-.772-.1-.772h0a2.528,2.528,0,0,0-.342-.222h0a2.787,2.787,0,0,0-.5-.189h0a1.043,1.043,0,0,1,.661-.212h0a.748.748,0,0,1,.356.084h0s-.021-.07.161-.515M87.576-41.2c.313-.36.546-.611.546-.611h0a2.808,2.808,0,0,1-.371,1.345h0a1.216,1.216,0,0,1-.842.416h0c-.093-.051.177-.574.177-.574h0s-.1-.15-.161-.229h0a3.253,3.253,0,0,0-.274-.253h0a1.25,1.25,0,0,1,.445-.066h0a.465.465,0,0,1,.319.163h0a2.45,2.45,0,0,1,.161-.192m-29.3.735a2.817,2.817,0,0,1-.373-1.345h0s.237.251.546.609h0a2.268,2.268,0,0,0,.187.21h0a.652.652,0,0,1,.342-.179h0a.766.766,0,0,1,.395.066h0a3.531,3.531,0,0,0-.272.251h0c-.064.082-.157.231-.157.231h0s.27.523.173.568h0s-.014.006-.031.006h0a1.347,1.347,0,0,1-.809-.416M72.636-45.3h0" transform="translate(-55.431 48.311)"/></clipPath><clipPath id="d"><path class="a" d="M24.124-13.071c0,2.747,2.014,4.812,5.135,4.812h0a5.513,5.513,0,0,0,3.77-1.309h0c.1-.078.14-.1.179-.1h0a.3.3,0,0,1,.235.144h0l.208-.157L32.492-11.3l-.212.138a.244.244,0,0,1,.06.165h0a.522.522,0,0,1-.1.29h0A3.873,3.873,0,0,1,29.407-9.42h0c-2.148,0-3.842-1.275-3.842-3.478h0a3.284,3.284,0,0,1,3.546-3.383h0a4.246,4.246,0,0,1,3.08,1.112h0a.222.222,0,0,1,.037.132h0a.267.267,0,0,1-.049.148h0l.208.124.966-1.76-.214-.124a.254.254,0,0,1-.226.122h0a.336.336,0,0,1-.138-.035h0c-.229-.084-.527-.243-1.025-.418h0a7.582,7.582,0,0,0-2.557-.459h0c-3.115,0-5.071,2.065-5.071,4.367" transform="translate(-24.124 17.438)"/></clipPath><clipPath id="f"><path class="a" d="M40.928-17.385v.2c.309,0,.3.169.3.408h0v3.208H35.45v-3.208c0-.239-.014-.408.3-.408h0v-.2H33.79v.2c.307,0,.294.169.294.408h0v7.748c0,.235.014.41-.294.41h0v.2h1.958v-.2c-.311,0-.3-.175-.3-.41h0v-3.414h5.775v3.414c0,.235.012.41-.3.41h0v.2h1.958v-.2c-.309,0-.294-.175-.294-.41h0v-7.748c0-.239-.016-.408.294-.408h0v-.2Z" transform="translate(-33.79 17.385)"/></clipPath><clipPath id="h"><path class="a" d="M46.978-17.385s-.29.681-.459,1.071h0l-3.07,6.895c-.342.751-.34.8-.614.8h0l0,.2h1.894l0-.2c-.13,0-.227-.07-.227-.189h0a3.044,3.044,0,0,1,.239-.634h0l.579-1.363h4.614l.593,1.363c.173.412.206.48.2.581h0c0,.154-.107.241-.292.241h0l0,.2h2.113l0-.2c-.226,0-.28-.054-.644-.855h0L48.9-16.261c-.171-.393-.488-1.124-.488-1.124H46.978Zm.642,1.431,1.771,4.031H45.851Z" transform="translate(-42.831 17.385)"/></clipPath><clipPath id="j"><path class="a" d="M74.638-17.385s-.29.681-.459,1.071h0l-3.07,6.895c-.34.751-.336.8-.61.8h0l-.006.2h1.894l0-.2c-.126,0-.229-.07-.229-.189h0a2.957,2.957,0,0,1,.241-.634h0l.579-1.363h4.612l.593,1.363c.175.412.206.48.2.581h0c0,.154-.1.241-.282.241h0l-.006.2h2.117l.006-.2c-.255,0-.288-.054-.651-.855h0l-3.01-6.791c-.171-.393-.484-1.124-.484-1.124H74.638Zm.644,1.431,1.769,4.031H73.516Z" transform="translate(-70.493 17.385)"/></clipPath><clipPath id="l"><path class="a" d="M60.28-17.392,57.212-11.3l-2.946-6.088H52.242v.22c.3,0,.327.189.327.395h0v7.76c0,.235-.014.41-.329.41h0v.2h1.773v-.2c-.276,0-.3-.157-.3-.41h0V-15.8l.016,0,3.469,7.229L60.7-15.8l.019,0v6.784c0,.235-.01.41-.358.41h0v.2h2.084v-.2c-.35,0-.354-.175-.354-.41h0v-7.76c0-.128.043-.395.315-.395h0v-.22Z" transform="translate(-52.24 17.392)"/></clipPath><clipPath id="n"><path class="a" d="M62.551-17.385v.2c.313,0,.3.169.3.408h0v7.748c0,.235.016.41-.3.41h0v.2h1.964v-.2c-.309,0-.3-.175-.3-.41h0V-12.3h3.434a5.445,5.445,0,0,0,1.783-.257h0A2.488,2.488,0,0,0,71-14.982h0a2.2,2.2,0,0,0-1.839-2.273h0a7.151,7.151,0,0,0-1.561-.13H62.551Zm1.668,1.13h3.634c1.431,0,1.728.579,1.728,1.324h0c0,.768-.327,1.47-1.728,1.47H64.219Z" transform="translate(-62.551 17.385)"/></clipPath><clipPath id="p"><path class="a" d="M79.359-12.836c0,2.7,2.246,4.577,5.044,4.577h0a6.33,6.33,0,0,0,4.3-1.637h0s0-.441,0-.838h0v-1.482c0-.377,0-.651,0-.651H85.559c-.286,0-.568.051-.568-.325h0l-.194.006v1.762l.206,0c0-.282.2-.313.556-.313h1.878v1.3A4.557,4.557,0,0,1,84.187-9.42h0a3.346,3.346,0,0,1-3.436-3.447h0a3.225,3.225,0,0,1,3.519-3.414h0c1.826,0,3.212.96,3.212,1.349h0a.074.074,0,0,1-.033.076h0l.2.138,1.011-1.53-.2-.138a.2.2,0,0,1-.2.1h0c-.391,0-1.219-1.157-4.027-1.157h0a4.624,4.624,0,0,0-4.878,4.6" transform="translate(-79.359 17.438)"/></clipPath><clipPath id="r"><path class="a" d="M96.47-17.385v.2c.305,0,.292.169.292.408h0v6.109h-.033l-5.121-6.109c-.06-.068-.525-.612-.525-.612H89.107v.2c.309,0,.321.169.321.408h0v7.748c0,.235-.037.41-.321.41h0v.2h1.814v-.2c-.313,0-.323-.175-.323-.41h0v-6.965l5.8,6.91c.053.074.527.669.527.669h1.005s0-.379,0-.614h0v-7.748c0-.239-.014-.408.3-.408h0v-.2Z" transform="translate(-89.107 17.385)"/></clipPath><clipPath id="t"><path class="a" d="M105.543-17.378H98.759v.2c.307,0,.346.169.346.408h0v7.748c0,.235-.039.41-.346.41h0v.2h7.256c.408,0,.768,0,.768,0h0V-9.916h-.2c0,.428-.212.385-.669.385h-5.45v-2.9h3.346c.461,0,.636.056.636.4h.194v-1.9h-.194c0,.358-.28.379-.665.379h-3.317v-2.7h5.09c.49,0,.64.089.64.381h.194v-1.519s-.3.014-.85.014" transform="translate(-98.759 17.392)"/></clipPath><clipPath id="v"><path class="a" d="M67.209-4.9,66.172-1.712s-4.067,0-5.189,0h0l4.194,3.056h0s-1.254,3.863-1.594,4.929h0c.9-.657,4.2-3.047,4.2-3.047h0s3.294,2.39,4.2,3.047h0c-.348-1.065-1.6-4.929-1.6-4.929h0s3.292-2.4,4.2-3.056h0c-1.118,0-5.189,0-5.189,0h0L67.778-6.647h0c-.235.716-.57,1.75-.57,1.75" transform="translate(-60.983 6.647)"/></clipPath><clipPath id="x"><path class="a" d="M39.072-40.284c0,1,.587,2.5,2.874,2.5h0c2.29,0,2.881-1.5,2.881-2.5h0c0-1.322-.754-2.57-2.881-2.57h0c-2.121,0-2.874,1.248-2.874,2.57m.941-.052c0-1.163.828-1.709,1.933-1.709h0c1.1,0,1.937.546,1.937,1.709h0c0,1.367-1.03,1.74-1.937,1.74h0c-.9,0-1.933-.373-1.933-1.74" transform="translate(-39.072 42.854)"/></clipPath><clipPath id="z"><path class="a" d="M47.433-42.793v4.832H49.8c1.594,0,2.71-.8,2.71-2.446h0c0-1.742-1.221-2.386-2.749-2.386H47.433Zm.945.811h.959c1.579,0,2.232.406,2.232,1.589h0c0,1.13-.628,1.622-2.232,1.622h-.959Z" transform="translate(-47.433 42.793)"/></clipPath><clipPath id="ab"><path class="a" d="M85.653-42.854a1.865,1.865,0,0,1-1.287.69h0v.544h.957v3.714h.8v-4.948Z" transform="translate(-84.366 42.854)"/></clipPath><clipPath id="ad"><path class="a" d="M92.9-41.485h.8c0-.146.229-.612,1.2-.612h0c.626,0,1.085.165,1.085.638h0c0,.506-.439.638-1.13.638h-.679v.756h.869c.817,0,1.058.354,1.05.659h0c-.014.626-.57.863-1.274.863h0c-.764,0-1.11-.41-1.178-.776h-.855c.029.5.336,1.534,2.112,1.534h0c1.353,0,2.047-.692,2.047-1.522h0a1.2,1.2,0,0,0-.776-1.167h0a1.046,1.046,0,0,0,.655-1.011h0c0-.832-.686-1.369-1.94-1.369h0c-1.752,0-1.993,1.034-1.993,1.369" transform="translate(-92.795 42.854)"/></clipPath><clipPath id="ag"><path class="a" d="M57.847-40.486a.517.517,0,0,0-.521.519h0a.517.517,0,0,0,.521.517h26.74l.01,0a.518.518,0,0,0,.519-.519h0a.517.517,0,0,0-.519-.519H57.847Z" transform="translate(-57.326 40.486)"/></clipPath><clipPath id="ai"><path class="a" d="M57.847-43.137a.518.518,0,0,0-.521.519h0a.519.519,0,0,0,.521.521H84.6a.518.518,0,0,0,.519-.519h0a.517.517,0,0,0-.519-.519h-.01l-26.73,0Z" transform="translate(-57.326 43.137)"/></clipPath><clipPath id="ak"><path class="a" d="M69.344-46.253a3.305,3.305,0,0,1,.8.016h0a5.955,5.955,0,0,0-.008-3.581h0a4.651,4.651,0,0,0,1.612.245h0l.356.006h0c1.007.017,2.563-.051,3.364,1.134h0a2.991,2.991,0,0,1-.012,2.823h0a3.106,3.106,0,0,0-.315,1.4h0a1.375,1.375,0,0,1,.659.472h0a3.452,3.452,0,0,1,.412-1.748h0a3.442,3.442,0,0,0-.058-3.311h0c-1.067-1.592-2.981-1.5-4.213-1.52h-.1a5.588,5.588,0,0,1-2.39-.443h0l-.329,0a6.452,6.452,0,0,1,.212,4.511M67.431-50.76a5.6,5.6,0,0,1-2.39.443h-.1c-1.231.025-3.146-.072-4.211,1.52h0a3.453,3.453,0,0,0-.058,3.311h0a3.432,3.432,0,0,1,.412,1.748h0a1.362,1.362,0,0,1,.657-.472h0a3.1,3.1,0,0,0-.311-1.4h0a2.97,2.97,0,0,1-.012-2.823h0c.8-1.184,2.351-1.118,3.36-1.134h0l.358-.006h0a4.707,4.707,0,0,0,1.612-.245h0a5.985,5.985,0,0,0-.01,3.581h0a3.338,3.338,0,0,1,.809-.016h0a6.429,6.429,0,0,1,.21-4.511h0Z" transform="translate(-60.272 50.764)"/></clipPath><clipPath id="am"><path class="a" d="M83.114-48.788l.054.012a3.751,3.751,0,0,1,3.659,3.671h0a6.767,6.767,0,0,1-.27,1.905h0c-.087.274-.091.294-.121.381h0a.936.936,0,0,1,.632.661h0c.066-.181.006-.01.1-.288h0c.459-1.421.992-3.939-.725-5.615h0a5.727,5.727,0,0,0-3.628-1.524h0a1.093,1.093,0,0,1,.3.8m-25.472.727c-1.717,1.676-1.18,4.194-.721,5.615h0a2.538,2.538,0,0,0,.1.288h0a.954.954,0,0,1,.626-.661h0c-.031-.087-.033-.107-.121-.381h0a6.841,6.841,0,0,1-.27-1.907h0a3.753,3.753,0,0,1,3.657-3.673h0l.056-.01a1.089,1.089,0,0,1,.305-.8h0a5.724,5.724,0,0,0-3.632,1.524" transform="translate(-56.463 49.585)"/></clipPath><clipPath id="ao"><path class="a" d="M61.342-49.779a.739.739,0,0,0,.741.741h0a.742.742,0,0,0,.747-.741h0a.746.746,0,0,0-.747-.743h0a.743.743,0,0,0-.741.743m-1.95.434a.782.782,0,0,0,.782.782h0a.775.775,0,0,0,.774-.782h0a.774.774,0,0,0-.774-.778h0a.781.781,0,0,0-.782.778m-1.853.883a.81.81,0,0,0,.811.809h0a.807.807,0,0,0,.807-.809h0a.807.807,0,0,0-.807-.809h0a.81.81,0,0,0-.811.809M56.03-46.915a.859.859,0,0,0,.857.863h0a.858.858,0,0,0,.859-.863h0a.856.856,0,0,0-.859-.857h0a.856.856,0,0,0-.857.857m-.826,2.2a.942.942,0,0,0,.943.945h0a.943.943,0,0,0,.945-.945h0a.945.945,0,0,0-.945-.945h0a.943.943,0,0,0-.943.945m.469,2.191a.848.848,0,0,0,.852.85h0a.851.851,0,0,0,.852-.85h0a.851.851,0,0,0-.852-.852h-.006a.848.848,0,0,0-.846.852" transform="translate(-55.204 50.522)"/></clipPath><clipPath id="aq"><path class="a" d="M69.827-49.78a.738.738,0,0,0,.741.741h0a.741.741,0,0,0,.747-.741h0a.743.743,0,0,0-.745-.741h0a.741.741,0,0,0-.743.741m1.876.434a.777.777,0,0,0,.776.782h0a.779.779,0,0,0,.78-.782h0a.778.778,0,0,0-.78-.778h0a.776.776,0,0,0-.776.778m1.795.883a.806.806,0,0,0,.809.809h0a.807.807,0,0,0,.8-.809h0a.807.807,0,0,0-.8-.809h0a.806.806,0,0,0-.809.809m1.408,1.548a.861.861,0,0,0,.857.863h0a.86.86,0,0,0,.863-.863h0a.859.859,0,0,0-.863-.857h0a.86.86,0,0,0-.857.857m.659,2.2a.943.943,0,0,0,.943.943h0a.941.941,0,0,0,.945-.943h0a.944.944,0,0,0-.945-.947h0a.946.946,0,0,0-.943.947m-.288,2.189a.853.853,0,0,0,.854.85h0a.851.851,0,0,0,.854-.85h0a.855.855,0,0,0-.854-.854h0a.856.856,0,0,0-.854.854" transform="translate(-69.827 50.521)"/></clipPath><clipPath id="as"><path class="a" d="M64.951-50.753a.621.621,0,0,0,.624.616h0a.619.619,0,0,0,.62-.616h0a.621.621,0,0,0-.62-.622h0a.623.623,0,0,0-.624.622m-1.727.109a.691.691,0,0,0,.686.692h0a.694.694,0,0,0,.694-.692h0a.694.694,0,0,0-.694-.69h0a.691.691,0,0,0-.686.69m3.3-.115a.511.511,0,0,0,.513.5h0a.507.507,0,0,0,.513-.5h0a.507.507,0,0,0-.513-.5h0a.511.511,0,0,0-.513.5m-5.147.593a.8.8,0,0,0,.8.8h0a.8.8,0,0,0,.8-.8h0a.8.8,0,0,0-.8-.8h0a.8.8,0,0,0-.8.8M59.889-48.9a.841.841,0,0,0,.84.84h0a.841.841,0,0,0,.84-.84h0a.84.84,0,0,0-.84-.84h0a.84.84,0,0,0-.84.84M59.1-47.026a.881.881,0,0,0,.881.881h0a.88.88,0,0,0,.883-.881h0a.883.883,0,0,0-.883-.881h0a.884.884,0,0,0-.881.881m.854,1.186a.865.865,0,0,0-.5,1.112h0a.873.873,0,0,0,1.1.537h0a.859.859,0,0,0,.5-1.114h0a.873.873,0,0,0-.815-.583h0a.844.844,0,0,0-.282.049" transform="translate(-59.104 51.375)"/></clipPath><clipPath id="au"><path class="a" d="M66.87-50.753a.619.619,0,0,0,.622.616h0a.619.619,0,0,0,.622-.616h0a.624.624,0,0,0-.622-.622h0a.624.624,0,0,0-.622.622m1.6.109a.688.688,0,0,0,.684.692h0a.689.689,0,0,0,.692-.692h0a.688.688,0,0,0-.692-.69h0a.688.688,0,0,0-.684.69M65.5-50.759a.509.509,0,0,0,.515.5h0a.512.512,0,0,0,.517-.5h0a.513.513,0,0,0-.517-.5h0a.509.509,0,0,0-.515.5m4.585.6a.8.8,0,0,0,.8.8h0a.8.8,0,0,0,.8-.8h0a.8.8,0,0,0-.8-.8h0a.8.8,0,0,0-.8.8M71.5-48.9a.841.841,0,0,0,.842.84h0a.843.843,0,0,0,.84-.84h0a.841.841,0,0,0-.84-.84h0a.839.839,0,0,0-.842.84m.7,1.878a.878.878,0,0,0,.879.879h0a.881.881,0,0,0,.883-.879h0a.883.883,0,0,0-.883-.881h0a.88.88,0,0,0-.879.881M72.01-45.3a.862.862,0,0,0,.5,1.114h0a.87.87,0,0,0,1.1-.535h0a.865.865,0,0,0-.5-1.114h0a.833.833,0,0,0-.28-.049h0a.873.873,0,0,0-.817.583" transform="translate(-65.497 51.375)"/></clipPath><clipPath id="aw"><path class="a" d="M64.3-50.2a.539.539,0,0,0,.539.539h0a.54.54,0,0,0,.541-.539h0a.542.542,0,0,0-.541-.542h0a.541.541,0,0,0-.539.542m-.119,1.48a.661.661,0,0,0,.657.659h0a.663.663,0,0,0,.663-.659h0a.661.661,0,0,0-.663-.659h0a.658.658,0,0,0-.657.659m-.1,1.7a.758.758,0,0,0,.76.758h0a.758.758,0,0,0,.758-.758h0a.763.763,0,0,0-.758-.764h0a.762.762,0,0,0-.76.764" transform="translate(-64.087 50.747)"/></clipPath><clipPath id="ay"><path class="a" d="M63.026-51.476a13.461,13.461,0,0,1,2.288-.28h0v-2.213a2.823,2.823,0,0,0-2.288,2.493" transform="translate(-63.026 53.969)"/></clipPath><clipPath id="ba"><path class="a" d="M64.744-51.756a13.434,13.434,0,0,1,2.292.28h0a2.833,2.833,0,0,0-2.292-2.493h0Z" transform="translate(-64.744 53.969)"/></clipPath><clipPath id="bc"><path class="a" d="M63.057-52.058a2.829,2.829,0,0,0,2.751,2.182h0a2.84,2.84,0,0,0,2.759-2.182h0a12.885,12.885,0,0,0-2.759-.3h0a12.84,12.84,0,0,0-2.751.3" transform="translate(-63.057 52.357)"/></clipPath><clipPath id="be"><path class="a" d="M57.7-39.234H84.052v-3.109H57.7Zm0-3.109M74.136-40.78A.838.838,0,0,1,75-41.591h0a.843.843,0,0,1,.863.811h0a.843.843,0,0,1-.863.813h0a.839.839,0,0,1-.861-.813m-8.246,0a.836.836,0,0,1,.856-.811h0a.836.836,0,0,1,.867.811h0a.837.837,0,0,1-.867.813h0a.836.836,0,0,1-.856-.813m11.141,0,1.594-.758,1.59.758-1.59.768Zm-15.475,0,1.592-.758,1.592.758-1.592.768Zm-3.068-.6H60.26v1.2H58.488Zm23,0h1.777v1.2H81.49Zm-12.385,0h3.541v1.2H69.1Z" transform="translate(-57.701 42.343)"/></clipPath></defs><g transform="translate(0 56.244)"><g class="b" transform="translate(0 -56.244)"><g transform="translate(107.776 15.424)"><path class="a" d="M16.693,2.37A1.334,1.334,0,0,0,15.6,2.9c-.364.364-.877.91-.877.91l-.332-.379c-.122-.194-.257-.768.01-.984.078-.068.029-.119-.041-.119a.727.727,0,0,0-.618.364,1.877,1.877,0,0,0-.276.6.955.955,0,0,0-.7.27,1.336,1.336,0,0,0-.288,1.062,2.154,2.154,0,0,0-.507.554,1.136,1.136,0,0,0,0,.927c.033.066.1.08.132,0a.9.9,0,0,1,.77-.539c.492-.006.679.1.669.243a1.729,1.729,0,0,1-1.334.867,1.087,1.087,0,0,1-1.071-.529A1.348,1.348,0,0,1,10.9,5.3s.6.084.939-.708c.266-.622.1-1.038-.15-1.174-.313-.169-.813.093-1.048.556-.393.768-.087,1.165-.087,1.165a1.451,1.451,0,0,1-1.746.482c-1.065-.379-.542-2.368-.542-2.368a.748.748,0,0,1,.451,0c.152.087.194.461.336.776.1.227.294.595.525.595.157,0,.439-.546.471-.97.428-.087.776-.373.634-1.19,0,0,.515-.56.443-.929-.006-.051-.286-.175-.694-.115a5.812,5.812,0,0,0-.992.274.961.961,0,0,1,.121-.469A7.377,7.377,0,0,0,10.436.41c.169-.257.393-.64.206-.758a1.822,1.822,0,0,0-.774-.21.955.955,0,0,0-.43-.348L9.394-.922a.99.99,0,0,0-.554.008,1.726,1.726,0,0,0-.749-.313c-.22-.025-.3.412-.329.717A6.948,6.948,0,0,0,7.974.735a1.007,1.007,0,0,1-.189.447,3.953,3.953,0,0,0-.5-.937c-.268-.313-.535-.383-.628-.362C6.51-.085,6.275.5,6.314,1.009a1.029,1.029,0,0,0-.4,1.324c-.2.307-.338.918-.181,1.134.091.126.558.066.978-.163.3-.169.56-.457.735-.445s.371.255.371.255S6.981,4.692,5.952,4.705A1.509,1.509,0,0,1,4.78,4.332a1.229,1.229,0,0,1-.465-.8A1.3,1.3,0,0,0,5.1,2.405a.916.916,0,0,0-.692-1.1,1.028,1.028,0,0,0-1,.92,1.134,1.134,0,0,0,.434,1.225,1.482,1.482,0,0,1-1.629.974,2.052,2.052,0,0,1-1.345-.5A2.754,2.754,0,0,1,.168,2.1a1.126,1.126,0,0,1,.556-.13c.208.039.369.412.682.673a1.717,1.717,0,0,0,1.114.55c.189-.014.367-.852.222-1.279A1.178,1.178,0,0,0,2.859.459S3.108-.422,2.882-.7c-.06-.076-.332-.136-.791.091A6.967,6.967,0,0,0,.979.2S.862-.142.949-.3A10.29,10.29,0,0,0,1.577-1.53c.1-.305.214-.762-.056-.813a2.091,2.091,0,0,0-.984.086A1.151,1.151,0,0,0-.095-2.51h0a1.105,1.105,0,0,0-.626.253,2.112,2.112,0,0,0-.988-.087c-.27.052-.156.509-.058.815A10,10,0,0,0-1.137-.3c.091.154-.027.5-.027.5A6.967,6.967,0,0,0-2.276-.607c-.459-.227-.729-.167-.793-.091C-3.3-.422-3.048.459-3.048.459a1.181,1.181,0,0,0,.121,1.456c-.148.426.033,1.266.222,1.277a1.692,1.692,0,0,0,1.112-.548c.313-.261.476-.634.682-.673a1.126,1.126,0,0,1,.556.13,2.773,2.773,0,0,1-.7,1.82,2.072,2.072,0,0,1-1.347.5,1.485,1.485,0,0,1-1.633-.974,1.142,1.142,0,0,0,.441-1.225,1.039,1.039,0,0,0-1-.92.919.919,0,0,0-.7,1.1A1.311,1.311,0,0,0-4.5,3.537a1.218,1.218,0,0,1-.457.8,1.521,1.521,0,0,1-1.174.373C-7.166,4.692-8,3.113-8,3.113s.2-.241.369-.255.432.274.735.445c.418.229.889.29.982.163.152-.216.008-.826-.189-1.134A1.019,1.019,0,0,0-6.5,1.009C-6.46.5-6.7-.085-6.843-.117a.823.823,0,0,0-.63.362,4.079,4.079,0,0,0-.5.937A1.034,1.034,0,0,1-8.16.735,7.3,7.3,0,0,0-7.946-.509c-.037-.305-.109-.743-.334-.717a1.7,1.7,0,0,0-.743.313,1,1,0,0,0-.558-.008l-.047.016a.925.925,0,0,0-.422.346,1.854,1.854,0,0,0-.78.212c-.187.119.041.5.208.758a7.691,7.691,0,0,0,.875.813.948.948,0,0,1,.119.469,5.781,5.781,0,0,0-.988-.274c-.414-.06-.684.064-.694.115-.07.369.443.927.443.927-.14.819.208,1.1.632,1.192.031.424.313.97.472.97.235,0,.422-.367.527-.6.138-.315.181-.686.334-.774s.451,0,.451,0,.521,1.989-.544,2.364a1.45,1.45,0,0,1-1.748-.478s.3-.4-.082-1.165c-.237-.463-.737-.725-1.05-.556-.249.134-.422.552-.15,1.174.338.789.937.706.937.706a1.393,1.393,0,0,1-.233.852,1.1,1.1,0,0,1-1.075.531,1.73,1.73,0,0,1-1.336-.867c-.01-.138.179-.249.673-.243a.9.9,0,0,1,.766.539c.033.08.1.066.134,0a1.127,1.127,0,0,0,0-.927,2.23,2.23,0,0,0-.506-.554,1.341,1.341,0,0,0-.29-1.065.969.969,0,0,0-.7-.268,1.93,1.93,0,0,0-.276-.6.735.735,0,0,0-.612-.366c-.072,0-.122.052-.045.119.268.218.136.791.01.986l-.334.379s-.511-.546-.875-.91A1.335,1.335,0,0,0-16.88,2.37a.832.832,0,0,0-.8.494,1.254,1.254,0,0,1,1,.268c.321.227,1.11,1,1.11,1-.08,1.089.282,1.88,1.336,1.985l.688.91H13.366l.682-.91c1.054-.1,1.415-.9,1.34-1.985,0,0,.787-.77,1.106-1a1.269,1.269,0,0,1,1-.268.833.833,0,0,0-.8-.494M-14,4.944c-.064.082-.157.231-.157.231s.268.523.173.57a1.211,1.211,0,0,1-.84-.412A2.783,2.783,0,0,1-15.2,3.99s.235.251.546.607l.185.21a.642.642,0,0,1,.344-.177.744.744,0,0,1,.395.066s-.206.173-.272.249m5.71-1.954c-.13.089-.552-.562-.552-.562a2.271,2.271,0,0,0-.4.017,4.213,4.213,0,0,0-.517.146,1.115,1.115,0,0,1,.416-.55,1.019,1.019,0,0,1,.34-.14s-.072-.054-.192-.517A3.95,3.95,0,0,1-9.262.058a3.96,3.96,0,0,1,.743,1.106c.183.445.161.541.161.541a1.066,1.066,0,0,1,.352-.086,1.027,1.027,0,0,1,.665.192A2.478,2.478,0,0,0-7.849,2a3.026,3.026,0,0,0-.338.222s.047.768-.107.77m8.2-1.12h0c-.22,0-.373-.789-.373-.789A2.271,2.271,0,0,0-.907.972a4.99,4.99,0,0,0-.6-.017A1.1,1.1,0,0,1-.882.543,1.155,1.155,0,0,1-.472.508S-.52.515-.482.025A3.761,3.761,0,0,1-.095-1.281h0A3.819,3.819,0,0,1,.3.025c.035.49-.01.486-.01.486a1.051,1.051,0,0,1,.4.029,1,1,0,0,1,.638.414A4,4,0,0,0,.718.972a2.723,2.723,0,0,0-.439.109s-.152.793-.373.789M8,2.226A2.423,2.423,0,0,0,7.661,2a2.785,2.785,0,0,0-.506-.189A1.051,1.051,0,0,1,7.819,1.6a.748.748,0,0,1,.356.084s-.023-.07.159-.515A3.991,3.991,0,0,1,9.079.066a3.986,3.986,0,0,1-.066,1.328,1.476,1.476,0,0,1-.179.515,1,1,0,0,1,.334.138.951.951,0,0,1,.414.55,4.173,4.173,0,0,0-.521-.142,1.562,1.562,0,0,0-.4-.017s-.416.649-.55.56c-.15,0-.1-.772-.1-.772m6.64,3.107a1.216,1.216,0,0,1-.84.416c-.093-.051.175-.574.175-.574a2.733,2.733,0,0,0-.159-.229,3.141,3.141,0,0,0-.274-.251,1.2,1.2,0,0,1,.445-.066.473.473,0,0,1,.319.161c.01-.016.047-.06.161-.192.311-.358.546-.609.546-.609a2.805,2.805,0,0,1-.373,1.344" transform="translate(17.677 2.51)"/></g><g transform="translate(107.776 15.424)"><path class="a" d="M16.693,2.37A1.334,1.334,0,0,0,15.6,2.9c-.364.364-.877.91-.877.91l-.332-.379c-.122-.194-.257-.768.01-.984.078-.068.029-.119-.041-.119a.727.727,0,0,0-.618.364,1.877,1.877,0,0,0-.276.6.955.955,0,0,0-.7.27,1.336,1.336,0,0,0-.288,1.062,2.154,2.154,0,0,0-.507.554,1.136,1.136,0,0,0,0,.927c.033.066.1.08.132,0a.9.9,0,0,1,.77-.539c.492-.006.679.1.669.243a1.729,1.729,0,0,1-1.334.867,1.087,1.087,0,0,1-1.071-.529A1.348,1.348,0,0,1,10.9,5.3s.6.084.939-.708c.266-.622.1-1.038-.15-1.174-.313-.169-.813.093-1.048.556-.393.768-.087,1.165-.087,1.165a1.451,1.451,0,0,1-1.746.482c-1.065-.379-.542-2.368-.542-2.368a.748.748,0,0,1,.451,0c.152.087.194.461.336.776.1.227.294.595.525.595.157,0,.439-.546.471-.97.428-.087.776-.373.634-1.19,0,0,.515-.56.443-.929-.006-.051-.286-.175-.694-.115a5.812,5.812,0,0,0-.992.274.961.961,0,0,1,.121-.469A7.377,7.377,0,0,0,10.436.41c.169-.257.393-.64.206-.758a1.822,1.822,0,0,0-.774-.21.955.955,0,0,0-.43-.348L9.394-.922a.99.99,0,0,0-.554.008,1.726,1.726,0,0,0-.749-.313c-.22-.025-.3.412-.329.717A6.948,6.948,0,0,0,7.974.735a1.007,1.007,0,0,1-.189.447,3.953,3.953,0,0,0-.5-.937c-.268-.313-.535-.383-.628-.362C6.51-.085,6.275.5,6.314,1.009a1.029,1.029,0,0,0-.4,1.324c-.2.307-.338.918-.181,1.134.091.126.558.066.978-.163.3-.169.56-.457.735-.445s.371.255.371.255S6.981,4.692,5.952,4.705A1.509,1.509,0,0,1,4.78,4.332a1.229,1.229,0,0,1-.465-.8A1.3,1.3,0,0,0,5.1,2.405a.916.916,0,0,0-.692-1.1,1.028,1.028,0,0,0-1,.92,1.134,1.134,0,0,0,.434,1.225,1.482,1.482,0,0,1-1.629.974,2.052,2.052,0,0,1-1.345-.5A2.754,2.754,0,0,1,.168,2.1a1.126,1.126,0,0,1,.556-.13c.208.039.369.412.682.673a1.717,1.717,0,0,0,1.114.55c.189-.014.367-.852.222-1.279A1.178,1.178,0,0,0,2.859.459S3.108-.422,2.882-.7c-.06-.076-.332-.136-.791.091A6.967,6.967,0,0,0,.979.2S.862-.142.949-.3A10.29,10.29,0,0,0,1.577-1.53c.1-.305.214-.762-.056-.813a2.091,2.091,0,0,0-.984.086A1.151,1.151,0,0,0-.095-2.51h0a1.105,1.105,0,0,0-.626.253,2.112,2.112,0,0,0-.988-.087c-.27.052-.156.509-.058.815A10,10,0,0,0-1.137-.3c.091.154-.027.5-.027.5A6.967,6.967,0,0,0-2.276-.607c-.459-.227-.729-.167-.793-.091C-3.3-.422-3.048.459-3.048.459a1.181,1.181,0,0,0,.121,1.456c-.148.426.033,1.266.222,1.277a1.692,1.692,0,0,0,1.112-.548c.313-.261.476-.634.682-.673a1.126,1.126,0,0,1,.556.13,2.773,2.773,0,0,1-.7,1.82,2.072,2.072,0,0,1-1.347.5,1.485,1.485,0,0,1-1.633-.974,1.142,1.142,0,0,0,.441-1.225,1.039,1.039,0,0,0-1-.92.919.919,0,0,0-.7,1.1A1.311,1.311,0,0,0-4.5,3.537a1.218,1.218,0,0,1-.457.8,1.521,1.521,0,0,1-1.174.373C-7.166,4.692-8,3.113-8,3.113s.2-.241.369-.255.432.274.735.445c.418.229.889.29.982.163.152-.216.008-.826-.189-1.134A1.019,1.019,0,0,0-6.5,1.009C-6.46.5-6.7-.085-6.843-.117a.823.823,0,0,0-.63.362,4.079,4.079,0,0,0-.5.937A1.034,1.034,0,0,1-8.16.735,7.3,7.3,0,0,0-7.946-.509c-.037-.305-.109-.743-.334-.717a1.7,1.7,0,0,0-.743.313,1,1,0,0,0-.558-.008l-.047.016a.925.925,0,0,0-.422.346,1.854,1.854,0,0,0-.78.212c-.187.119.041.5.208.758a7.691,7.691,0,0,0,.875.813.948.948,0,0,1,.119.469,5.781,5.781,0,0,0-.988-.274c-.414-.06-.684.064-.694.115-.07.369.443.927.443.927-.14.819.208,1.1.632,1.192.031.424.313.97.472.97.235,0,.422-.367.527-.6.138-.315.181-.686.334-.774s.451,0,.451,0,.521,1.989-.544,2.364a1.45,1.45,0,0,1-1.748-.478s.3-.4-.082-1.165c-.237-.463-.737-.725-1.05-.556-.249.134-.422.552-.15,1.174.338.789.937.706.937.706a1.393,1.393,0,0,1-.233.852,1.1,1.1,0,0,1-1.075.531,1.73,1.73,0,0,1-1.336-.867c-.01-.138.179-.249.673-.243a.9.9,0,0,1,.766.539c.033.08.1.066.134,0a1.127,1.127,0,0,0,0-.927,2.23,2.23,0,0,0-.506-.554,1.341,1.341,0,0,0-.29-1.065.969.969,0,0,0-.7-.268,1.93,1.93,0,0,0-.276-.6.735.735,0,0,0-.612-.366c-.072,0-.122.052-.045.119.268.218.136.791.01.986l-.334.379s-.511-.546-.875-.91A1.335,1.335,0,0,0-16.88,2.37a.832.832,0,0,0-.8.494,1.254,1.254,0,0,1,1,.268c.321.227,1.11,1,1.11,1-.08,1.089.282,1.88,1.336,1.985l.688.91H13.366l.682-.91c1.054-.1,1.415-.9,1.34-1.985,0,0,.787-.77,1.106-1a1.269,1.269,0,0,1,1-.268.833.833,0,0,0-.8-.494M-14,4.944c-.064.082-.157.231-.157.231s.268.523.173.57a1.211,1.211,0,0,1-.84-.412A2.783,2.783,0,0,1-15.2,3.99s.235.251.546.607l.185.21a.642.642,0,0,1,.344-.177.744.744,0,0,1,.395.066s-.206.173-.272.249m5.71-1.954c-.13.089-.552-.562-.552-.562a2.271,2.271,0,0,0-.4.017,4.213,4.213,0,0,0-.517.146,1.115,1.115,0,0,1,.416-.55,1.019,1.019,0,0,1,.34-.14s-.072-.054-.192-.517A3.95,3.95,0,0,1-9.262.058a3.96,3.96,0,0,1,.743,1.106c.183.445.161.541.161.541a1.066,1.066,0,0,1,.352-.086,1.027,1.027,0,0,1,.665.192A2.478,2.478,0,0,0-7.849,2a3.026,3.026,0,0,0-.338.222s.047.768-.107.77m8.2-1.12h0c-.22,0-.373-.789-.373-.789A2.271,2.271,0,0,0-.907.972a4.99,4.99,0,0,0-.6-.017A1.1,1.1,0,0,1-.882.543,1.155,1.155,0,0,1-.472.508S-.52.515-.482.025A3.761,3.761,0,0,1-.095-1.281h0A3.819,3.819,0,0,1,.3.025c.035.49-.01.486-.01.486a1.051,1.051,0,0,1,.4.029,1,1,0,0,1,.638.414A4,4,0,0,0,.718.972a2.723,2.723,0,0,0-.439.109s-.152.793-.373.789M8,2.226A2.423,2.423,0,0,0,7.661,2a2.785,2.785,0,0,0-.506-.189A1.051,1.051,0,0,1,7.819,1.6a.748.748,0,0,1,.356.084s-.023-.07.159-.515A3.991,3.991,0,0,1,9.079.066a3.986,3.986,0,0,1-.066,1.328,1.476,1.476,0,0,1-.179.515,1,1,0,0,1,.334.138.951.951,0,0,1,.414.55,4.173,4.173,0,0,0-.521-.142,1.562,1.562,0,0,0-.4-.017s-.416.649-.55.56c-.15,0-.1-.772-.1-.772m6.64,3.107a1.216,1.216,0,0,1-.84.416c-.093-.051.175-.574.175-.574a2.733,2.733,0,0,0-.159-.229,3.141,3.141,0,0,0-.274-.251,1.2,1.2,0,0,1,.445-.066.473.473,0,0,1,.319.161c.01-.016.047-.06.161-.192.311-.358.546-.609.546-.609a2.805,2.805,0,0,1-.373,1.344" transform="translate(17.677 2.51)"/></g></g><g class="c" transform="translate(107.775 -40.82)"><path class="a" d="M55.431-48.311H90.6v9.535H55.431Z" transform="translate(-55.431 48.311)"/></g><g class="b" transform="translate(0 -56.244)"><g transform="translate(46.904 75.451)"><path class="a" d="M4.628,3.766l-.21.156a.3.3,0,0,0-.233-.144c-.041,0-.084.027-.181.1A5.511,5.511,0,0,1,.236,5.191C-2.885,5.191-4.9,3.126-4.9.379c0-2.3,1.956-4.367,5.071-4.367a7.542,7.542,0,0,1,2.559.461c.5.173.793.332,1.023.418a.373.373,0,0,0,.138.031A.257.257,0,0,0,4.117-3.2l.214.126L3.362-1.315l-.206-.124A.28.28,0,0,0,3.2-1.587a.225.225,0,0,0-.035-.132A4.256,4.256,0,0,0,.086-2.831,3.282,3.282,0,0,0-3.458.552c0,2.2,1.693,3.48,3.84,3.48A3.87,3.87,0,0,0,3.22,2.741a.511.511,0,0,0,.1-.29.254.254,0,0,0-.06-.165l.212-.138Z" transform="translate(4.901 3.988)"/></g><g transform="translate(46.904 75.451)"><path class="a" d="M4.628,3.766l-.21.156a.3.3,0,0,0-.233-.144c-.041,0-.084.027-.181.1A5.511,5.511,0,0,1,.236,5.191C-2.885,5.191-4.9,3.126-4.9.379c0-2.3,1.956-4.367,5.071-4.367a7.542,7.542,0,0,1,2.559.461c.5.173.793.332,1.023.418a.373.373,0,0,0,.138.031A.257.257,0,0,0,4.117-3.2l.214.126L3.362-1.315l-.206-.124A.28.28,0,0,0,3.2-1.587a.225.225,0,0,0-.035-.132A4.256,4.256,0,0,0,.086-2.831,3.282,3.282,0,0,0-3.458.552c0,2.2,1.693,3.48,3.84,3.48A3.87,3.87,0,0,0,3.22,2.741a.511.511,0,0,0,.1-.29.254.254,0,0,0-.06-.165l.212-.138Z" transform="translate(4.901 3.988)"/></g></g><g class="d" transform="translate(46.904 19.207)"><g transform="translate(-3.518 -3.652)"><path class="a" d="M0,5.435,5.219-5.756,16.562-.466,11.343,10.726Z" transform="translate(0 5.756)"/></g></g><g class="b" transform="translate(0 -56.244)"><g transform="translate(65.698 75.552)"><path class="a" d="M4.275,4.061c0,.237-.016.41.294.41v.2H2.609v-.2c.311,0,.3-.173.3-.41V.647H-2.867V4.061c0,.237-.012.41.3.41v.2H-4.527v-.2c.307,0,.294-.173.294-.41V-3.687c0-.239.014-.408-.294-.408V-4.3h1.958v.206c-.309,0-.3.169-.3.408V-.478H2.908V-3.687c0-.239.012-.408-.3-.408V-4.3h1.96v.206c-.309,0-.294.169-.294.408Z" transform="translate(4.527 4.301)"/></g><g transform="translate(65.698 75.552)"><path class="a" d="M4.275,4.061c0,.237-.016.41.294.41v.2H2.609v-.2c.311,0,.3-.173.3-.41V.647H-2.867V4.061c0,.237-.012.41.3.41v.2H-4.527v-.2c.307,0,.294-.173.294-.41V-3.687c0-.239.014-.408-.294-.408V-4.3h1.958v.206c-.309,0-.3.169-.3.408V-.478H2.908V-3.687c0-.239.012-.408-.3-.408V-4.3h1.96v.206c-.309,0-.294.169-.294.408Z" transform="translate(4.527 4.301)"/></g></g><g class="e" transform="translate(65.698 19.31)"><g transform="translate(-3.721 -3.771)"><path class="a" d="M0,5.23,5.726-5.538,16.536.209l-5.724,10.77Z" transform="translate(0 5.538)"/></g></g><g class="b" transform="translate(0 -56.244)"><g transform="translate(83.275 75.554)"><path class="a" d="M1.207,3.2.627,4.563A2.993,2.993,0,0,0,.388,5.2c0,.121.1.189.227.189v.2H-1.278l0-.2c.276,0,.274-.052.616-.8l3.07-6.895.459-1.073H4.3s.317.731.49,1.124L7.8,4.53c.362.8.416.854.642.854l0,.2H6.324l0-.2c.185,0,.29-.086.29-.239,0-.1-.029-.171-.2-.581L5.821,3.2Zm.537-1.124H5.284L3.513-1.956Z" transform="translate(1.278 3.387)"/></g><g transform="translate(83.275 75.554)"><path class="a" d="M1.207,3.2.627,4.563A2.993,2.993,0,0,0,.388,5.2c0,.121.1.189.227.189v.2H-1.278l0-.2c.276,0,.274-.052.616-.8l3.07-6.895.459-1.073H4.3s.317.731.49,1.124L7.8,4.53c.362.8.416.854.642.854l0,.2H6.324l0-.2c.185,0,.29-.086.29-.239,0-.1-.029-.171-.2-.581L5.821,3.2Zm.537-1.124H5.284L3.513-1.956Z" transform="translate(1.278 3.387)"/></g></g><g class="f" transform="translate(83.277 19.31)"><g transform="translate(-4.101 -4.44)"><path class="a" d="M0,5.222,6.982-5.53l10.935,7.1L10.935,12.323Z" transform="translate(0 5.53)"/></g></g><g class="b" transform="translate(0 -56.244)"><g transform="translate(137.059 75.554)"><path class="a" d="M1.206,3.2.626,4.563A2.993,2.993,0,0,0,.387,5.2c0,.121.1.189.229.189l0,.2h-1.9l.008-.2c.272,0,.268-.052.611-.8L2.409-2.314c.171-.395.459-1.073.459-1.073H4.3s.313.731.486,1.124L7.8,4.53c.366.8.4.854.651.854l-.006.2H6.325l.006-.2c.185,0,.282-.086.284-.239,0-.1-.027-.171-.2-.581L5.82,3.2Zm.541-1.124H5.281L3.512-1.956Z" transform="translate(1.277 3.387)"/></g><g transform="translate(137.059 75.554)"><path class="a" d="M1.206,3.2.626,4.563A2.993,2.993,0,0,0,.387,5.2c0,.121.1.189.229.189l0,.2h-1.9l.008-.2c.272,0,.268-.052.611-.8L2.409-2.314c.171-.395.459-1.073.459-1.073H4.3s.313.731.486,1.124L7.8,4.53c.366.8.4.854.651.854l-.006.2H6.325l.006-.2c.185,0,.282-.086.284-.239,0-.1-.027-.171-.2-.581L5.82,3.2Zm.541-1.124H5.281L3.512-1.956Z" transform="translate(1.277 3.387)"/></g></g><g class="g" transform="translate(137.06 19.31)"><g transform="translate(-3.889 -4.212)"><path class="a" d="M3.069,0,14.251,6.455,7.932,17.4-3.25,10.943Z" transform="translate(3.25)"/></g></g><g class="b" transform="translate(0 -56.244)"><g transform="translate(101.572 75.542)"><path class="a" d="M0,4.365v-.2c.315,0,.327-.173.327-.41V-4.01C.327-4.216.3-4.4,0-4.4v-.218H2.024L4.972,1.462,8.038-4.622h2.125V-4.4c-.27,0-.315.266-.315.395V3.75c0,.237.006.41.356.41v.2H8.117v-.2c.348,0,.358-.173.358-.41V-3.034l-.017,0L4.952,4.193,1.484-3.035l-.016,0V3.75c0,.255.027.41.3.41v.2Z" transform="translate(0 4.622)"/></g><g transform="translate(101.572 75.542)"><path class="a" d="M0,4.365v-.2c.315,0,.327-.173.327-.41V-4.01C.327-4.216.3-4.4,0-4.4v-.218H2.024L4.972,1.462,8.038-4.622h2.125V-4.4c-.27,0-.315.266-.315.395V3.75c0,.237.006.41.356.41v.2H8.117v-.2c.348,0,.358-.173.358-.41V-3.034l-.017,0L4.952,4.193,1.484-3.035l-.016,0V3.75c0,.255.027.41.3.41v.2Z" transform="translate(0 4.622)"/></g></g><g class="h" transform="translate(101.571 19.296)"><g transform="translate(-4.424 -5.024)"><path class="a" d="M0,4.244,10.414-4.494,19.054,5.8,8.641,14.543Z" transform="translate(0 4.494)"/></g></g><g class="b" transform="translate(0 -56.244)"><g transform="translate(121.62 75.554)"><path class="a" d="M.144.3c0-.239.017-.408-.3-.408v-.2H4.9a7.1,7.1,0,0,1,1.561.132A2.2,2.2,0,0,1,8.3,2.09,2.484,2.484,0,0,1,6.729,4.513a5.417,5.417,0,0,1-1.779.259H1.514V8.046c0,.237-.012.41.3.41v.2H-.152v-.2c.313,0,.3-.173.3-.41ZM1.514,3.609H5.148c1.4,0,1.728-.7,1.728-1.468,0-.747-.3-1.326-1.728-1.326H1.514Z" transform="translate(0.152 0.315)"/></g><g transform="translate(121.62 75.554)"><path class="a" d="M.144.3c0-.239.017-.408-.3-.408v-.2H4.9a7.1,7.1,0,0,1,1.561.132A2.2,2.2,0,0,1,8.3,2.09,2.484,2.484,0,0,1,6.729,4.513a5.417,5.417,0,0,1-1.779.259H1.514V8.046c0,.237-.012.41.3.41v.2H-.152v-.2c.313,0,.3-.173.3-.41ZM1.514,3.609H5.148c1.4,0,1.728-.7,1.728-1.468,0-.747-.3-1.326-1.728-1.326H1.514Z" transform="translate(0.152 0.315)"/></g></g><g class="i" transform="translate(121.618 19.31)"><path class="a" d="M62.551-17.385H71V-8.41H62.551Z" transform="translate(-62.551 17.385)"/></g><g class="b" transform="translate(0 -56.244)"><g transform="translate(154.3 75.449)"><path class="a" d="M3.01,2.768c-.354,0-.556.031-.556.313l-.206,0V1.321l.194-.006c0,.377.284.327.568.327H6.16s-.006.272-.006.651V3.775c0,.395.006.84.006.84A6.335,6.335,0,0,1,1.854,6.25c-2.8,0-5.042-1.876-5.042-4.579a4.625,4.625,0,0,1,4.876-4.6c2.81,0,3.636,1.163,4.027,1.159a.2.2,0,0,0,.2-.1l.194.136L5.1-.209,4.9-.347a.082.082,0,0,0,.031-.076c0-.391-1.386-1.349-3.212-1.349A3.224,3.224,0,0,0-1.8,1.642,3.347,3.347,0,0,0,1.638,5.089,4.557,4.557,0,0,0,4.889,4.067v-1.3Z" transform="translate(3.188 2.931)"/></g><g transform="translate(154.3 75.449)"><path class="a" d="M3.01,2.768c-.354,0-.556.031-.556.313l-.206,0V1.321l.194-.006c0,.377.284.327.568.327H6.16s-.006.272-.006.651V3.775c0,.395.006.84.006.84A6.335,6.335,0,0,1,1.854,6.25c-2.8,0-5.042-1.876-5.042-4.579a4.625,4.625,0,0,1,4.876-4.6c2.81,0,3.636,1.163,4.027,1.159a.2.2,0,0,0,.2-.1l.194.136L5.1-.209,4.9-.347a.082.082,0,0,0,.031-.076c0-.391-1.386-1.349-3.212-1.349A3.224,3.224,0,0,0-1.8,1.642,3.347,3.347,0,0,0,1.638,5.089,4.557,4.557,0,0,0,4.889,4.067v-1.3Z" transform="translate(3.188 2.931)"/></g></g><g class="j" transform="translate(154.298 19.207)"><g transform="translate(-4.564 -4.649)"><path class="a" d="M4.724,0l8.749,9.718L3.746,18.477-5,8.759Z" transform="translate(5.003)"/></g></g><g class="b" transform="translate(0 -56.244)"><g transform="translate(173.252 75.553)"><path class="a" d="M3.7,3.265h.033V-2.846c0-.237.014-.408-.294-.408v-.2H5.2v.2c-.311,0-.3.171-.3.408V4.9c0,.235,0,.612,0,.612h-1s-.478-.595-.529-.667l-5.8-6.91V4.9c0,.235.012.408.321.408v.2H-3.92v-.2c.284,0,.319-.173.319-.408v-7.75c0-.237-.01-.408-.319-.408v-.2h1.975s.463.546.525.612Z" transform="translate(3.92 3.458)"/></g><g transform="translate(173.252 75.553)"><path class="a" d="M3.7,3.265h.033V-2.846c0-.237.014-.408-.294-.408v-.2H5.2v.2c-.311,0-.3.171-.3.408V4.9c0,.235,0,.612,0,.612h-1s-.478-.595-.529-.667l-5.8-6.91V4.9c0,.235.012.408.321.408v.2H-3.92v-.2c.284,0,.319-.173.319-.408v-7.75c0-.237-.01-.408-.319-.408v-.2h1.975s.463.546.525.612Z" transform="translate(3.92 3.458)"/></g></g><g class="k" transform="translate(173.251 19.31)"><g transform="translate(-3.886 -3.951)"><path class="a" d="M5.211,0l6.167,10.682L.649,16.877-5.518,6.195Z" transform="translate(5.518)"/></g></g><g class="b" transform="translate(0 -56.244)"><g transform="translate(192.017 75.542)"><path class="a" d="M.169.3C.169.064.13-.105-.179-.105v-.2H6.6c.554,0,.85-.012.85-.012V1.2H7.26c0-.29-.148-.381-.638-.381H1.532v2.7H4.847c.387,0,.665-.023.665-.381h.194v1.9H5.512c0-.342-.175-.4-.636-.4H1.532v2.9H6.98c.459,0,.671.043.671-.385h.2V8.668s-.362,0-.77,0H-.179v-.2c.309,0,.348-.173.348-.41Z" transform="translate(0.179 0.321)"/></g><g transform="translate(192.017 75.542)"><path class="a" d="M.169.3C.169.064.13-.105-.179-.105v-.2H6.6c.554,0,.85-.012.85-.012V1.2H7.26c0-.29-.148-.381-.638-.381H1.532v2.7H4.847c.387,0,.665-.023.665-.381h.194v1.9H5.512c0-.342-.175-.4-.636-.4H1.532v2.9H6.98c.459,0,.671.043.671-.385h.2V8.668s-.362,0-.77,0H-.179v-.2c.309,0,.348-.173.348-.41Z" transform="translate(0.179 0.321)"/></g></g><g class="l" transform="translate(192.018 19.296)"><g transform="translate(-2.888 -2.578)"><path class="a" d="M4.844,0,8.673,10.517-1.3,14.147-5.13,3.63Z" transform="translate(5.13)"/></g></g><g class="b" transform="translate(0 -56.244)"><g transform="translate(118.569 96.431)"><path class="a" d="M3.3,0,4.906,4.935l5.191,0C9.192,5.6,5.9,7.995,5.9,7.995s1.254,3.863,1.6,4.929c-.908-.657-4.2-3.047-4.2-3.047S.007,12.267-.9,12.924C-.553,11.858.7,7.995.7,7.995l-4.2-3.056,5.191,0L2.733,1.75S3.067.716,3.3,0" transform="translate(3.495)"/></g><g transform="translate(118.569 96.431)"><path class="a" d="M3.3,0,4.906,4.935l5.191,0C9.192,5.6,5.9,7.995,5.9,7.995s1.254,3.863,1.6,4.929c-.908-.657-4.2-3.047-4.2-3.047S.007,12.267-.9,12.924C-.553,11.858.7,7.995.7,7.995l-4.2-3.056,5.191,0L2.733,1.75S3.067.716,3.3,0" transform="translate(3.495)"/></g></g><g class="m" transform="translate(118.57 40.188)"><path class="a" d="M0-56.244H249.319V53.092H0Z" transform="translate(-118.57 -40.188)"/></g><g transform="translate(69.408 -30.092)"><path class="a" d="M0,0H4.447V.813H.943V1.935h3.01v.811H.943V4.832H0Z"/></g><g transform="translate(69.408 -30.092)"><path class="a" d="M0,0H4.447V.813H.943V1.935h3.01v.811H.943V4.832H0Z"/></g><g transform="translate(69.407 -30.092)"><path class="a" d="M0,0V4.832H.943V2.743H3.955V1.933H.943V.813h3.5V0Z"/></g><g class="b" transform="translate(0 -56.244)"><g transform="translate(75.967 26.035)"><path class="a" d="M1.4,0c2.125,0,2.88,1.248,2.88,2.568,0,1.005-.591,2.5-2.88,2.5s-2.876-1.5-2.876-2.5C-1.479,1.248-.727,0,1.4,0M3.331,2.518C3.331,1.355,2.5.809,1.4.809S-.536,1.355-.536,2.518c0,1.365,1.029,1.74,1.933,1.74s1.935-.375,1.935-1.74" transform="translate(1.479)"/></g><g transform="translate(75.967 26.035)"><path class="a" d="M1.4,0c2.125,0,2.88,1.248,2.88,2.568,0,1.005-.591,2.5-2.88,2.5s-2.876-1.5-2.876-2.5C-1.479,1.248-.727,0,1.4,0M3.331,2.518C3.331,1.355,2.5.809,1.4.809S-.536,1.355-.536,2.518c0,1.365,1.029,1.74,1.933,1.74s1.935-.375,1.935-1.74" transform="translate(1.479)"/></g></g><g class="n" transform="translate(75.968 -30.21)"><g transform="translate(-2.196 -2.493)"><path class="a" d="M0,1.826l6.511-3.76L10.145,4.36,3.634,8.12Z" transform="translate(0 1.934)"/></g></g><g transform="translate(84.25 -30.092)"><path class="a" d="M0,0H1L4.229,3.488V0h.9V4.832H4.268L.906,1.217V4.832H0Z"/></g><g transform="translate(84.25 -30.092)"><path class="a" d="M0,0H1L4.229,3.488V0h.9V4.832H4.268L.906,1.217V4.832H0Z"/></g><g transform="translate(84.25 -30.092)"><path class="a" d="M2.055,0V3.488L-1.177,0h-1V4.832h.906V1.217L2.094,4.832h.863V0Z" transform="translate(2.176)"/></g><g class="b" transform="translate(0 -56.244)"><g transform="translate(92.224 26.152)"><path class="a" d="M0,0H2.327C3.856,0,5.079.646,5.079,2.388c0,1.647-1.116,2.444-2.712,2.444H0ZM1.9,4.023c1.6,0,2.232-.494,2.232-1.623C4.136,1.217,3.482.813,1.9.813H.943v3.21Z"/></g><g transform="translate(92.224 26.152)"><path class="a" d="M0,0H2.327C3.856,0,5.079.646,5.079,2.388c0,1.647-1.116,2.444-2.712,2.444H0ZM1.9,4.023c1.6,0,2.232-.494,2.232-1.623C4.136,1.217,3.482.813,1.9.813H.943v3.21Z"/></g></g><g class="o" transform="translate(92.224 -30.091)"><g transform="translate(-1.553 -1.633)"><path class="a" d="M0,1.067l6.037-2.2,2.147,5.9-6.037,2.2Z" transform="translate(0 1.13)"/></g></g><g transform="translate(99.832 -31.393)"><path class="a" d="M0,.632H4.332v.813H.947V2.566H3.861v.811H.947V4.655H4.414v.809H0Zm2.152-1.3h.933L2.022.282H1.437Z" transform="translate(0 0.669)"/></g><g transform="translate(99.832 -31.393)"><path class="a" d="M0,.632H4.332v.813H.947V2.566H3.861v.811H.947V4.655H4.414v.809H0Zm2.152-1.3h.933L2.022.282H1.437Z" transform="translate(0 0.669)"/></g><g transform="translate(99.832 -31.393)"><path class="a" d="M1.046,0,.329.953H.916L1.978,0ZM-1.108,1.3v4.83H3.306V5.324H-.161V4.046H2.753V3.235H-.161V2.113H3.224V1.3Z" transform="translate(1.108)"/></g><g transform="translate(146.807 -30.092)"><path class="a" d="M0,0H4.157V.813H.9V1.935H3.7v.809H.9V4.023H4.233v.809H0Z"/></g><g transform="translate(146.807 -30.092)"><path class="a" d="M0,0H4.157V.813H.9V1.935H3.7v.809H.9V4.023H4.233v.809H0Z"/></g><g transform="translate(146.808 -30.092)"><path class="a" d="M0,0V4.83H4.231V4.021H.9V2.741H3.7V1.933H.9V.813H4.157V0Z"/></g><g transform="translate(153.488 -30.092)"><path class="a" d="M0,0H.959l3.1,3.488V0h.867V4.832H4.1L.871,1.215V4.832H0Z"/></g><g transform="translate(153.488 -30.092)"><path class="a" d="M0,0H.959l3.1,3.488V0h.867V4.832H4.1L.871,1.215V4.832H0Z"/></g><g transform="translate(153.489 -30.092)"><path class="a" d="M1.971,0V3.488L-1.128,0h-.959V4.83h.871V1.215L2.012,4.83h.824V0Z" transform="translate(2.087)"/></g><g class="b" transform="translate(0 -56.244)"><g transform="translate(164.033 26.034)"><path class="a" d="M0,.335a1.847,1.847,0,0,0,1.287-.69h.474V4.593h-.8V.878H0Z" transform="translate(0 0.355)"/></g><g transform="translate(164.033 26.034)"><path class="a" d="M0,.335a1.847,1.847,0,0,0,1.287-.69h.474V4.593h-.8V.878H0Z" transform="translate(0 0.355)"/></g></g><g class="p" transform="translate(164.033 -30.21)"><g transform="translate(-2.001 -0.713)"><path class="a" d="M1.148,0l3.4,1.732L2.183,6.373l-3.4-1.732Z" transform="translate(1.216)"/></g></g><g transform="translate(168.518 -30.091)"><path class="a" d="M1.437.367H-1.522V-.389H2.507V.037L.17,4.441H-.82Z" transform="translate(1.522 0.389)"/></g><g transform="translate(168.518 -30.091)"><path class="a" d="M1.437.367H-1.522V-.389H2.507V.037L.17,4.441H-.82Z" transform="translate(1.522 0.389)"/></g><g transform="translate(168.517 -30.092)"><path class="a" d="M0,0V.756H2.961L.7,4.83h.988L4.031.428V0Z"/></g><g transform="translate(174.031 -30.092)"><path class="a" d="M1.365,0h.887V3.076h.595v.733H2.251V4.832h-.8V3.809H-1.445V3.076Zm.084.9L-.541,3.076H1.448Z" transform="translate(1.445)"/></g><g transform="translate(174.031 -30.092)"><path class="a" d="M1.365,0h.887V3.076h.595v.733H2.251V4.832h-.8V3.809H-1.445V3.076Zm.084.9L-.541,3.076H1.448Z" transform="translate(1.445)"/></g><g transform="translate(174.031 -30.092)"><path class="a" d="M1.365,0l-2.81,3.074v.733H1.448V4.83h.8V3.807h.595V3.074H2.249V0Zm.084.9V3.074H-.541Z" transform="translate(1.445)"/></g><g class="b" transform="translate(0 -56.244)"><g transform="translate(180.423 26.034)"><path class="a" d="M.674.987h.679C2.041.987,2.48.855,2.48.351c0-.474-.459-.64-1.083-.64C.425-.289.2.178.2.326h-.8c0-.334.239-1.371,1.993-1.371,1.252,0,1.938.539,1.938,1.371a1.042,1.042,0,0,1-.653,1.009A1.2,1.2,0,0,1,3.443,2.5c0,.832-.694,1.522-2.045,1.522C-.378,4.024-.687,2.987-.714,2.49H.14c.07.366.416.776,1.18.776.7,0,1.26-.237,1.274-.861.008-.307-.235-.659-1.052-.659H.674Z" transform="translate(0.714 1.045)"/></g><g transform="translate(180.423 26.034)"><path class="a" d="M.674.987h.679C2.041.987,2.48.855,2.48.351c0-.474-.459-.64-1.083-.64C.425-.289.2.178.2.326h-.8c0-.334.239-1.371,1.993-1.371,1.252,0,1.938.539,1.938,1.371a1.042,1.042,0,0,1-.653,1.009A1.2,1.2,0,0,1,3.443,2.5c0,.832-.694,1.522-2.045,1.522C-.378,4.024-.687,2.987-.714,2.49H.14c.07.366.416.776,1.18.776.7,0,1.26-.237,1.274-.861.008-.307-.235-.659-1.052-.659H.674Z" transform="translate(0.714 1.045)"/></g></g><g class="q" transform="translate(180.422 -30.21)"><g transform="translate(-2.458 -2.017)"><path class="a" d="M1.959,0,7,3.937,2.965,9.1l-5.04-3.939Z" transform="translate(2.075)"/></g></g><g class="b" transform="translate(0 -56.244)"><g transform="translate(25.227 42.867)"><path class="a" d="M4.324,9.062c-3.146,0-5.051-3.513-5.051-8.5s1.905-8.5,5.051-8.5S9.373-4.43,9.373.559s-1.905,8.5-5.049,8.5M4.3-9.6C-.6-9.6-4.579-5.064-4.579.528S-.6,10.652,4.3,10.652,13.192,6.12,13.192.528,9.214-9.6,4.3-9.6" transform="translate(4.579 9.596)"/></g><g transform="translate(63.312 43.272)"><path class="a" d="M7.211,0-6.238,0a.548.548,0,0,0-.636.509c-.029.134-.684,3.3-.762,3.671.167-.156,2.306-2.012,2.46-2.148a.7.7,0,0,1,.574-.2l3.428,0V17.541S-2.96,19.176-3.2,19.4H4.191L2.167,17.541V1.827h3.4a.773.773,0,0,1,.63.21c.093.076,2.133,1.763,2.423,2.008C8.587,3.893,7.913.827,7.837.508A.572.572,0,0,0,7.211,0" transform="translate(7.636 0.001)"/></g><g transform="translate(-0.001 43.261)"><path class="a" d="M9.148.915,11.1-.969l-4.334,0a1.083,1.083,0,0,0-1.1.811C5.5.242,2.28,7.526,1.545,9.209,1.267,8.568-2.334.483-2.635-.162c-.241-.519-.4-.807-1.137-.807H-8.264C-7.97-.726-6.656.555-6.255.925-6.288,1.45-7.55,15.472-7.642,16.6l-2.045,1.861h6.173L-5.53,16.6c.025-.292,1.073-12.113,1.1-12.63C-4.274,4.364.5,15,.593,15.212a.377.377,0,0,0,.7,0c.062-.152,4.581-10.6,4.841-11.244.064.55,1.011,12.119,1.042,12.613L5.14,18.464h7.373L10.485,16.58C10.452,16.147,9.229,1.821,9.148.915" transform="translate(9.687 0.969)"/></g><g transform="translate(46.225 39.384)"><path class="a" d="M5.053,10.445H0v-7.4H4c.052.039,1.828,1.474,1.985,1.608V-.435L4.009,1.18H.017s0-6.379,0-6.527H4.7a.967.967,0,0,1,.653.177c.064.043,2.434,1.763,2.526,1.833-.021-.07-1.081-3.22-1.143-3.41-.113-.34-.227-.437-.731-.437H-5.351s1.9,1.727,2.03,1.841c0,.07,0,15.506,0,15.726l-2.024,1.861H7.007a.612.612,0,0,0,.681-.449c.027-.089,1.126-3.525,1.186-3.71-.06.041-2.815,2-3.021,2.133a1.234,1.234,0,0,1-.8.227M-.527-8.32A1.392,1.392,0,0,0,.884-9.688,1.392,1.392,0,0,0-.527-11.061,1.392,1.392,0,0,0-1.939-9.688,1.392,1.392,0,0,0-.527-8.32m4.18,0A1.389,1.389,0,0,0,5.061-9.688a1.39,1.39,0,0,0-1.408-1.373,1.391,1.391,0,0,0-1.41,1.373A1.39,1.39,0,0,0,3.653-8.32" transform="translate(5.351 11.061)"/></g><g transform="translate(129.162 43.268)"><path class="a" d="M4.891,0S6.856,1.777,6.922,1.832V8.207H.156V1.833S1.768.381,2.182,0H-5.179s1.707,1.526,2.036,1.828V17.561s-1.614,1.478-2.036,1.857H2.178L.152,17.565V10.143h6.77v7.414S5.235,19.116,4.9,19.422l7.332,0s-1.785-1.633-2.01-1.851c0,0-.006-15.208-.006-15.733,0,0,1.767-1.612,2.016-1.833H4.891" transform="translate(5.179)"/></g><g transform="translate(109.537 42.816)"><path class="a" d="M4.323.8C7.605.8,8.742,4.528,8.978,5.759,9.369,4.946,11.231.906,11.389.511c-.261.08-1.363.367-1.948.478A7.748,7.748,0,0,0,4.307-.852C-.6-.852-4.578,3.68-4.578,9.274S-1.049,19.4,4.16,19.4c4.007,0,6.364-2.442,6.43-4.8A2.454,2.454,0,0,0,9.137,12.12c-.216,2.432-1.573,5.65-4.851,5.65C1.142,17.771-.73,14.294-.73,9.3S1.177.8,4.323.8" transform="translate(4.578 0.852)"/></g><g transform="translate(211.35 42.867)"><path class="a" d="M4.322,9.062C1.178,9.062-.84,5.548-.84.559s2.018-8.5,5.162-8.5S9.484-4.43,9.484.559s-2.018,8.5-5.162,8.5M4.307-9.6C-.6-9.6-4.577-5.064-4.577.528S-.6,10.652,4.307,10.652,13.19,6.12,13.19.528,9.212-9.6,4.307-9.6" transform="translate(4.577 9.596)"/></g><g transform="translate(87.05 46.655)"><path class="a" d="M3.1,7.085A3.432,3.432,0,0,1-.5,3.414,3.413,3.413,0,0,1,.567.762,56.048,56.048,0,0,0,5.173,6.519,3.742,3.742,0,0,1,3.1,7.085M8,5.835A5.754,5.754,0,0,0,9.608,2a3.268,3.268,0,0,0-1.182-2.7.644.644,0,0,0-.96.119C7.389-.5,6.781.154,6.361.636A2.418,2.418,0,0,1,7.947,2.9a2.811,2.811,0,0,1-.71,2.034C6.207,3.811.87-1.954.87-4.575A1.737,1.737,0,0,1,2.554-6.48,1.846,1.846,0,0,1,4.3-4.52a3.081,3.081,0,0,1-1.59,2.852c.121.185.346.525.486.719,1-.463,3.327-1.386,3.327-3.589C6.52-5.848,5.237-7.5,2.633-7.5.9-7.5-1.436-6.132-1.436-3.8a7.18,7.18,0,0,0,1.4,3.57C-1.172.43-3.287,1.948-3.287,4.386c0,2.59,2.228,4.449,5.1,4.449a6.375,6.375,0,0,0,4.3-1.31,15.045,15.045,0,0,0,1.244,1.2c.3,0,3.5.017,3.879.017.1-.142.6-.723.782-.986C9.928,7.931,9.122,7.038,8,5.835" transform="translate(3.287 7.503)"/></g></g><g transform="translate(149.067 -12.976)"><path class="a" d="M3.019,5.582,5.325-2,7.7,5.586ZM7.528-5.911H4.39L-1.136,11.656-3.2,13.509H3.089L1.158,11.683,2.545,7.058l2.845.692,2.765-.692,1.429,4.626L7.73,13.509H15.2l-2.071-1.853Z" transform="translate(3.197 5.911)"/></g><g class="b" transform="translate(0 -56.244)"><g transform="translate(169.489 43.273)"><path class="a" d="M6.139.891V10.58S-1.084-.23-1.22-.417A1.21,1.21,0,0,0-2.3-.944l-4.19,0L-4.471.9V16.6L-6.5,18.48H-.31L-2.346,16.6V3.86L7.44,18.608a.457.457,0,0,0,.832-.2V.891L10.3-.942l-6.191,0Z" transform="translate(6.501 0.944)"/></g><g transform="translate(232.511 43.272)"><path class="a" d="M5.153,0,7.185,1.835v9.688S-.042.714-.174.529A1.206,1.206,0,0,0-1.255,0L-5.44,0l2.014,1.839V17.547l-2.032,1.876H.734L-1.3,17.547V4.8L8.488,19.552a.457.457,0,0,0,.832-.2V1.835L11.352,0Z" transform="translate(5.457 0)"/></g><g transform="translate(190.108 43.274)"><path class="a" d="M3.849,8.6a25.1,25.1,0,0,1-2.52-.037c0-.558-.01-15.891-.01-15.891.663-.07,2.137-.062,2.419-.062,2.833,0,5.51,2.246,5.51,8.011,0,5.823-2.469,7.979-5.4,7.979M6.326-8.713A10.205,10.205,0,0,0,3.34-9.108H-4.053l2,1.833V8.507l-2.028,1.818H3.417A11.738,11.738,0,0,0,6.7,9.9,9.4,9.4,0,0,0,12.972.874c0-3.928-2.215-8.263-6.646-9.587" transform="translate(4.076 9.108)"/></g><g transform="translate(111.461 30.639)"><path class="a" d="M13.239.5H-13.5a.515.515,0,0,1-.519-.517A.517.517,0,0,1-13.5-.533h26.75a.518.518,0,0,1,.521.519.518.518,0,0,1-.521.519Z" transform="translate(14.02 0.533)"/></g><g transform="translate(111.461 30.639)"><path class="a" d="M13.239.5H-13.5a.515.515,0,0,1-.519-.517A.517.517,0,0,1-13.5-.533h26.75a.518.518,0,0,1,.521.519.518.518,0,0,1-.521.519Z" transform="translate(14.02 0.533)"/></g></g><g class="r" transform="translate(111.459 -25.606)"><path class="a" d="M57.327-40.486h27.79v1.038H57.327Z" transform="translate(-57.325 40.486)"/></g><g class="b" transform="translate(0 -56.244)"><g transform="translate(111.461 25.484)"><path class="a" d="M13.239.505h.01a.519.519,0,0,0,.521-.519.518.518,0,0,0-.521-.519h-.01l-26.728,0H-13.5a.518.518,0,0,0-.519.521A.518.518,0,0,0-13.5.505Z" transform="translate(14.02 0.535)"/></g><g transform="translate(111.461 25.484)"><path class="a" d="M13.239.505h.01a.519.519,0,0,0,.521-.519.518.518,0,0,0-.521-.519h-.01l-26.728,0H-13.5a.518.518,0,0,0-.519.521A.518.518,0,0,0-13.5.505Z" transform="translate(14.02 0.535)"/></g></g><g class="s" transform="translate(111.459 -30.76)"><path class="a" d="M57.327-43.137h27.79v1.04H57.327Z" transform="translate(-57.325 43.137)"/></g><g class="b" transform="translate(0 -56.244)"><g transform="translate(117.188 10.657)"><path class="a" d="M4.406,2.19a3.208,3.208,0,0,1,.8.016A5.94,5.94,0,0,0,5.2-1.376a4.6,4.6,0,0,0,1.61.243l.356.008c1.007.017,2.565-.051,3.366,1.135a2.993,2.993,0,0,1-.012,2.821,3.07,3.07,0,0,0-.315,1.4,1.4,1.4,0,0,1,.659.471,3.466,3.466,0,0,1,.41-1.746,3.445,3.445,0,0,0-.056-3.313C10.155-1.946,8.24-1.847,7.007-1.874H6.914a5.615,5.615,0,0,1-2.39-.443l-.331,0A6.435,6.435,0,0,1,4.406,2.19M-3.852,4.7a1.393,1.393,0,0,1,.659-.471,3.11,3.11,0,0,0-.313-1.4A2.961,2.961,0,0,1-3.516.01c.8-1.186,2.349-1.12,3.36-1.135L.2-1.133a4.671,4.671,0,0,0,1.614-.243A5.955,5.955,0,0,0,1.8,2.205a3.239,3.239,0,0,1,.809-.016,6.4,6.4,0,0,1,.21-4.509l-.331,0A5.638,5.638,0,0,1,.1-1.874h-.1c-1.231.027-3.148-.072-4.213,1.519a3.461,3.461,0,0,0-.056,3.313A3.426,3.426,0,0,1-3.852,4.7" transform="translate(4.665 2.319)"/></g><g transform="translate(117.188 10.657)"><path class="a" d="M4.406,2.19a3.208,3.208,0,0,1,.8.016A5.94,5.94,0,0,0,5.2-1.376a4.6,4.6,0,0,0,1.61.243l.356.008c1.007.017,2.565-.051,3.366,1.135a2.993,2.993,0,0,1-.012,2.821,3.07,3.07,0,0,0-.315,1.4,1.4,1.4,0,0,1,.659.471,3.466,3.466,0,0,1,.41-1.746,3.445,3.445,0,0,0-.056-3.313C10.155-1.946,8.24-1.847,7.007-1.874H6.914a5.615,5.615,0,0,1-2.39-.443l-.331,0A6.435,6.435,0,0,1,4.406,2.19M-3.852,4.7a1.393,1.393,0,0,1,.659-.471,3.11,3.11,0,0,0-.313-1.4A2.961,2.961,0,0,1-3.516.01c.8-1.186,2.349-1.12,3.36-1.135L.2-1.133a4.671,4.671,0,0,0,1.614-.243A5.955,5.955,0,0,0,1.8,2.205a3.239,3.239,0,0,1,.809-.016,6.4,6.4,0,0,1,.21-4.509l-.331,0A5.638,5.638,0,0,1,.1-1.874h-.1c-1.231.027-3.148-.072-4.213,1.519a3.461,3.461,0,0,0-.056,3.313A3.426,3.426,0,0,1-3.852,4.7" transform="translate(4.665 2.319)"/></g></g><g class="t" transform="translate(117.187 -45.589)"><path class="a" d="M60.1-50.763H77.121v7.025H60.1Z" transform="translate(-60.435 50.765)"/></g><g class="b" transform="translate(0 -56.244)"><g transform="translate(109.781 12.948)"><path class="a" d="M2.161.391l.056-.01a1.092,1.092,0,0,1,.3-.8,5.723,5.723,0,0,0-3.63,1.522C-2.826,2.784-2.292,5.3-1.831,6.725a2.462,2.462,0,0,0,.1.286.958.958,0,0,1,.626-.661c-.031-.087-.035-.1-.121-.381A6.831,6.831,0,0,1-1.5,4.062,3.752,3.752,0,0,1,2.161.391m25.529.717A5.727,5.727,0,0,0,24.062-.414a1.087,1.087,0,0,1,.3.8l.054.01a3.753,3.753,0,0,1,3.659,3.671,6.828,6.828,0,0,1-.27,1.905c-.087.276-.091.294-.121.381a.939.939,0,0,1,.632.661c.064-.179.006-.008.1-.286.459-1.423.994-3.941-.723-5.617" transform="translate(2.288 0.414)"/></g><g transform="translate(109.781 12.948)"><path class="a" d="M2.161.391l.056-.01a1.092,1.092,0,0,1,.3-.8,5.723,5.723,0,0,0-3.63,1.522C-2.826,2.784-2.292,5.3-1.831,6.725a2.462,2.462,0,0,0,.1.286.958.958,0,0,1,.626-.661c-.031-.087-.035-.1-.121-.381A6.831,6.831,0,0,1-1.5,4.062,3.752,3.752,0,0,1,2.161.391m25.529.717A5.727,5.727,0,0,0,24.062-.414a1.087,1.087,0,0,1,.3.8l.054.01a3.753,3.753,0,0,1,3.659,3.671,6.828,6.828,0,0,1-.27,1.905c-.087.276-.091.294-.121.381a.939.939,0,0,1,.632.661c.064-.179.006-.008.1-.286.459-1.423.994-3.941-.723-5.617" transform="translate(2.288 0.414)"/></g></g><g class="u" transform="translate(109.782 -43.297)"><path class="a" d="M56.186-49.585H88.421v7.425H56.186Z" transform="translate(-56.725 49.585)"/></g><g class="b" transform="translate(0 -56.244)"><g transform="translate(107.333 11.124)"><path class="a" d="M.917,2.819a.945.945,0,0,1-.945.947.943.943,0,0,1-.943-.947.941.941,0,0,1,.943-.943.943.943,0,0,1,.945.943M1.2,5.012A.851.851,0,0,0,.349,4.16a.85.85,0,1,0,0,1.7A.849.849,0,0,0,1.2,5.012M1.572.624a.858.858,0,0,0-1.717,0,.858.858,0,1,0,1.717,0M2.984-.926a.808.808,0,0,0-.809-.807.809.809,0,0,0-.811.807.81.81,0,0,0,.811.809.808.808,0,0,0,.809-.809m1.791-.881A.775.775,0,0,0,4-2.584a.78.78,0,0,0-.782.778A.781.781,0,0,0,4-1.027a.776.776,0,0,0,.776-.78m1.88-.436a.746.746,0,0,0-.747-.743.745.745,0,0,0-.743.743.741.741,0,0,0,.743.741.742.742,0,0,0,.747-.741" transform="translate(0.971 2.985)"/></g><g transform="translate(107.333 11.124)"><path class="a" d="M.917,2.819a.945.945,0,0,1-.945.947.943.943,0,0,1-.943-.947.941.941,0,0,1,.943-.943.943.943,0,0,1,.945.943M1.2,5.012A.851.851,0,0,0,.349,4.16a.85.85,0,1,0,0,1.7A.849.849,0,0,0,1.2,5.012M1.572.624a.858.858,0,0,0-1.717,0,.858.858,0,1,0,1.717,0M2.984-.926a.808.808,0,0,0-.809-.807.809.809,0,0,0-.811.807.81.81,0,0,0,.811.809.808.808,0,0,0,.809-.809m1.791-.881A.775.775,0,0,0,4-2.584a.78.78,0,0,0-.782.778A.781.781,0,0,0,4-1.027a.776.776,0,0,0,.776-.78m1.88-.436a.746.746,0,0,0-.747-.743.745.745,0,0,0-.743.743.741.741,0,0,0,.743.741.742.742,0,0,0,.747-.741" transform="translate(0.971 2.985)"/></g></g><g class="v" transform="translate(107.334 -45.119)"><path class="a" d="M55.2-50.522h7.624v8.845H55.2Z" transform="translate(-55.204 50.522)"/></g><g class="b" transform="translate(0 -56.244)"><g transform="translate(135.765 11.126)"><path class="a" d="M3.459,2.887c0,.008.008.012.016.012s.016,0,.016-.012a.014.014,0,0,0-.016-.014.015.015,0,0,0-.016.014M2.607.355c0,.023.014.045.029.045s.029-.021.029-.045S2.656.309,2.637.309,2.607.33,2.607.355M-1.33-2.219a.029.029,0,0,0,.029.031.03.03,0,0,0,.025-.031A.026.026,0,0,0-1.3-2.246a.026.026,0,0,0-.029.027m3.4,4.966A.944.944,0,1,0,3.018,1.8a.943.943,0,0,0-.943.945M1.787,4.938a.854.854,0,1,0,.854-.854.854.854,0,0,0-.854.854M1.417.55a.859.859,0,1,0,.857-.857A.86.86,0,0,0,1.417.55M.008-1a.805.805,0,0,0,.807.809A.808.808,0,0,0,1.624-1a.809.809,0,0,0-.809-.807A.806.806,0,0,0,.008-1m-1.793-.881a.776.776,0,0,0,.774.78.777.777,0,0,0,.78-.78.775.775,0,0,0-.78-.778.774.774,0,0,0-.774.778m-1.878-.434a.736.736,0,0,0,.741.739.74.74,0,0,0,.747-.739.744.744,0,0,0-.745-.743.741.741,0,0,0-.743.743m4.6,1.007a.027.027,0,0,0,.029.027c.016,0,.023-.012.023-.027S.978-1.336.963-1.336a.028.028,0,0,0-.029.029" transform="translate(3.663 3.057)"/></g><g transform="translate(135.765 11.126)"><path class="a" d="M3.459,2.887c0,.008.008.012.016.012s.016,0,.016-.012a.014.014,0,0,0-.016-.014.015.015,0,0,0-.016.014M2.607.355c0,.023.014.045.029.045s.029-.021.029-.045S2.656.309,2.637.309,2.607.33,2.607.355M-1.33-2.219a.029.029,0,0,0,.029.031.03.03,0,0,0,.025-.031A.026.026,0,0,0-1.3-2.246a.026.026,0,0,0-.029.027m3.4,4.966A.944.944,0,1,0,3.018,1.8a.943.943,0,0,0-.943.945M1.787,4.938a.854.854,0,1,0,.854-.854.854.854,0,0,0-.854.854M1.417.55a.859.859,0,1,0,.857-.857A.86.86,0,0,0,1.417.55M.008-1a.805.805,0,0,0,.807.809A.808.808,0,0,0,1.624-1a.809.809,0,0,0-.809-.807A.806.806,0,0,0,.008-1m-1.793-.881a.776.776,0,0,0,.774.78.777.777,0,0,0,.78-.78.775.775,0,0,0-.78-.778.774.774,0,0,0-.774.778m-1.878-.434a.736.736,0,0,0,.741.739.74.74,0,0,0,.747-.739.744.744,0,0,0-.745-.743.741.741,0,0,0-.743.743m4.6,1.007a.027.027,0,0,0,.029.027c.016,0,.023-.012.023-.027S.978-1.336.963-1.336a.028.028,0,0,0-.029.029" transform="translate(3.663 3.057)"/></g></g><g class="w" transform="translate(135.765 -45.117)"><path class="a" d="M77.453-41.677H69.827v-8.845h7.626Z" transform="translate(-69.827 50.52)"/></g><g class="b" transform="translate(0 -56.244)"><g transform="translate(114.916 9.468)"><path class="a" d="M3.854.544a.508.508,0,0,0,.513-.5.508.508,0,0,0-.513-.5.511.511,0,0,0-.515.5.511.511,0,0,0,.515.5M-2.631,6.606a.858.858,0,0,0,.5-1.114.862.862,0,0,0-1.095-.535.867.867,0,0,0-.506,1.114.87.87,0,0,0,1.1.535m.313-2.835A.881.881,0,0,0-3.2,2.893a.882.882,0,0,0-.883.879.883.883,0,0,0,.883.883.882.882,0,0,0,.881-.883m.7-1.874a.838.838,0,0,0-.84-.84.839.839,0,0,0-.84.84.841.841,0,0,0,.84.84.84.84,0,0,0,.84-.84M-.2.633a.8.8,0,0,0-.8-.8.8.8,0,0,0-.807.8.806.806,0,0,0,.807.8.8.8,0,0,0,.8-.8M1.419.155a.692.692,0,0,0-.694-.69.691.691,0,1,0,.694.69M3.01.044a.621.621,0,0,0-.62-.62.623.623,0,0,0-.624.62A.621.621,0,0,0,2.39.663.619.619,0,0,0,3.01.044" transform="translate(4.081 0.576)"/></g><g transform="translate(114.916 9.468)"><path class="a" d="M3.854.544a.508.508,0,0,0,.513-.5.508.508,0,0,0-.513-.5.511.511,0,0,0-.515.5.511.511,0,0,0,.515.5M-2.631,6.606a.858.858,0,0,0,.5-1.114.862.862,0,0,0-1.095-.535.867.867,0,0,0-.506,1.114.87.87,0,0,0,1.1.535m.313-2.835A.881.881,0,0,0-3.2,2.893a.882.882,0,0,0-.883.879.883.883,0,0,0,.883.883.882.882,0,0,0,.881-.883m.7-1.874a.838.838,0,0,0-.84-.84.839.839,0,0,0-.84.84.841.841,0,0,0,.84.84.84.84,0,0,0,.84-.84M-.2.633a.8.8,0,0,0-.8-.8.8.8,0,0,0-.807.8.806.806,0,0,0,.807.8.8.8,0,0,0,.8-.8M1.419.155a.692.692,0,0,0-.694-.69.691.691,0,1,0,.694.69M3.01.044a.621.621,0,0,0-.62-.62.623.623,0,0,0-.624.62A.621.621,0,0,0,2.39.663.619.619,0,0,0,3.01.044" transform="translate(4.081 0.576)"/></g></g><g class="x" transform="translate(114.916 -46.777)"><path class="a" d="M59.1-51.375H67.55v7.342H59.1Z" transform="translate(-59.104 51.375)"/></g><g class="b" transform="translate(0 -56.244)"><g transform="translate(127.346 9.467)"><path class="a" d="M0,.3A.509.509,0,0,0,.515.8.51.51,0,0,0,1.03.3.511.511,0,0,0,.515-.2.509.509,0,0,0,0,.3M7.013,6.867a.877.877,0,1,0-.5-1.116.869.869,0,0,0,.5,1.116M6.7,4.034a.882.882,0,1,0,.881-.881.88.88,0,0,0-.881.881M6,2.156a.84.84,0,1,0,.84-.84.84.84,0,0,0-.84.84M4.585.9a.8.8,0,1,0,.8-.8.8.8,0,0,0-.8.8M2.969.416a.689.689,0,1,0,.684-.692.689.689,0,0,0-.684.692M1.375.3a.621.621,0,1,0,.618-.62A.619.619,0,0,0,1.375.3" transform="translate(0 0.317)"/></g><g transform="translate(127.346 9.467)"><path class="a" d="M0,.3A.509.509,0,0,0,.515.8.51.51,0,0,0,1.03.3.511.511,0,0,0,.515-.2.509.509,0,0,0,0,.3M7.013,6.867a.877.877,0,1,0-.5-1.116.869.869,0,0,0,.5,1.116M6.7,4.034a.882.882,0,1,0,.881-.881.88.88,0,0,0-.881.881M6,2.156a.84.84,0,1,0,.84-.84.84.84,0,0,0-.84.84M4.585.9a.8.8,0,1,0,.8-.8.8.8,0,0,0-.8.8M2.969.416a.689.689,0,1,0,.684-.692.689.689,0,0,0-.684.692M1.375.3a.621.621,0,1,0,.618-.62A.619.619,0,0,0,1.375.3" transform="translate(0 0.317)"/></g></g><g class="y" transform="translate(127.346 -46.777)"><path class="a" d="M65.5-51.375h8.464v7.342H65.5Z" transform="translate(-65.497 51.375)"/></g><g class="b" transform="translate(0 -56.244)"><g transform="translate(124.606 10.69)"><path class="a" d="M.687.981A.662.662,0,0,0,.024.32.661.661,0,0,0-.635.981a.662.662,0,0,0,.659.659A.663.663,0,0,0,.687.981m.1,1.7a.761.761,0,0,0-.76-.76.758.758,0,0,0-.758.76.757.757,0,0,0,.758.76.759.759,0,0,0,.76-.76M.565-.5a.539.539,0,0,0-.541-.539A.537.537,0,0,0-.514-.5.54.54,0,0,0,.024.04.542.542,0,0,0,.565-.5" transform="translate(0.728 1.039)"/></g><g transform="translate(124.606 10.69)"><path class="a" d="M.687.981A.662.662,0,0,0,.024.32.661.661,0,0,0-.635.981a.662.662,0,0,0,.659.659A.663.663,0,0,0,.687.981m.1,1.7a.761.761,0,0,0-.76-.76.758.758,0,0,0-.758.76.757.757,0,0,0,.758.76.759.759,0,0,0,.76-.76M.565-.5a.539.539,0,0,0-.541-.539A.537.537,0,0,0-.514-.5.54.54,0,0,0,.024.04.542.542,0,0,0,.565-.5" transform="translate(0.728 1.039)"/></g></g><g class="z" transform="translate(124.605 -45.556)"><path class="a" d="M64.088-50.746h1.519v4.482H64.088Z" transform="translate(-64.086 50.748)"/></g><g transform="translate(123.393 -56.243)"><path class="a" d="M.5,0,.914,1.635-.527,1.165V3.084L.91,2.67V4.421H1.962V2.67l1.447.414V1.165l-1.441.471L2.382,0Z" transform="translate(0.527)"/></g><g transform="translate(123.393 -56.243)"><path class="a" d="M.5,0,.914,1.635-.527,1.165V3.084L.91,2.67V4.421H1.962V2.67l1.447.414V1.165l-1.441.471L2.382,0Z" transform="translate(0.527)"/></g><g transform="translate(123.393 -56.243)"><path class="a" d="M.5,0,.914,1.635-.527,1.165V3.084L.91,2.67V4.421H1.962V2.67l1.447.414V1.165l-1.441.471L2.382,0Z" transform="translate(0.527)"/></g><g class="b" transform="translate(0 -56.244)"><g transform="translate(122.541 4.422)"><path class="a" d="M1.112,0V2.213a13.889,13.889,0,0,0-2.29.28A2.822,2.822,0,0,1,1.112,0" transform="translate(1.178)"/></g><g transform="translate(122.541 4.422)"><path class="a" d="M1.112,0V2.213a13.889,13.889,0,0,0-2.29.28A2.822,2.822,0,0,1,1.112,0" transform="translate(1.178)"/></g></g><g class="aa" transform="translate(122.542 -51.821)"><path class="a" d="M63.026-53.97h2.29v2.493h-2.29Z" transform="translate(-63.026 53.968)"/></g><g class="b" transform="translate(0 -56.244)"><g transform="translate(125.883 4.424)"><path class="a" d="M0,0A2.829,2.829,0,0,1,2.292,2.491,13.434,13.434,0,0,0,0,2.211Z"/></g><g transform="translate(125.883 4.424)"><path class="a" d="M0,0A2.829,2.829,0,0,1,2.292,2.491,13.434,13.434,0,0,0,0,2.211Z"/></g></g><g class="ab" transform="translate(125.882 -51.821)"><path class="a" d="M67.036-51.477H64.744v-2.491h2.292Z" transform="translate(-64.744 53.97)"/></g><g class="b" transform="translate(0 -56.244)"><g transform="translate(122.602 7.557)"><path class="a" d="M2.676.146A2.836,2.836,0,0,1-.081,2.326,2.831,2.831,0,0,1-2.834.146a12.736,12.736,0,0,1,2.753-.3,12.758,12.758,0,0,1,2.757.3" transform="translate(2.834 0.155)"/></g><g transform="translate(122.602 7.557)"><path class="a" d="M2.676.146A2.836,2.836,0,0,1-.081,2.326,2.831,2.831,0,0,1-2.834.146a12.736,12.736,0,0,1,2.753-.3,12.758,12.758,0,0,1,2.757.3" transform="translate(2.834 0.155)"/></g></g><g class="ac" transform="translate(122.602 -48.686)"><path class="a" d="M63.057-52.357h5.51v2.481h-5.51Z" transform="translate(-63.057 52.357)"/></g><g class="b" transform="translate(0 -56.244)"><g transform="translate(112.187 27.027)"><path class="a" d="M0,0V3.111H26.351V0ZM2.559,2.166H.787V.962H2.559Zm2.889.165-1.59-.766L5.448.8l1.592.76Zm3.6.045a.836.836,0,0,1-.857-.811.864.864,0,0,1,1.725,0,.836.836,0,0,1-.867.811m5.9-.21H11.405V.964h3.541Zm2.353.21a.837.837,0,0,1-.861-.811.864.864,0,0,1,1.725,0,.843.843,0,0,1-.863.811m3.628-.045-1.6-.766,1.6-.76,1.59.76Zm4.639-.165H23.791V.964h1.775Z"/></g><g transform="translate(112.187 27.027)"><path class="a" d="M0,0V3.111H26.351V0ZM2.559,2.166H.787V.962H2.559Zm2.889.165-1.59-.766L5.448.8l1.592.76Zm3.6.045a.836.836,0,0,1-.857-.811.864.864,0,0,1,1.725,0,.836.836,0,0,1-.867.811m5.9-.21H11.405V.964h3.541Zm2.353.21a.837.837,0,0,1-.861-.811.864.864,0,0,1,1.725,0,.843.843,0,0,1-.863.811m3.628-.045-1.6-.766,1.6-.76,1.59.76Zm4.639-.165H23.791V.964h1.775Z"/></g></g><g class="ad" transform="translate(112.189 -29.216)"><path class="a" d="M57.7-42.343H84.051v3.111H57.7Z" transform="translate(-57.702 42.343)"/></g></g></svg>