<svg xmlns="http://www.w3.org/2000/svg" xmlns:xlink="http://www.w3.org/1999/xlink" width="144.975" height="84.272" viewBox="0 0 144.975 84.272"><defs><style>.a,.c{fill:none;}.b{clip-path:url(#a);}.c{stroke:#2b2e34;stroke-width:0.175px;}.d{fill:#2b2e34;}</style><clipPath id="a"><path class="a" d="M0,43.479H144.975V-40.793H0Z" transform="translate(0 40.793)"/></clipPath></defs><g transform="translate(0 40.793)"><g class="b" transform="translate(0 -40.793)"><g transform="translate(50.389 0.179)"><path class="c" d="M22.3,11.153A21.616,21.616,0,1,1,.688-10.464,21.616,21.616,0,0,1,22.3,11.153Z" transform="translate(20.927 10.464)"/></g><g transform="translate(22.782 62.49)"><path class="d" d="M3.571,4.256h7.923S11.163.517,7.587.517,3.571,4.256,3.571,4.256M7.485-3.993c10.672,0,10.232,10.4,10.232,10.4V8.053H3.25a4.515,4.515,0,0,0,4.675,4.4A5.037,5.037,0,0,0,12,9.867L17.11,12.4A10.4,10.4,0,0,1,7.981,17.4C-3.131,17.4-3.35,8.162-3.35,7.008s.165-11,10.835-11" transform="translate(3.35 3.993)"/></g><g transform="translate(46.792 49.605)"><path class="d" d="M5.354,14.679h0C5.023,14.679.9,14.735.9,9.673a4.809,4.809,0,0,1,4.51-5.225s5.061.163,5.061,5.115-4.787,5.115-5.115,5.115m5.685-28.451V1.478a12.352,12.352,0,0,0-6.6-2.365c-3.52,0-9.46,2.475-9.46,10.286S.036,20.18,4.383,20.18a9.294,9.294,0,0,0,6.766-2.861V19.86h6.27V-13.772Z" transform="translate(5.023 13.772)"/></g><g transform="translate(104.12 63.535)"><path class="d" d="M0,0H6.38V11.275s.221,3.8,3.8,3.8,3.52-3.8,3.52-3.8V.054H20.13V11.662s.828,9.075-9.79,9.075S0,12.761,0,11.331Z" transform="translate(0)"/></g></g><path class="d" d="M61.9,16.851h6.3V-16.781H61.9Z" transform="translate(65.974 25.593)"/><path class="d" d="M67.167,16.851h6.218V-16.781H67.167Z" transform="translate(71.59 25.593)"/><g class="b" transform="translate(0 -40.793)"><g transform="translate(78.146 50.944)"><path class="d" d="M6.512,13.761H.544V-7.277h3.19S8.07-7.6,8.07-3.823A3.131,3.131,0,0,1,4.62-.375H2.635V5.293H6.51a4.05,4.05,0,0,1,4.254,4.218c0,3.723-4.252,4.249-4.252,4.249M11.875,1.825A8.652,8.652,0,0,0,14.79-4.739c0-4.3-3.121-8.172-9.769-8.172H-6.11V19.38H7.6s9.829-.109,9.829-8.991c0-5.156-2-7.131-5.555-8.565" transform="translate(6.11 12.911)"/></g><g transform="translate(0 50.255)"><path class="d" d="M0,0V32.981H6.656V6.293H9.79s4.9-.219,4.9,4.237-4.347,4.344-4.347,4.344H8.745v7.592L15.4,32.981h7.811L13.916,19.5a8.543,8.543,0,0,0,7.646-8.966C21.561,2.223,15.785,0,8.086,0Z" transform="translate(0 0)"/></g><g transform="translate(15.819 8.99)"><path class="d" d="M1.195,12.55c.236-.256.773-.5,1.1-.785s.467-.415.719-.258.576.37.446.692-.925,1.442-1.4,1.512a.834.834,0,0,1-.944-.475.814.814,0,0,1,.083-.686M-.474,14.186a3.308,3.308,0,0,0-.194,1.382c-.023.457-.485.523-.45.738s1.072.587,1.347.593.24-.2.335-.715.5-1.349.485-1.57c-.017-.341-.516-1-.884-.985-.159.006-.417.1-.638.558M36.25,6.931c-.01-.364.481-.762.775-1.911a3.8,3.8,0,0,0,0-2.169c-.153.025-.341.6-.446,1.231A5.144,5.144,0,0,1,35.513,6.44c-.624.446-1.489.258-2.109.845a4.978,4.978,0,0,0,.913,2.039c.7,1.237,1.419,1.638.564,3.937a2.58,2.58,0,0,0,1.264-1.9c.017-1.126-1.562-2.609-1.688-3.727A1.576,1.576,0,0,1,36,7.706c.14,1.328,1.669,2.3,1.547,3.8a5.463,5.463,0,0,1-1.688,2.531c-.38.18-1.3.186-1.768.339-1.353.446-3.576,1.523-4.444,1.56-1.549.066-1.768-1.171-2.636-2.144-.1-.116-.645.023-1.021,0s-.5-.634-.843-1.219-.622-.973-.446-1.209a4.32,4.32,0,0,1,2.578-.279c1.182.258,1.254,2.452,2.533,2.741,1.047.24,2.75-.583,2.882-1.4a2.611,2.611,0,0,0-.773-1.828c-.824-.9-2.632-1.5-3.235-2.533-.293-.5-.079-.849-.562-1.337-.649.318.1,1.113-.07,1.828-1.39.727-3.5-.393-5.485-.281-1.417.081-3.109.853-3.869-.211a4.589,4.589,0,0,1-.351-2.39c.035-.618.355-1.283,0-1.688-.76.973-.454,2.555-.845,3.8-.655,2.089-2.692,3.332-5.2,3.516-2.489.184-5,.407-5.908,2.741a2.911,2.911,0,0,0,.985-.7,6.7,6.7,0,0,1,4.008-1.477c2.69-.153,4.5-.264,5.836-1.9a11.7,11.7,0,0,1,.915-1.337c1.043.254.333,1.213.07,1.688-.308.562-.539,1.355-.985,1.688-.223.167-.762.25-1.194.494-.605.339-.959.8-1.758.913-1.467.2-2.851-.68-4.221-.07-.884.395-1.748,1.708-2.954,1.828-.556.056-1.056-.291-1.475-.211-.9.171-.907,1.655-1.9,2.039-.857.333-1.634-.093-2.533-.211A5.763,5.763,0,0,1,2.04,14.49c1.027.014,1.068-.752,1.7-1.347.605-.572,1.512-.738,1.958-1.5.434-.744.291-1.733,1.124-2.25,1.291.1,3.415-.552,3.516-1.477.081-.717-.729-1.618-.843-2.673a7.991,7.991,0,0,0-.163-2.3C4.711,4.845.821.742,2.672-2.913A8.707,8.707,0,0,1,4.5-4.954c.473-.421,1.977-1.256,1.9-1.9s-.93-.382-1.828-.492c-1.9-.233-3.6-2.444-2.531-4.431.574.143,1.089.833,1.969,1.2,1.938.806,4.667.3,4.64,3.024C8.628-5.3,5.44-4.228,4.43-2.632A2.788,2.788,0,0,0,7.314,1.657c3.076-.492,4.793-3.442,7.8-4.148a18.486,18.486,0,0,0,3.305-.632c1.636-.7,2.65-2.679,4.853-2.884a12.842,12.842,0,0,0,1.337-.07c.735-.192,1.339-1.035,1.969-1.547,1.221-1,3.409-1.37,4.923-2.109,1.556-.76,3.045-2.289,5.485-1.477,1.948.649,3.2,2.182,4.572,3.305A28.252,28.252,0,0,1,45.5-3.968a9.36,9.36,0,0,1,2.6,5.274,25.06,25.06,0,0,0,.7,3.235,15.145,15.145,0,0,0,.913,3.024c.186.349.771.676,1.056,1.054a20.07,20.07,0,0,0,1.547,2.392c.5.469,1.535.713,1.442,1.029s-1.076.236-1.607.035c-1.3-.492-1.956-1.886-2.46-2.636S48.346,8.278,48.288,8.4s.632.89.938,1.489a12.579,12.579,0,0,0,.843,1.9,3.287,3.287,0,0,0,1.2.915c.481.258,1.209.56,1.113.783s-.632.492-2.345-.083-1.851-1.768-2.6-1.711c-.434.033-1.149,1.161-1.969,1.2-.64.031-1.492-.079-2.252-.031a8.649,8.649,0,0,0-2.227.692c-1.206.446-2.074.048-2.1-.293A6.668,6.668,0,0,1,38.7,12.04c.132-.709.68-1.078.609-1.31-.1-.37-.55.217-.773-.07-.171-1.091.866-1.57,1.407-2.182.083-.806.932-1.812.851-1.909a6.222,6.222,0,0,0-2.258.291c-1.43.494-2.274.434-2.287.07M36.5-5.445c-1.132-.076-.151,1.111,0,1.407.411.808.4,1.942.773,2.46.68-1.085.161-3.8-.773-3.867m9.668,8.623c-.289-.264-.748-1.3-1.248-1.215s-.642,1.064-.923,1.5-.475,1.151-.122,1.1.632-.861,1.132-.87c.353,0,1.142.816,1.337,1.477.116.393-.1.909.281,1.126.589-.147.574-1.107.424-1.828a3.312,3.312,0,0,0-.88-1.293m-17.5,7.77c-.225.349.519.343.735,1.058s.4,1,.663,1.1,1.694-.326,1.57-.76-.328-.51-.364-.932-.211-.746-.527-.68c-.481.1-1.865-.118-2.078.213m16.1-.062c.372-.221.537-1.258-.008-1.3-.659-.05-1.655.985-1.421,1.341.184.283,1.1.153,1.43-.041" transform="translate(1.121 11.775)"/></g><g transform="translate(73.514 9.071)"><path class="d" d="M26,13.443c-.529-.364-.872-1.128-1.289-1.523a12.193,12.193,0,0,1-1.056-.857c-.374-.409-.5-2.3-.961-2.661-.527-.417-2.016.118-2.725-.913-.378-.552-.035-1.037.157-1.5a4.964,4.964,0,0,0,.213-2.52c-.054-.419-.308-.766-.231-1.19.192-.364.653-.1.94-.056a5.178,5.178,0,0,0,3.318-.269,3.9,3.9,0,0,0,2.279-3.566,7.761,7.761,0,0,0-3.1-4.968,2.166,2.166,0,0,1-.748-.882c-.126-.428.155-.525.463-.508a4.222,4.222,0,0,0,2.233-.667,3.4,3.4,0,0,0,1.293-3.506c-.039-.114-.081-.372-.308-.31s-.5.417-.764.572c-.75.44-1.756.4-2.541.783-.979.421-2.3,1.056-2.522,2.074a2.423,2.423,0,0,0,.246,1.653c1.188,1.878,3.683,3.039,4.086,5.3A2.193,2.193,0,0,1,23.9.081a3.683,3.683,0,0,1-3.562-.136c-2.072-1.035-3.876-2.762-6.1-3.471-1.4-.634-3.128-.479-4.373-1.458A10.408,10.408,0,0,0,7.007-6.673a14.162,14.162,0,0,1-2.225-.574A10.48,10.48,0,0,0,2.557-8.84,15.172,15.172,0,0,0-1.01-9.951c-.729-.174-1-.979-1.591-1.382A4.92,4.92,0,0,0-6.132-12.6a2.581,2.581,0,0,0-1.456.8c-2.936,2.57-6.29,4.336-8.976,7.27-1.8,1.861-2.367,4.2-2.954,6.5a37.764,37.764,0,0,1-1.8,5.811,8.907,8.907,0,0,1-1.917,2.619c-.686.527-1.126.721-1.159,1.037s.948.333,1.758.017,1-1.018,1.512-1.618S-19.75,8-19.5,8.121s-.153.69-.562,1.178c-.7.845-.448,1.039-.88,1.618-.667.9-1.651,1.4-1.615,1.882.023.335,1.615.3,2.69-.667s1.607-1.547,1.946-1.407c.581.242.959.959,1.611,1.093a10.126,10.126,0,0,1,2.148-.134c1.014.308,1.994.729,3.01,1.074.519-.019.9-.519,1.169-.94.211-.5-.1-1-.056-1.475.248-.155.535.037.8-.039a.449.449,0,0,0,.213-.345c-.192-.882-.979-1.535-1.229-2.361-.382-1.056-1.63-1.688-1.859-2.82.058-.076.153-.192.25-.114A6.331,6.331,0,0,0-9.294,6.2a13.621,13.621,0,0,0,2.32.1A.264.264,0,0,0-6.8,5.987a11.064,11.064,0,0,1-.826-2.13C-7.97,2.438-8.053.386-7.594.351s.2,1.465.574,2.684a5.287,5.287,0,0,0,.946,2.126c.448.523,1.4.969,1.632,1.368a1.414,1.414,0,0,1-.281,1.5c-.388.5-.868,1.217-1.2,1.711a1.487,1.487,0,0,0-.269.622c0,.188.045,1.324-.083,1.3a3.1,3.1,0,0,1-.424-2.016C-6.481,9.036-4.923,7.2-5.086,7a2.328,2.328,0,0,0-1.126-.434c-.2.01-.8,1.206-1.219,1.874a4.708,4.708,0,0,0-.762,1.779A8.077,8.077,0,0,0-7.84,11.5c.151.481.339,1.477.69,1.582s.9-.093,1.138,0c.562.223.539.539.926.75a20.925,20.925,0,0,0,2.227.657,9.549,9.549,0,0,0,2.087.552,1.89,1.89,0,0,0,1.83-1.713c.093-.44.219-.457.554-.473a.977.977,0,0,0,.818-.475c.184-.308.421-.589.694-1.072s.078-.616-.079-.7a9.753,9.753,0,0,0-2.252-.027c-.9.122-.952,1.18-1.335,1.793-.213.384-.5.442-.942.4-.921-.25-2-.269-2.417-1.266a.8.8,0,0,1,.07-.723c.748-.843,1.275-1.618,1.731-1.735A3.209,3.209,0,0,0-.023,7.441c.364-.973.457-.961.667-.948S.81,7.466.434,8.1c1.886.328,4-.651,5.989-.481a15.275,15.275,0,0,0,2.444.153A2.182,2.182,0,0,0,10.9,6.5c.469-1.142-.217-3.6.031-3.762s.773,2.022.948,3.535A5.736,5.736,0,0,0,13.11,9.123,4.287,4.287,0,0,0,16.9,10.689a5.432,5.432,0,0,1,4.361.948c1.347,1.021,1.206,1.314,1.1,1.361a13.957,13.957,0,0,0-2.743-1.677c-1.686-.539-3.386.316-5.063-.3a4.013,4.013,0,0,1-2.438-2.1c-.554-.779-.62-1.324-.9-1.347s-.353.246-.165,1.149a4.229,4.229,0,0,0,1.066,2.5c.692.562,1.946,1.465,2.661,1.419a10.947,10.947,0,0,1,2.919-.118c2.262.386,2.872,2.087,4.326,2.087,1.066,0,.785-.434,1.394-.421s1.031,1.688,2.285,1.793,1.675-.037,1.723-.153a4.82,4.82,0,0,0-.6-2.144s-.306.128-.833-.236m-39.962-3.361c-.157.221-.791.132-1.072,0-.45-.211-.467-1.054-.324-1.24s.756-.027,1.062.273.494.748.335.967m.44-6.6c-.045.4-.326.508-.6.262s-.229-.64-.7-.651-.438.3-.9.607a2.637,2.637,0,0,0-1.027,1.016c-.13.359-.1,1.1-.5,1.155s-.519-1.363.194-2.19,1.248-1.107,1.582-1.739.6-.651.861-.457a4.706,4.706,0,0,1,1.08,2M-5.683-7.381l-.083.161-.089.145-.605.562-.647.605A7.032,7.032,0,0,0-8.181-4.652a5.606,5.606,0,0,0-.51.928.186.186,0,0,1-.225.076l-.035-.01L-8.964-3.7a1.2,1.2,0,0,1-.062-.39,1.934,1.934,0,0,1,.035-.345l.122-.477.058-.217a6.69,6.69,0,0,1,2.256-2.8.786.786,0,0,1,.585-.087.381.381,0,0,1,.25.227.457.457,0,0,1,.07.238.437.437,0,0,1-.033.165l.045.017-.045-.017M29.8,15.585a2.582,2.582,0,0,1-1.45.51c-.217-.07-.149-.888-.395-1.512s-.413-1.012-.132-1.328.395-.43.659-.448.764.413.845.845-.027.956.192,1.229a.989.989,0,0,1,.281.7M-.42,10.3a7.922,7.922,0,0,1-.467,1.671c-.186.366-.694.242-1.039.2-.368-.143-.938-.182-1-.692a1.941,1.941,0,0,1,.407-1.3c.55-.081,1.182.041,1.731-.06A.281.281,0,0,1-.42,10.3m27.137,2.607c-.624-.087-1.425-1.458-1.442-1.731-.021-.308.519-.667.808-.632a5.262,5.262,0,0,1,1.663,1.44c.14.318-.4,1.012-1.029.923" transform="translate(24.39 12.612)"/></g></g></g></svg>