<svg xmlns="http://www.w3.org/2000/svg" width="23.655" height="23.586" viewBox="0 0 23.655 23.586">
  <path id="logo-linkedin" d="M26.39,4.5H6.264A1.754,1.754,0,0,0,4.5,6.2V26.381a1.744,1.744,0,0,0,1.764,1.7H26.391a1.744,1.744,0,0,0,1.764-1.7V6.2A1.754,1.754,0,0,0,26.39,4.5ZM11.507,24.616H8.039V13.371h3.469ZM9.812,11.8a2.04,2.04,0,0,1-2.04-1.991,1.971,1.971,0,0,1,2.04-2.04,2.04,2.04,0,0,1,0,4.07ZM24.685,24.547H21.256v-5.5c0-1.311,0-3.016-1.834-3.016s-2.109,1.439-2.109,2.888v5.569H13.8V13.371h3.272v1.479h.069a3.667,3.667,0,0,1,3.341-1.834c3.539,0,4.2,2.365,4.2,5.371Z" transform="translate(-4.5 -4.5)" fill="#333"/>
</svg>
