<svg xmlns="http://www.w3.org/2000/svg" width="27.599" height="19.319" viewBox="0 0 27.599 19.319">
  <path id="logo-youtube" d="M29.266,9.991a3.45,3.45,0,0,0-2.435-2.435c-2.148-.582-10.782-.582-10.782-.582s-8.634,0-10.782.582A3.45,3.45,0,0,0,2.832,9.991a35.61,35.61,0,0,0-.582,6.643,35.611,35.611,0,0,0,.582,6.644,3.45,3.45,0,0,0,2.435,2.435c2.149.582,10.782.582,10.782.582s8.634,0,10.782-.582a3.45,3.45,0,0,0,2.435-2.435,35.61,35.61,0,0,0,.582-6.644,35.61,35.61,0,0,0-.582-6.644ZM13.289,20.774V12.494l7.166,4.14Z" transform="translate(-2.249 -6.975)" fill="#333"/>
</svg>
