<svg xmlns="http://www.w3.org/2000/svg" width="25" height="24.118" viewBox="0 0 25 24.118">
  <g id="__TEMP__SVG__" transform="translate(0 -2.25)">
    <path id="Trazado_5" data-name="Trazado 5" d="M12.445,30.973a1.723,1.723,0,1,1-1.723-1.723A1.723,1.723,0,0,1,12.445,30.973Z" transform="translate(-2.109 -6.328)" fill="#fff"/>
    <path id="Trazado_6" data-name="Trazado 6" d="M28.2,30.973a1.723,1.723,0,1,1-1.723-1.723A1.723,1.723,0,0,1,28.2,30.973Z" transform="translate(-5.8 -6.328)" fill="#fff"/>
    <path id="Trazado_7" data-name="Trazado 7" d="M24.118,6.557H5.013L4.307,2.939a.861.861,0,0,0-.861-.689H0V3.973H2.739L6.029,20.51a.861.861,0,0,0,.861.689h15.5V19.477H7.6l-.706-3.445h15.5a.861.861,0,0,0,.861-.672l1.723-7.752a.861.861,0,0,0-.861-1.05Zm-2.412,7.752H6.563L5.357,8.279H23.04Z" transform="translate(0 0)" fill="#fff"/>
  </g>
</svg>
