<svg id="cloud-download" xmlns="http://www.w3.org/2000/svg" width="25.774" height="25.835" viewBox="0 0 25.774 25.835">
  <path id="Trazado_372" data-name="Trazado 372" d="M22.117,20.727h-.462V18.88h.462a4.159,4.159,0,0,0,.332-8.312h-.795l-.093-.757a6.465,6.465,0,0,0-12.819,0l-.018.757H7.93a4.159,4.159,0,0,0,.332,8.312h.462v1.847H8.262A6,6,0,0,1,7.062,8.85a8.312,8.312,0,0,1,16.255,0,6,6,0,0,1-1.2,11.877Z" transform="translate(-2.302 -2.281)"/>
  <path id="Trazado_373" data-name="Trazado 373" d="M17.916,26.99V15.75H16.069V26.99l-2.392-2.382-1.3,1.3,4.618,4.618,4.618-4.618-1.3-1.3Z" transform="translate(-4.106 -4.692)"/>
</svg>
