<svg xmlns="http://www.w3.org/2000/svg" xmlns:xlink="http://www.w3.org/1999/xlink" width="140.215" height="67.405" viewBox="0 0 140.215 67.405"><defs><style>.a{fill:none;}.b{mix-blend-mode:multiply;isolation:isolate;}.c{clip-path:url(#a);}.d{fill:#fff;}.e{fill:#333;}</style><clipPath id="a"><path class="a" d="M0,28.466H140.215V-38.939H0Z" transform="translate(0 38.939)"/></clipPath></defs><g class="b" transform="translate(0 38.939)"><g class="c" transform="translate(0 -38.939)"><g transform="translate(76.033 20.738)"><path class="d" d="M6.237,1.536C5.571.648,5.455-.922,4.1-1.062,2.791-1.416,1.486-1.795.161-2.1L-7.62-.834q-.457,2.1-.912,4.193L4.049,5Q5.69,6.1,7.331,7.188L15.9,8.1l4.011-1.459C15.755,5.3,11.5,4.231,7.458,2.559a4.466,4.466,0,0,1-1.22-1.023" transform="translate(8.532 2.101)"/></g><g transform="translate(35.016 0.001)"><path class="e" d="M30.015,12.373a2.451,2.451,0,0,0-1.047-.653c-.306-.145-.261-.445-.518-.531s-.722.45-1.078.339-.329-.781-.627-.879-.834.4-1.11.313-.334-.779-.6-.867-.831.415-1.106.331-.294-.774-.6-.876-.843.415-1.11.324-.3-.765-.6-.864-.841.405-1.115.315-.358-.789-.615-.872-.774.331-1.191.306c-2.889-.268-3.994-2.086-4.191-1.548s.6,1.807,1.6,2.24c.8.348,9.4,2.73,9.63,2.835s.763.351.57.665c-.3.4-1.141.005-1.354-.173s-.168-.244-.37-.3c-.462-.109-.717.731-1.2.62-.445-.1-.414-.992-.864-1.1-.5-.119-.724.725-1.2.615-.393-.088-.447-1-.869-1.1-.485-.118-.7.731-1.208.613-.433-.1-.409-.988-.862-1.1s-.77.715-1.2.618-.492-1.006-.874-1.1-.7.374-1.22.441c0,0-1.506.409-3.886-2.079S7.839,5.954,6.481,6.965c-2.216,1.651-3.592.559-3.994.069a.793.793,0,0,1,.023-1.08S3.215,7.041,4.1,7.06C5.528,7.1,6.6,5.154,9.052,5.12c3.1-.111,3.907.99,4.753,1.078A2.112,2.112,0,0,0,15.4,5.833h0c.44-.156.821.692,1.281.521.486-.183.132-1.039.656-1.236.49-.175.808.684,1.278.509.493-.18.178-1.059.653-1.231s.772.694,1.278.507.18-1.051.642-1.226c.478-.175.824.68,1.291.514.445-.159.19-1.07.653-1.236.481-.171.791.687,1.3.5.421-.147.189-1.058.623-1.224s.841.684,1.295.514c.424-.158.177-1.063.628-1.233.479-.173.848.672,1.3.512s.107-.891.692-1.182c0,0,.808-.265.758-.859a1.889,1.889,0,0,0-1.506-1.639C26.936-1.914,16.814.886,16.682.725,15.751-1.116,14.557-.6,14.375-.563a3.751,3.751,0,0,1-2.565.047C9.351-1.628,7.388,1.2,6.042.828A4.519,4.519,0,0,0,3.334.858a3.322,3.322,0,0,1-2.882.222C-12.186-3.236-22.064.538-22.064.538c-5.569,1.859-6.282,0-6.282,0s-1.833-2.491,11.072-5.46C1.274-9.184,1.834-16.235,1.614-16.679c-.3-.647-.419.114-1.03.815a.948.948,0,0,1-1.11.294c-.583-.279-.956.388-.956.388s-.751,1.165-1.416.5c-.637-.639-1.485.8-1.8.859-.379.068-.564-.118-1.073-.351-.762-.338-1.58,1.051-2,1.149-.642.147-1.092-.755-1.643-.374-1.648,1.137-1.908,1.295-2.353.852-.327-.334-.376-.7-1.477.357-.936.9-1.385,1.066-1.762.5s-.287-1.359-1.9.185c-.769.739-1.162.753-1.6.421-.332-.249-.331-1.437-1.485-.362-1.046.969-1.807,1.393-2.1.533-.327-.966-1.561.178-1.845.448s-.931.982-1.374.246-1.508.364-2.141,1.065c-.488.544-.883.125-1.4-.222-.585-.4-2.339,2.044-2.5,2.192s-.282,0-.684-.341c-.618-.523-2.282,2.384-2.55,2.572,0,0-.114.251-.568-.182-.646-.615-4.073,3.9-5.366,9a17.489,17.489,0,0,0,.982,11.562,1.4,1.4,0,0,0,1.129-.512l.514-1.156c.415-.964,1.1-.661,1.1-.661l-1.617,4.811a2.68,2.68,0,0,0,.464,2.378,9.2,9.2,0,0,0,1.326,1.823c1.312,1.234,1.177-.227,1.212-.409.154-.782,1.02-.182,1.7.194,1.234.692,1.1-.838,1.368-1.336.189-.358.795-.374,1.454.178.512.429,1.021-1.023,1.021-1.023.64-3.093-.862-3.452-1.676-3.5l-1.646-.076a7.71,7.71,0,0,1,.28-.911l.073-.312c1.8-4.473-1.2-5.337-2.1-5.264-.99.088-.921-.544-.921-.544s5.422-1.066,4.411,4.683c0,0-.2,1-.32,1.523l1.49.173c1.281.161,1.509,1.677,1.509,1.677s4.715,1.246,7.39.748c0,0,1.194-.286,1.527-1.028a7.661,7.661,0,0,1,6.787-4.253s.178.528-.63.8c-.968.325-4.2.582-4.866,4.29v.014a2.433,2.433,0,0,0,1.409,2.5c1.125.507,1.522,2.553,1.754,3.106.654,1.57,1.636.069,1.636.069s.62-1.265,1.153-.563c.9,1.184,1.319.587,1.523-.168.225-.814.55-1.168,1.494-.178.4.429,1.193.1,1.271-.639.168-1.619,1.262-.331,1.418-.268.187.071,1.333-.187.692-2.013,0,0-.867-1.74-4.771-2.491-.916-.173-.77-.836-.77-.836l.86.119c.256.042,2.527.294,2.768.332,9.524.94,16.75-2.29,16.968-2.52,7.4,1.418,17.456.935,19.345.253s2.039-1.776,1.821-2.072M14.74.567A1.19,1.19,0,0,1,15.176.11c.573-.327.94.7.871.732l-.023.009a.01.01,0,0,0,0,.007,5.121,5.121,0,0,1-1.307.286c-.22-.152.024-.576.024-.576M10.534.891a.957.957,0,0,1,.421-.272,1.363,1.363,0,0,1,1.233.235c.628.4.613.711.613.711-.021.01-.05.021-.081.033A19.29,19.29,0,0,1,10.394,2a.9.9,0,0,1,.14-1.113M-24.331-8.154c.315.241.014,1.636-.211,1.43l-1.613-.853s1.5-.812,1.825-.576m-2.626.89c.319.235.021,1.634-.2,1.426l-1.61-.857s1.5-.812,1.814-.57m-.907,2.726c.319.237.019,1.638-.208,1.435l-1.613-.866s1.5-.807,1.821-.57M-29.4-.878l-1.613-.857s1.5-.814,1.819-.575.014,1.638-.206,1.432m-.3,2.761-1.61-.857s1.5-.81,1.818-.576.021,1.629-.208,1.433m-.029-8.176c.32.239.017,1.629-.208,1.432l-1.615-.86s1.5-.812,1.823-.571m-1.4,2.126c.315.237.016,1.629-.206,1.432l-1.613-.859s1.5-.814,1.819-.573M-34.013-.833s1.5-.815,1.819-.575S-32.175.223-32.4.022Zm1.236,3.493L-34.385,1.8s1.5-.807,1.818-.568.019,1.629-.209,1.43M-33.923-3.2c.317.232.017,1.629-.209,1.428l-1.606-.86s1.492-.808,1.816-.568M-35.374-.387c.319.235.019,1.638-.211,1.432L-37.193.19s1.5-.807,1.819-.576m-2.119,3.331s1.5-.807,1.818-.57.016,1.634-.206,1.432Zm2.875,3.151-1.61-.859s1.5-.812,1.819-.575.014,1.632-.209,1.433m2.309,1.871-1.61-.855s1.5-.812,1.819-.576.012,1.639-.209,1.432m.724-2.92L-33.2,4.183s1.5-.807,1.821-.575.017,1.632-.208,1.437m2.143,4.18-1.608-.857s1.492-.81,1.814-.573.023,1.627-.206,1.43m.774-2.69-1.61-.857s1.5-.807,1.816-.57.021,1.632-.206,1.426m.533-2.543-1.61-.86s1.5-.8,1.819-.57.014,1.629-.209,1.43M-25.87,8.9l-1.61-.864s1.5-.8,1.819-.571S-25.643,9.1-25.87,8.9m.7-2.68-1.61-.855s1.5-.815,1.819-.575.012,1.629-.209,1.43m.583-2.839-1.61-.857s1.5-.8,1.821-.571.014,1.631-.211,1.428M-22.327,8.4l-1.615-.857s1.5-.812,1.823-.575.01,1.639-.208,1.432m.54-2.865-1.61-.862s1.5-.808,1.819-.573.017,1.629-.209,1.435m.563-2.943-1.612-.859s1.5-.808,1.819-.573.017,1.634-.208,1.432M-18.8,7.266l-1.612-.85s1.5-.812,1.816-.576.021,1.631-.2,1.426m.441-2.823-1.615-.853s1.5-.81,1.816-.576.021,1.639-.2,1.43m.559-2.766L-19.417.823s1.5-.815,1.821-.58.017,1.639-.2,1.433m2.467,4.992-1.612-.859s1.5-.812,1.819-.575.017,1.632-.208,1.433m.44-2.635-1.613-.855s1.5-.817,1.819-.575.017,1.632-.206,1.43m.53-2.813L-15.977.366s1.5-.819,1.823-.575.021,1.629-.209,1.43m2.233,5.5-1.608-.857s1.5-.815,1.818-.571.017,1.629-.209,1.428m.531-2.83-1.615-.855s1.5-.817,1.823-.575.016,1.631-.208,1.43m.6-2.816L-12.609.216s1.5-.815,1.821-.573.017,1.634-.208,1.43m2.223,5.647-1.613-.862s1.5-.81,1.818-.566.023,1.629-.2,1.428m.514-2.673-1.608-.86s1.5-.8,1.816-.575.019,1.638-.208,1.435m.611-2.737L-9.256.455s1.5-.81,1.819-.576.014,1.634-.211,1.432m2.031,5.813-1.612-.866s1.5-.8,1.819-.564.021,1.629-.208,1.43m.57-2.591-1.612-.855s1.5-.81,1.819-.573.012,1.634-.208,1.428m.615-2.649-1.615-.853s1.5-.812,1.825-.58.01,1.629-.209,1.433M-1.921,5.09l-1.608-.848s1.5-.814,1.819-.582.016,1.634-.211,1.43" transform="translate(41.057 16.925)"/></g><g transform="translate(16.125 45.136)"><path class="e" d="M6.625.548a1.99,1.99,0,0,0-2.147-1.3c-.107,0-5.524.005-5.524.005l-8.017,21.83h3.9a1.913,1.913,0,0,0,.931-.154,2.725,2.725,0,0,0,1.239-1.527c0,.007,1.091-3.041,1.165-3.241l8.067,0c.168.514,1.639,4.916,1.639,4.916h5.281L9.812,10.453ZM5,11.682H-.436c.585-1.6,2.046-5.666,2.669-7.309C2.771,6.032,4.984,11.628,5,11.682" transform="translate(9.062 0.749)"/></g><g transform="translate(59.035 44.967)"><path class="e" d="M4.554,0h0C-1.7.009-6.229,4.7-6.229,11.146A10.7,10.7,0,0,0,4.554,22.23,10.909,10.909,0,0,0,15.522,11.146,10.942,10.942,0,0,0,4.554,0M4.71,17.359c-3.183,0-5.68-2.754-5.68-6.272,0-3.486,2.443-6.112,5.676-6.112,3.211,0,5.541,2.569,5.541,6.112,0,3.578-2.382,6.272-5.538,6.272" transform="translate(6.229)"/></g><g transform="translate(83.236 45.119)"><path class="e" d="M4.934,3.816l-.2-.061c.005,0-2.032-.616-2.037-.621l-.3-.109C.724,2.424-.458,1.921-.458.951V.88C-.292-.728,2.692-.745,2.722-.745a11.151,11.151,0,0,1,4.515.9l.033.012.069.021A2.353,2.353,0,0,0,8.3.21L8.739.042c.637-.35,1.271-2.205,1.515-2.988l.078-.251-.2-.178A7.454,7.454,0,0,0,7.894-4.467,16.239,16.239,0,0,0,3.72-5.215L2.514-5.22c-6.3,0-8.709,3.888-8.787,6.5-.052,2.6,1.43,3.942,3.67,5.159A21.63,21.63,0,0,0,1.285,7.782c-.007-.005,1.284.377,1.284.377,2.347.737,3.246,1.556,3.078,2.827-.074.421-.867,1.115-2.671,1.115a11.489,11.489,0,0,1-3.9-.66,13.908,13.908,0,0,1-1.939-.966l-.031-.021-.069-.031a2.369,2.369,0,0,0-1-.173l-.5.107c-.724.27-1.729,2.107-2.133,2.884l-.158.306.274.218a23.288,23.288,0,0,0,2.121,1.48A13.258,13.258,0,0,0-.493,16.616a16.36,16.36,0,0,0,3.04.248c4.883,0,8.43-2.474,8.839-6.157.178-3.343-1.873-5.524-6.452-6.89" transform="translate(6.749 5.22)"/></g><g transform="translate(103.047 45.169)"><path class="e" d="M.977,0A3,3,0,0,0-.9.585a1.316,1.316,0,0,0-.431,1l0,3.453,6.663-.005V21.811l5.458,0V5.029h4.29a3.066,3.066,0,0,0,1.88-.587,1.34,1.34,0,0,0,.429-1V0Z" transform="translate(1.336 0)"/></g><g transform="translate(0.001 45.156)"><path class="e" d="M4.953,7.131H-1.175c0-.8-.017-14.88-.017-14.88A1.881,1.881,0,0,0-1.748-9.2a2.586,2.586,0,0,0-1.807-.547l-3.22-.007.007,21.816H6.893L6.9,8.6c0-.443-.19-1.464-1.951-1.464" transform="translate(6.775 9.754)"/></g><g transform="translate(39.282 44.951)"><path class="e" d="M4.859,2.051a10.351,10.351,0,0,1,3.49.287,2.569,2.569,0,0,0,1.5.1l.436-.194c.611-.376,1.049-2.294,1.255-3.4l.047-.26-.222-.161a9.985,9.985,0,0,0-2.209-.7A16.087,16.087,0,0,0,4.966-2.8H4.878C.358-2.8-6.45.18-6.646,8.4v.047c.2,8.219,7,11.2,11.527,11.2l.085,0A16.343,16.343,0,0,0,9.16,19.1a9.589,9.589,0,0,0,2.211-.694l.222-.156-.048-.26c-.206-1.111-.644-3.026-1.255-3.4v0l-.434-.19a2.615,2.615,0,0,0-1.515.113,10.529,10.529,0,0,1-3.5.284C1.419,14.456-.638,12.126-.793,8.4c.156-3.689,2.212-6.019,5.652-6.351" transform="translate(6.646 2.805)"/></g><g transform="translate(125.075 45.174)"><path class="e" d="M5.433,9.2A2.184,2.184,0,0,0,7.71,7.01L7.692,4.272l-9.619.005S-1.91,1.139-1.91.619H6.03L6.017-4.429-1.9-4.42c0-.6,0-2.538,0-3.138l7.289-.009A2.831,2.831,0,0,0,7.27-8.15,2.284,2.284,0,0,0,7.7-9.7v-2.882H-7.432l0,21.806Z" transform="translate(7.432 12.587)"/></g></g></g></svg>