<svg xmlns="http://www.w3.org/2000/svg" xmlns:xlink="http://www.w3.org/1999/xlink" width="225.587" height="45.621" viewBox="0 0 225.587 45.621"><defs><style>.a{fill:#333;}.b{clip-path:url(#a);}</style><clipPath id="a"><path class="a" d="M0,22.321H225.587V-23.3H0Z" transform="translate(0 23.3)"/></clipPath></defs><g transform="translate(0 23.3)"><g class="b" transform="translate(0 -23.3)"><g transform="translate(9.819 22.881)"><path class="a" d="M2.653.328c.474.333.454,1,.881,1.339l.217,1.482L2.678,4.723c-1.365.713-3.4,1.026-4.662-.123A2.566,2.566,0,0,1-2.7,2.094L-2.2.735c.284-.194.666-.243.86-.576a6.663,6.663,0,0,1,2.291-.5c.574.188,1.435-.119,1.7.67" transform="translate(2.769 0.342)"/></g><g transform="translate(5.066 32.213)"><path class="a" d="M3.249.026c.427,0,.736.313,1.14.239.578.215.5.91,1.1,1.081a13.484,13.484,0,0,1,.977,2.861c-.166.574.315.909.145,1.433l.17.1a4.142,4.142,0,0,1-.264,1.694,5.02,5.02,0,0,1-.838,2.7c-.305.19-.452.74-.879.644-.771.241-.84,1.382-1.77,1.243-.6.452-1.412.186-2.128.211-.405-.211-.979-.163-1.261-.525A7.393,7.393,0,0,1-2.34,10.37c-.243-.527-.791-.766-.862-1.359.211-.719-.243-1.367-.053-2.079l-.137-1.192.448-2.058c.768-.409.548-1.333,1.316-1.623C-1.149.962-.008.719.879.169c.339-.067.74.121,1-.188.48-.074.934.433,1.365.045" transform="translate(3.391 0.027)"/></g><g transform="translate(0 -0.001)"><path class="a" d="M24.788.221c-.192,3.37-2.962,5.637-4.425,8.48-.615,1.7-2.1,2.7-3.15,4.229a26.969,26.969,0,0,0-2.673,3.152c.145.785.975,1,1.455,1.576,1.075.644,1.192,1.858,2.126,2.6.546,0,.546.815,1.149.721a39.327,39.327,0,0,1,3.336,4.251,3.059,3.059,0,0,0,.887,1.431c.838,1.218,1.531,2.51,2.389,3.751.123,1.384,1.29,2.314,1.647,3.609.529.691.742,1.5,1.224,2.2.738,1.623,1.241,3.315,2.122,4.873a.988.988,0,0,1-.237.979c-.335.262-.593-.219-.983-.149a32.654,32.654,0,0,1-5.633-2.837c-1.868-1.508-3.922-2.579-5.758-4.157-.717-.192-1-1.026-1.666-1.365-1.772-1.1-3.186-2.671-4.973-3.7C10.814,29.243,10,28.649,9.187,28c-.623-.076-.832-.791-1.431-1C6.416,26.188,5.2,25.06,3.841,24.3c-.123.194,0,.478-.123.67-.909.885-.666,2.246-1.318,3.227-.02,1.408-1,2.44-1.4,3.675-1.126,2.009-2.107,4.065-3.276,6.044C-3.834,39.97-4.664,42.453-6.863,44.1a6.027,6.027,0,0,1-1.623,1.292c-.264-.074-.646-.031-.719-.36-.262-.5.072-1.269-.284-1.725a10.1,10.1,0,0,0,.26-2.24l-.117-.333c.023-1.053.546-1.936.333-3.011a7.072,7.072,0,0,0,.472-2.15A11.26,11.26,0,0,0-7.817,32.7a3.544,3.544,0,0,0,.356-1.981c.235-.617.286-1.363.934-1.815.092-.409,0-.811.069-1.241.646-1.96,1.433-3.847,1.934-5.85,0-.143-.141-.19-.235-.219A18.787,18.787,0,0,1-8.8,21.458a33.312,33.312,0,0,1-6.371-.742,7.432,7.432,0,0,1-2.606-.55,2.864,2.864,0,0,1-1.551-.143c-.985-.48-2.177-.405-3.158-.932-.74.1-1.263-.384-1.936-.454-.644.051-1-.5-1.453-.862v-.211c1.192-1.627,3.1-2.077,4.824-2.7,1.7-.527,3.585-.572,5.351-.934,1.122-.188,2.338.125,3.462-.072,2.028.051,3.988.384,6,.435a10.932,10.932,0,0,0,1.958.378l-.025-.284L-6.2,11.807C-6.9,10.135-8.22,8.727-8.68,6.957c-.427-.525-.023-1.31-.36-1.886-.02-.264.2-.452.313-.67.409-.166.86.121,1.267-.143,1.22.288,2.342.717,3.558.954A15.6,15.6,0,0,1-.223,7.055c1.41,1,3.109,1.647,4.2,3.2a1.227,1.227,0,0,0,1.12.211c.337-.045.411-.45.724-.57C7.3,8.962,8.971,8.441,10.434,7.411c.587-.6,1.551-.67,1.9-1.48a7.9,7.9,0,0,1,1.343-.623,24.237,24.237,0,0,1,2.575-1.719A2.74,2.74,0,0,0,17.5,3.017c1.48-.813,3.035-1.48,4.441-2.412.313-.836,1.241-.646,1.911-.836.335.072.791.023.936.452" transform="translate(25.875 0.231)"/></g></g><g class="b" transform="translate(0 -23.3)"><g transform="translate(174.578 16.426)"><path class="a" d="M4.527,6.676a4.582,4.582,0,0,1-2.565.652,3.036,3.036,0,0,1-2.978-3.1C-1.016,1.787.817.869,2.575.869a10.869,10.869,0,0,1,1.833.188ZM-2.128-2.65A3.973,3.973,0,0,1,1.659-4.672c2.6,0,2.749,2.289,2.749,4.353-.535,0-1.183-.114-1.8-.114-3.477,0-7.339,1.568-7.339,5.619,0,2.827,2.561,4.435,5.161,4.435,1.68,0,2.906-.92,4.206-1.872A3.853,3.853,0,0,0,7.7,9.621l2.861-2.293L9.99,6.756a3.9,3.9,0,0,1-.8.153c-.842,0-1.142-.5-1.142-2.258V3.312c.037-2.177.145-4.163.145-5.539,0-3.822-2.9-4.742-6.3-4.742a17.445,17.445,0,0,0-4.932.687V-2.65Z" transform="translate(4.726 6.969)"/></g><g transform="translate(67.032 4.292)"><path class="a" d="M12.314,3.32H10.671C9.457-.367,5.612-1.817,2.238-1.817-4.583-1.817-7.4,3.669-7.4,10.256c0,11.057,8,12.936,11.251,12.936a8.88,8.88,0,0,0,7.767-4.116l1.214.511-1.214,4.351a38.219,38.219,0,0,1-7.644.9c-11.687,0-16.823-7.211-16.823-14.27,0-8.075,6.234-14.035,15.022-14.035,5.089,0,7.049.863,9.833,1.572Z" transform="translate(12.854 3.466)"/></g><g transform="translate(94.962 16.395)"><path class="a" d="M.825,2.117V-1.521A17.366,17.366,0,0,1,5.763-2.21c3.407,0,6.316.922,6.316,4.748,0,1.382-.114,3.372-.155,5.553V9.432c0,1.762.307,2.26,1.153,2.26a3.488,3.488,0,0,0,.8-.157l.576.578-2.87,2.3a3.862,3.862,0,0,1-3.07-1.88c-1.3.959-2.524,1.88-4.206,1.88-2.6,0-5.169-1.609-5.169-4.447,0-4.053,3.867-5.621,7.352-5.621.609,0,1.261.11,1.794.11,0-2.064-.151-4.36-2.753-4.36A3.979,3.979,0,0,0,1.739,2.117Zm7.46,3.714A10.375,10.375,0,0,0,6.446,5.64c-1.756,0-3.6.924-3.6,3.37a3.048,3.048,0,0,0,2.99,3.1,4.634,4.634,0,0,0,2.569-.648Z" transform="translate(0.861 2.21)"/></g><g transform="translate(110.81 9.971)"><path class="a" d="M2.789,3.164c0,1.615.155,4.981.155,8.12v5.592c0,1.3.617,1.492,1.494,1.725v.766c-1.147,0-2.295-.119-3.452-.119-1.028,0-2.06.078-3.1.119V18.6c.92-.233,1.341-.423,1.341-1.725V12.128a15.784,15.784,0,0,0-.536-5.095,1.717,1.717,0,0,0-1.6-1.187V5.081A16.919,16.919,0,0,0,2.025,3.164ZM.915-3.3a2.019,2.019,0,0,1,2.1,1.954A2.017,2.017,0,0,1,.915.6,2.019,2.019,0,0,1-1.192-1.349,2.021,2.021,0,0,1,.915-3.3" transform="translate(2.911 3.303)"/></g><g transform="translate(119.797 16.862)"><path class="a" d="M.132,7.344a4.172,4.172,0,0,0,2.528-1.8L6.374.8l-4.4-5.974A4.314,4.314,0,0,0-.138-6.9v-.766c1.151.037,2.338.117,3.485.117s2.3-.078,3.444-.117V-6.9c-.458.227-.8.309-.8.881a2.248,2.248,0,0,0,.458,1.228L8.555-1.923l1.872-2.491a2.617,2.617,0,0,0,.58-1.261c0-.724-.462-1-1.073-1.226v-.766c1.03.037,2.027.117,3.06.117,1,0,2.032-.078,3.029-.117V-6.9a5.407,5.407,0,0,0-3.139,2.338L9.626-.427l4.137,5.743a5.606,5.606,0,0,0,2.408,2.028v.768C15.027,8.072,13.912,8,12.767,8s-2.263.074-3.409.116V7.344a.9.9,0,0,0,.766-.844,3.774,3.774,0,0,0-.615-1.3L7.443,2.253,5.374,5.045a3.535,3.535,0,0,0-.531,1.42c0,.609.3.8.8.879v.768C4.649,8.072,3.612,8,2.617,8,1.781,8,.97,8.07.132,8.111Z" transform="translate(0.138 7.666)"/></g><g transform="translate(137.133 16.395)"><path class="a" d="M.826,2.117V-1.521a17.41,17.41,0,0,1,4.94-.689c3.409,0,6.32.922,6.32,4.748,0,1.382-.119,3.372-.157,5.553V9.432c0,1.762.307,2.26,1.149,2.26a3.516,3.516,0,0,0,.8-.157l.574.578-2.878,2.3a3.852,3.852,0,0,1-3.056-1.88c-1.3.959-2.53,1.88-4.208,1.88-2.606,0-5.177-1.609-5.177-4.447C-.862,5.91,3,4.341,6.492,4.341c.615,0,1.263.11,1.8.11,0-2.064-.151-4.36-2.757-4.36A3.971,3.971,0,0,0,1.746,2.117ZM8.294,5.831A10.417,10.417,0,0,0,6.455,5.64c-1.764,0-3.6.924-3.6,3.37a3.043,3.043,0,0,0,2.984,3.1,4.619,4.619,0,0,0,2.569-.648Z" transform="translate(0.862 2.21)"/></g><g transform="translate(153.67 5.951)"><path class="a" d="M3.163,1.048c0-.724.456-.764,1.525-.764,4.131,0,5.7,2.218,5.7,5.582,0,3.323-2.3,5.428-5.7,5.428-.5,0-1.036-.035-1.715-.076ZM-1.123,22.339c0,1.645-.493,2.216-2.179,2.406v.689H3.275c.535,0,1.073.041,1.57.076.536.037,1.071.072,1.566.072,4.167,0,9.1-1.6,9.1-6.53,0-3.977-2.412-6-6.007-7v-.076c2.87-.918,5.545-3.019,5.545-6.268,0-4.971-5.128-6.806-9.4-6.806-.916,0-1.8.155-3.515.155-1.529,0-3.1-.155-5.009-.155V-.25C-1.845-.1-1.23.245-1.23,1.7c0,3.442.108,8.3.108,12.882Zm4.1-9.479c.8,0,1.408-.041,2.058-.041,3.667,0,5.811,2.6,5.811,6.08A5.033,5.033,0,0,1,5.6,24.211c-2.367,0-2.632-.382-2.632-2.446Z" transform="translate(3.302 1.094)"/></g><g transform="translate(190.491 16.398)"><path class="a" d="M0,1.309A1.534,1.534,0,0,1,1.68,3.067c0,1.222.194,3.289.194,5.5v3.746c0,1.3-.46,1.449-1.416,1.794v.766c1.073,0,2.175-.114,3.248-.114,1.106,0,2.181.076,3.289.114V14.11c-1.03-.114-1.418-.419-1.418-1.794V9.184c0-2.984.08-5.122.08-6.575C5.659,1.2,8.1.811,8.866.811,11.58.811,12,3.639,12,5.7v6.612c0,1.3-.309,1.568-1.378,1.794v.766c1.23,0,2.41-.114,3.63-.114.961,0,1.878.076,2.833.114V14.11c-1.071-.3-1.378-.57-1.378-1.794v-8.1c0-3.248-1.49-5.506-5.273-5.506A9.3,9.3,0,0,0,5.77.545c.041-.65.041-1.261.076-1.911H5.083A13.225,13.225,0,0,1,0,.545Z" transform="translate(0 1.366)"/></g><g transform="translate(207.909 5.499)"><path class="a" d="M8.64,12.883a8.118,8.118,0,0,1-3.015-2.138L-.151,3.978,2.794.881A8.149,8.149,0,0,1,6.347-1.336V-2.1c-.954.072-1.909.114-2.866.114-1.03,0-2.1-.039-3.137-.114v.762a1.26,1.26,0,0,1,.691.995,2.633,2.633,0,0,1-1,1.8l-3.133,3.1v-18h-.84a14.853,14.853,0,0,1-5.085,2.33v.877c.955,0,1.835.918,1.917,2.485C-6.991-6.3-6.8-3.435-6.8-1.218V11.164a1.541,1.541,0,0,1-1.455,1.719v.766c1.03-.074,2.025-.114,3.054-.114,1.147,0,2.258.114,3.4.114v-.766c-.916-.19-1.3-.646-1.3-1.8V5.848h.078L.92,10.171A4.128,4.128,0,0,1,2.028,12.2a.649.649,0,0,1-.611.687v.766c1.3,0,2.6-.114,3.9-.114,1.11,0,2.22.074,3.327.114Z" transform="translate(9.019 13.448)"/></g></g><path class="a" d="M34.536-2.215H192.4v-.679H34.536Z" transform="translate(33.192 18.919)"/></g></svg>