<svg xmlns="http://www.w3.org/2000/svg" xmlns:xlink="http://www.w3.org/1999/xlink" width="190.24" height="36.855" viewBox="0 0 190.24 36.855"><defs><style>.a{fill:none;}.b{clip-path:url(#a);}.c{fill:#2b2e34;}</style><clipPath id="a"><path class="a" d="M0,14.78H190.24V-22.075H0Z" transform="translate(0 22.075)"/></clipPath></defs><g transform="translate(0 22.075)"><g class="b" transform="translate(0 -22.075)"><g transform="translate(61.602 7.515)"><path class="c" d="M45.158,1.588A12.061,12.061,0,0,0,40.57.854h-.245a27.013,27.013,0,0,0-4.5.441c-.27.048-.377.189-.377.5v2.3c0,.285.147.386.471.337A28.791,28.791,0,0,1,39.9,4.067h.159a6.917,6.917,0,0,1,3.631.663c.766.516,1.147,1.286,1.147,2.957V8.18a19.409,19.409,0,0,0-3.843-.407h-.341a7.956,7.956,0,0,0-5.426,1.711A5.419,5.419,0,0,0,33.6,13.552v.15c0,3.554,2.454,5.747,7.44,5.747h.888a8.042,8.042,0,0,0,4.944-1.509c1.289-1.067,1.788-2.643,1.788-5.164V7.639c0-3.509-1.371-5.134-3.5-6.05m-.321,11.1c0,1.346-.043,2.135-.531,2.7a3.442,3.442,0,0,1-2.678.877h-.6c-2.3,0-3.63-.922-3.63-2.688a2.579,2.579,0,0,1,.811-1.953,4.234,4.234,0,0,1,2.895-.746h.324a14.05,14.05,0,0,1,3.413.386ZM60.8.852H58.743c-2.953,0-5.259,1.023-6.247,3.165a8.666,8.666,0,0,0-.559,3.5V18.776c0,.249.12.349.377.349h3.07c.255,0,.371-.1.371-.349V9.355c0-1.331.027-2.3.1-2.9.174-1.559,1.12-2.3,3.329-2.3h1.634c.264,0,.379-.135.379-.391V1.241A.343.343,0,0,0,60.8.852M-12.834,19.125h3.326a.512.512,0,0,0,.531-.312C-6.824,14.759-3.53,7.832-3.306,1.551c.01-.25-.1-.357-.419-.357h-3.1c-.361,0-.461.117-.481.439A34.452,34.452,0,0,1-8.637,8.951a40.143,40.143,0,0,1-2.543,6.53,39.84,39.84,0,0,1-2.543-6.53,34.394,34.394,0,0,1-1.336-7.363c-.022-.327-.2-.394-.514-.394h-3.119c-.331,0-.422.155-.4.489.437,6.154,2.351,10.934,5.671,17.143a.573.573,0,0,0,.583.3M11.86,11.085c.826.307,1.516.561,2.336.851,1.756.624,2.508,1.119,2.508,2.192,0,1.389-1.17,2.127-3.82,2.127h-.1a16.158,16.158,0,0,1-4.711-.775c-.311-.1-.482.018-.482.331V18.1c0,.287.048.462.371.573A16.822,16.822,0,0,0,13,19.449h.124c4.7,0,7.256-2.092,7.256-5.478v-.05a4.539,4.539,0,0,0-1.23-3.274,10.693,10.693,0,0,0-3.817-2.054c-.982-.366-1.745-.646-2.423-.9-1.531-.558-1.96-1.084-1.96-1.87,0-1.3,1.274-1.808,3.326-1.808l.155,0a25.179,25.179,0,0,1,4.356.484c.321.058.5-.012.5-.344V1.81c0-.311-.083-.4-.4-.466A26.486,26.486,0,0,0,14.557.854h-.275c-2.4,0-4.182.447-5.369,1.481A4.754,4.754,0,0,0,7.3,5.964l0,.109A4.381,4.381,0,0,0,8.625,9.388a9.526,9.526,0,0,0,3.236,1.7m18.9,8.041a.357.357,0,0,0,.407-.372V16.2a.358.358,0,0,0-.407-.374H30.35a3.18,3.18,0,0,1-2.426-.775,4.172,4.172,0,0,1-.733-2.9V4.375h3.377c.255,0,.382-.1.382-.349V1.545c0-.25-.127-.349-.382-.349H27.192V-2.021c0-.25-.127-.351-.382-.351h-3.07c-.255,0-.372.1-.372.351V12.35c0,2.5.5,4.1,1.6,5.191,1.032,1.025,2.645,1.584,4.98,1.584ZM-47.818.854h-.927c-2.666,0-4.438.71-5.3,1.76h-.02c-.858-1.05-2.738-1.76-5.406-1.76h-.952c-3.007,0-5.471,1.047-6.461,3.189a8.648,8.648,0,0,0-.566,3.5V18.714a.375.375,0,0,0,.4.411h3.027a.372.372,0,0,0,.392-.411l.007-9.308c0-1.332.032-2.3.1-2.9.175-1.561,1.334-2.321,3.544-2.321h.252c2.209,0,3.423.76,3.6,2.321.067.6.1,1.564.1,2.9v9.311a.374.374,0,0,0,.4.407H-52.6a.4.4,0,0,0,.392-.439l0-9.279c0-1.332.032-2.3.1-2.9.174-1.561,1.386-2.321,3.6-2.321h.254c2.209,0,3.367.76,3.541,2.321.067.6.1,1.564.1,2.9v9.311a.371.371,0,0,0,.4.407h3.034a.4.4,0,0,0,.392-.439V7.538a8.675,8.675,0,0,0-.568-3.5C-42.347,1.9-44.813.854-47.818.854m26.1,14.245a16.4,16.4,0,0,0,.576-4.945,16.416,16.416,0,0,0-.576-4.947C-22.653,2.092-25.112.854-29.1.854h-.476c-3.989,0-6.448,1.239-7.384,4.353a16.546,16.546,0,0,0-.573,4.947,16.533,16.533,0,0,0,.573,4.945c.937,3.114,3.4,4.354,7.384,4.354h.476c3.989,0,6.448-1.24,7.379-4.354m-3.449-2.331c-.3,2.907-1.763,3.362-4.12,3.362h-.1c-2.356,0-3.823-.456-4.117-3.362a22.451,22.451,0,0,1-.165-2.615,22.481,22.481,0,0,1,.165-2.616c.294-2.907,1.761-3.361,4.117-3.361h.1c2.357,0,3.823.454,4.12,3.361a22.871,22.871,0,0,1,.164,2.616,22.841,22.841,0,0,1-.164,2.615M3.3,1.2H.227c-.255,0-.377.1-.377.349l0,17.228c0,.249.122.349.377.349H3.3c.255,0,.379-.1.379-.349l0-17.228c0-.25-.122-.349-.377-.349" transform="translate(67.445 2.372)"/></g><g transform="translate(0 0.001)"><path class="c" d="M3.765,1.712C1.451,1.748-2.82,2.889-4.77,10.856a27.181,27.181,0,0,0-.452,11.4,43.625,43.625,0,0,0,2.661,9.289,8.26,8.26,0,0,0,1.035,1.748,2.779,2.779,0,0,0,3.2.8C2.4,33.732,3.229,32.87,2.927,30.9a26.213,26.213,0,0,0-.8-3.114A34.254,34.254,0,0,1,.349,20.519c-.114-2.726.962-3.084,1.676-3.241,1.2-.264,2.207,1.053,3.162,2.706,1.142,1.972,3.1,5.466,4.693,8.134a9.126,9.126,0,0,0,8.366,4.812c4.351-.18,7.56-1.84,9.211-7.067a86.789,86.789,0,0,1,3.436-9.825c1.559-3.441,3.64-5.282,5.393-4.721,1.626.523,2.032,2.112,2.052,4.449a52.742,52.742,0,0,1-.409,6.02,17.456,17.456,0,0,0-.139,2.508c.1,1.334.674,2.666,2.177,2.88,1.6.227,2.883-1.052,3.4-2.6a14.274,14.274,0,0,0,.469-2.2,39.716,39.716,0,0,0,.379-9,32.206,32.206,0,0,0-2.394-10.8c-1.306-3.015-3.4-4.949-6.091-5.119-2.977-.19-6.393,1.785-8.184,5.616-1.653,3.533-2.973,7.157-3.775,9.009-.813,1.877-2.008,3.032-3.845,3.226-2.246.237-4.181-1.394-5.6-3.718a53.185,53.185,0,0,0-5-7.181C8.1,3.189,6.692,1.665,3.765,1.712" transform="translate(5.623 2.557)"/></g></g></g></svg>