<svg xmlns="http://www.w3.org/2000/svg" xmlns:xlink="http://www.w3.org/1999/xlink" width="128.645" height="29.2" viewBox="0 0 128.645 29.2"><defs><style>.a{fill:#333;}.b{clip-path:url(#a);}</style><clipPath id="a"><path class="a" d="M0,11.828H128.645v-29.2H0Z" transform="translate(0 17.372)"/></clipPath></defs><g transform="translate(0 17.372)"><g class="b" transform="translate(0 -17.372)"><g transform="translate(0 0.296)"><path class="a" d="M7.188,9.917c-2.074,1.138-6.3,1.708-8.134,1.708H-4.077V-11.556a1.837,1.837,0,0,1,.487-1.017l1.22-1.5a.816.816,0,0,0,0-.487h-8.092a.8.8,0,0,0,0,.487l1.219,1.5a1.839,1.839,0,0,1,.489,1.017V11.217a2.019,2.019,0,0,1-.652,1.14l-1.1.975a.762.762,0,0,0,0,.57H6.862l.977-3.985a1.524,1.524,0,0,0-.65,0" transform="translate(10.557 14.565)"/></g><g transform="translate(18.107 0)"><path class="a" d="M3.871,1.334c8.907-1.748,14.6,4.555,14.6,12.159a13.579,13.579,0,0,1-5.246,10.86C4.848,25.532-.887,19.839-.887,11.786-.887,7.76.5,3.856,3.871,1.334m19.278,10.7A14.106,14.106,0,0,0,9.24-1.96,13.888,13.888,0,0,0,3.058-.577,15.994,15.994,0,0,0-5.686,13.087,14.166,14.166,0,0,0,8.223,27.24a13.857,13.857,0,0,0,5.49-.975A15.2,15.2,0,0,0,23.149,12.03" transform="translate(5.686 1.96)"/></g><g transform="translate(49.376 0.294)"><path class="a" d="M7.188,10.1c-1.708.814-6.71,1.261-8.54,1.261H-4.077V1.234H.844l1.545.935a1.172,1.172,0,0,0,.57,0v-4.8a1.2,1.2,0,0,0-.57,0L.762-1.94H-4.077V-12.554H2.959L6.7-11.7a1.491,1.491,0,0,0,.65,0L6.66-14.832H-10.463a.821.821,0,0,0,0,.489l1.22,1.5a1.839,1.839,0,0,1,.489,1.017V10.952a2.025,2.025,0,0,1-.652,1.14l-1.1.975a.762.762,0,0,0,0,.57H6.863L7.838,10.1a1.521,1.521,0,0,0-.65,0" transform="translate(10.557 14.832)"/></g><g transform="translate(110.249 0.294)"><path class="a" d="M7.188,10.1c-1.708.814-6.71,1.261-8.54,1.261H-4.077V1.234H.844l1.545.935a1.174,1.174,0,0,0,.57,0v-4.8a1.2,1.2,0,0,0-.57,0L.762-1.94H-4.077V-12.554H2.959L6.7-11.7a1.491,1.491,0,0,0,.65,0l-.693-3.131H-10.461a.8.8,0,0,0,0,.489l1.22,1.5a1.848,1.848,0,0,1,.487,1.017V10.952a2.022,2.022,0,0,1-.65,1.14l-1.1.975a.762.762,0,0,0,0,.57H6.863L7.838,10.1a1.524,1.524,0,0,0-.65,0" transform="translate(10.557 14.832)"/></g><g transform="translate(69.39 0.295)"><path class="a" d="M15.812.02H9.06a.84.84,0,0,0,0,.489l1.261,1.178c.245.244.57.61.489.977h0L4.831,21.249-1.146.061a13.2,13.2,0,0,0-3.091,0L-11.4,21.207l-4.964-18.34h0a.98.98,0,0,1,.081-.854l1.424-1.5a.823.823,0,0,0,0-.489h-8.337a.823.823,0,0,0,0,.489l1.383,1.5a3.194,3.194,0,0,1,.447.812l.005,0,7.112,25.661a14.585,14.585,0,0,0,2.968,0L-4.074,7.1,2.147,28.489a11.865,11.865,0,0,0,2.93,0L13.41,3.231l0,0a2.351,2.351,0,0,1,.61-1.017L15.812.51a.823.823,0,0,0,0-.489" transform="translate(23.224 0.03)"/></g></g></g></svg>