<svg xmlns="http://www.w3.org/2000/svg" xmlns:xlink="http://www.w3.org/1999/xlink" width="224.568" height="18.076" viewBox="0 0 224.568 18.076"><defs><style>.a{fill:none;}.b{clip-path:url(#a);}.c{fill:#2b2e34;}</style><clipPath id="a"><path class="a" d="M0,8.983H224.568V-9.093H0Z" transform="translate(0 9.093)"/></clipPath></defs><g transform="translate(0 9.093)"><g class="b" transform="translate(0 -9.093)"><g transform="translate(200.552 -0.001)"><path class="c" d="M11.886,5.8A4.275,4.275,0,0,0,9.415,2.66,10.617,10.617,0,0,0,5.374,1.537,27.283,27.283,0,0,0,2.342,1.31H1.669C.77,1.2-.015,1.2-.916,1.09A29.269,29.269,0,0,0-4.059.863,5.949,5.949,0,0,1-6.3.3c-.449-.223-.674-.449-.674-.785,0-.225.115-.447.674-.676a5.785,5.785,0,0,1,1.463-.559A20.307,20.307,0,0,1-.128-2.171c1.125,0,2.358.113,3.93.227A22.043,22.043,0,0,1,9.081-.709c.447.111.785.336,1.234.449l1.012.338V-3.069a.85.85,0,0,0-.451-.783,21.69,21.69,0,0,0-9.1-2.022H-1.25A18.56,18.56,0,0,0-6.416-5.2a9.391,9.391,0,0,0-3.705,1.684A3.559,3.559,0,0,0-11.581-.6a3.656,3.656,0,0,0,1.234,3.147,7.29,7.29,0,0,0,2.92,1.57,16.778,16.778,0,0,0,3.93.672c2.022.115,4.266.34,6.514.563,1.008.113,2.02.225,2.918.338a2.192,2.192,0,0,1,1.232.674.584.584,0,0,1,.227.449c0,.111-.113.225-.227.338-.221.109-.447.336-.672.449a10.8,10.8,0,0,1-3.145.783A22.053,22.053,0,0,1-1.363,8.5H-1.7c-1.01-.113-2.135-.113-3.143-.227a22.534,22.534,0,0,1-6.4-1.906c-.113,0-.113-.113-.227-.113l-.563-.225V8.165c0,1.459.113,1.566,1.459,2.242a19.763,19.763,0,0,0,6.514,1.574c1.234.107,2.471.221,3.93.221h1.35a19.3,19.3,0,0,0,5.389-.67,8.74,8.74,0,0,0,3.817-1.686A4.081,4.081,0,0,0,11.886,5.8" transform="translate(12.032 5.874)"/></g><g transform="translate(168.103 0.224)"><path class="c" d="M10.882,5.915a6.531,6.531,0,0,0,2.471-4.6,6.053,6.053,0,0,0-1.688-4.6,7.75,7.75,0,0,0-4.713-2.7H-11.015V11.53h4.379V8.05H2.57c.113,0,.225.113.338.113.785.67,1.572,1.346,2.471,2.022a14.983,14.983,0,0,0,1.572,1.232h6.51L8.3,7.374a6.47,6.47,0,0,0,2.584-1.459M7.51,3.11a4.62,4.62,0,0,1-2.918,1.01H-6.526v-6.4H4.7A4.5,4.5,0,0,1,7.848-1.158,2.764,2.764,0,0,1,8.86.973,3.905,3.905,0,0,1,7.51,3.11" transform="translate(11.015 5.987)"/></g></g><g transform="translate(138.57 -8.869)"><path class="c" d="M0,0V17.517H21.447V13.7H4.041v-3.03h11.9V6.51H4.041v-2.8H21.447V0Z"/></g><g class="b" transform="translate(0 -9.093)"><g transform="translate(107.239 0.224)"><path class="c" d="M12.278.168,12.5.055V-.17H5.2C1.609,1.852-1.872,3.76-5.464,5.78L-8.049,7.241V-.17h-4.379V17.347h4.379V12.294c1.572-.9,3.034-1.8,4.606-2.7q4.714,3.873,9.431,7.749h6.176L.487,7.352Z" transform="translate(12.428 0.17)"/></g><g transform="translate(30.768 0.224)"><path class="c" d="M12.166,8.482l-.9-1.572C10.593,5.677,9.92,4.439,9.132,3.2,8.123,1.407,7.111-.388,5.99-2.185l-3.705-6.4H-2.209a.859.859,0,0,0-.225.449c0,.109-.111.109-.111.225L-12.09,8.369c0,.113-.111.113-.111.227l-.113.336H-7.15a.111.111,0,0,1,.113-.113c.338-.563.674-1.232,1.012-1.8s.559-1.125.9-1.688H5.2C5.765,6.46,6.439,7.586,7.111,8.7a.111.111,0,0,0,.113.113h5.167L12.277,8.6a.11.11,0,0,0-.111-.113M-2.658,1.407.262-3.535,3.069,1.407Z" transform="translate(12.315 8.586)"/></g></g><g transform="translate(0.001 -8.869)"><path class="c" d="M9.375,0V6.51H-5.109V0H-9.49V17.517h4.381V11H9.375v6.514h4.379V0Z" transform="translate(9.49)"/></g><g class="b" transform="translate(0 -9.093)"><g transform="translate(58.056 0.224)"><path class="c" d="M9.71,0h2.918V.111C14.314,3.03,16,5.838,17.57,8.759l2.471,4.153.674-1.121C22.959,7.86,25.206,4.041,27.452.111A.109.109,0,0,1,27.563,0h5.055l-.113.225c0,.113-.111.113-.111.225l-2.246,3.93c-1.8,3.143-3.705,6.29-5.5,9.542-.449.9-.9,1.8-1.348,2.7l-.451.9-.109.113H17.57c-.563-.9-1.123-1.908-1.684-2.811-.787-1.346-1.572-2.58-2.246-3.928-.563-1.012-1.125-2.02-1.684-3.032L11.28,6.626c-.336.563-.674,1.234-1.008,1.8q-1.518,2.7-3.034,5.393A23.366,23.366,0,0,0,5.78,16.732c-.113.336-.338.672-.449,1.006v.113H.166Q-3.71,11.115-7.583,4.379L-9.606.787A.4.4,0,0,1-9.716.561L-9.829.338h5.053a.109.109,0,0,0,.111.111C-2.418,4.268-.172,8.2,2.075,12.015l.672,1.236L6.79,6.288c.787-1.346,1.57-2.7,2.246-4.041Z" transform="translate(9.829)"/></g></g></g></svg>